{"glyphs":{"0":{"ha":667,"x_min":42,"x_max":625,"o":"m 42 350 q 247 706 42 618 q 332 729 301 729 q 465 695 407 729 q 558 606 524 661 q 625 344 625 493 q 571 139 625 225 q 432 3 511 43 q 322 -25 379 -25 q 116 79 190 -25 q 42 350 42 183 m 135 364 q 135 301 135 364 q 201 167 135 238 q 343 96 267 96 q 488 151 449 96 q 528 335 528 206 q 465 537 528 464 q 322 610 401 610 q 273 608 292 610 q 225 592 254 606 q 178 553 196 578 q 135 364 135 490 z "},"1":{"ha":667,"x_min":83,"x_max":658,"o":"m 83 542 q 471 729 408 717 l 488 714 q 471 332 471 464 q 472 162 471 200 q 476 110 474 124 q 486 81 478 97 q 515 60 494 65 q 658 43 569 46 l 658 0 l 128 0 l 128 43 l 163 43 q 353 106 349 46 q 360 244 360 154 q 351 568 360 333 q 103 500 272 568 l 83 542 z "},"2":{"ha":667,"x_min":14,"x_max":632,"o":"m 14 40 l 63 81 l 221 204 q 391 358 335 293 q 447 488 447 422 q 294 626 447 626 q 220 617 254 626 q 104 569 186 607 l 85 610 l 254 724 q 329 732 286 732 q 509 683 431 732 q 588 524 588 633 q 543 397 588 463 q 448 288 499 331 q 325 194 397 244 l 253 146 q 197 106 215 121 q 397 103 300 103 q 615 115 493 103 l 632 100 q 626 0 626 53 l 33 0 l 14 40 z "},"3":{"ha":667,"x_min":28,"x_max":572,"o":"m 206 238 l 175 236 l 165 297 q 308 338 250 311 q 390 394 367 364 q 429 488 429 447 q 410 558 429 528 q 367 603 392 588 q 293 632 314 632 q 97 557 231 632 l 75 596 l 228 718 q 304 729 268 729 q 477 673 400 729 q 554 526 554 617 q 367 299 554 385 q 513 238 453 297 q 572 106 572 178 q 428 -160 572 -39 q 60 -282 285 -282 l 28 -218 l 35 -207 q 88 -211 61 -211 q 332 -122 221 -211 q 443 72 443 -32 q 206 238 443 238 z "},"4":{"ha":667,"x_min":-4,"x_max":672,"o":"m -4 64 l 94 253 q 260 528 171 388 q 386 715 349 669 q 438 725 397 719 q 503 731 479 731 l 513 719 l 513 107 q 661 114 557 107 q 672 104 667 110 q 647 0 668 67 l 617 0 q 513 -3 550 0 l 521 -267 q 399 -287 464 -269 l 381 -294 q 386 -4 385 -162 q 29 0 97 -4 l -4 64 m 114 124 l 131 108 q 275 103 193 103 q 388 104 357 103 q 393 469 393 294 l 393 597 q 239 372 339 538 q 114 124 139 206 z "},"5":{"ha":667,"x_min":31,"x_max":568,"o":"m 31 -218 l 38 -207 q 90 -211 65 -211 q 327 -132 225 -211 q 429 50 429 -53 q 367 228 429 192 q 300 251 332 246 q 211 256 268 256 l 133 256 l 104 281 q 168 689 163 644 l 188 708 q 313 706 224 706 q 542 711 401 706 l 558 696 q 550 588 550 656 q 320 590 336 590 q 221 588 304 590 q 190 372 196 475 q 292 376 231 376 q 485 313 401 376 q 568 128 568 250 q 424 -172 568 -61 q 63 -282 279 -282 l 31 -218 z "},"6":{"ha":667,"x_min":35,"x_max":636,"o":"m 35 374 q 299 950 35 751 q 522 1065 399 1025 l 549 1022 q 410 944 501 1004 l 386 929 q 245 762 311 878 q 174 528 179 646 q 255 606 207 579 q 402 632 303 632 q 569 567 501 632 q 636 354 636 501 q 613 190 636 261 q 556 78 589 118 q 478 14 522 39 q 326 -24 406 -24 q 35 374 35 -24 m 168 469 l 167 431 q 168 369 167 431 l 169 344 q 264 75 179 129 q 360 50 303 50 q 479 130 439 50 q 519 315 519 210 q 491 470 519 421 q 393 540 463 519 q 322 550 365 550 q 246 536 279 550 q 199 509 213 522 q 168 469 186 496 z "},"7":{"ha":667,"x_min":56,"x_max":657,"o":"m 56 467 q 63 623 63 582 q 61 689 63 664 l 81 708 q 345 706 133 706 q 640 708 557 706 l 657 693 q 463 214 649 565 q 151 -294 276 -137 q 96 -261 126 -285 q 363 206 272 11 q 507 576 454 400 l 490 592 q 157 593 193 592 q 96 467 142 585 l 56 467 z "},"8":{"ha":667,"x_min":29,"x_max":636,"o":"m 29 269 q 72 435 29 368 q 214 560 114 503 q 103 674 144 599 q 61 800 61 749 q 139 999 61 919 q 342 1078 217 1078 q 542 1015 467 1078 q 617 860 617 953 q 572 722 617 792 q 440 599 526 653 l 488 575 q 598 462 560 536 q 636 300 636 388 q 555 73 636 169 q 333 -24 474 -24 q 111 56 193 -24 q 29 269 29 136 m 304 511 q 176 399 215 458 q 138 260 138 340 q 203 116 138 181 q 333 51 269 51 q 470 117 422 51 q 518 266 518 182 q 476 397 518 350 q 360 482 435 443 l 304 511 m 344 1007 q 307 1007 344 1007 q 228 970 269 1007 q 186 869 186 933 q 234 742 186 804 q 360 643 282 679 q 469 725 431 675 q 508 845 508 775 q 464 961 508 915 q 344 1007 419 1007 z "},"9":{"ha":667,"x_min":49,"x_max":628,"o":"m 49 381 q 150 661 49 582 q 374 729 240 729 q 499 697 446 729 q 578 613 551 665 q 628 390 628 513 q 607 165 628 267 q 553 -4 586 64 q 471 -124 519 -72 q 374 -204 422 -175 q 267 -253 325 -233 q 63 -283 178 -281 l 54 -236 q 338 -130 239 -210 q 472 121 438 -50 q 304 69 388 69 q 121 156 193 69 q 49 381 49 243 m 168 418 q 263 164 168 214 q 371 142 303 142 q 482 178 439 142 q 494 342 494 267 q 490 452 494 418 q 470 537 485 486 q 418 618 456 588 q 319 649 381 649 q 213 590 258 649 q 168 418 168 531 z "}," ":{"ha":333,"x_min":0,"x_max":0,"o":""},"!":{"ha":333,"x_min":78,"x_max":254,"o":"m 96 1031 q 238 1054 194 1044 l 254 1039 q 179 272 203 397 l 133 281 l 126 397 q 96 1031 96 939 m 144 -14 q 101 44 125 -14 q 78 117 78 101 q 102 169 78 133 q 150 206 126 206 q 205 154 174 206 q 236 82 236 103 q 202 24 236 61 q 144 -14 168 -14 z "},"\"":{"ha":511,"x_min":83,"x_max":428,"o":"m 83 1099 q 147 1107 101 1107 q 211 1099 192 1107 l 175 785 l 119 785 l 83 1099 m 300 1099 q 363 1107 318 1107 q 428 1099 408 1107 l 392 785 l 336 785 l 300 1099 z "},"#":{"ha":676,"x_min":67,"x_max":621,"o":"m 436 663 q 508 672 453 672 l 528 674 q 492 483 501 583 l 621 483 l 607 419 l 485 419 l 468 293 l 592 293 l 579 226 l 469 226 q 454 21 454 158 q 385 8 440 13 l 367 6 q 394 225 382 85 l 256 225 q 242 22 242 164 q 174 8 233 18 l 156 7 q 182 226 175 124 l 67 226 l 79 288 l 188 288 l 200 417 l 93 417 l 106 478 l 211 478 q 228 660 228 607 q 303 672 242 668 l 324 674 q 286 481 296 592 l 419 481 q 436 663 436 610 m 263 289 l 397 289 l 414 418 l 278 418 l 263 289 z "},"$":{"ha":667,"x_min":117,"x_max":550,"o":"m 521 638 l 517 501 l 465 501 q 453 554 464 519 q 431 607 443 589 q 356 646 410 639 l 356 432 q 533 307 503 382 q 550 208 550 269 q 529 111 550 146 q 447 16 485 40 q 356 -18 410 -8 l 356 -133 l 299 -133 l 299 -24 q 131 26 161 -22 q 119 74 119 44 q 126 212 119 186 q 155 238 132 238 q 183 218 178 238 q 194 165 189 199 q 214 110 199 131 q 299 67 238 75 l 299 300 q 131 417 163 346 q 117 508 117 451 q 148 614 117 564 q 214 691 179 664 q 299 725 249 718 l 299 844 l 356 844 l 356 729 l 360 729 q 474 706 419 729 q 497 694 489 700 q 521 638 521 679 m 241 622 q 230 612 241 622 q 215 587 219 603 q 210 544 210 571 q 299 453 210 493 l 299 646 q 241 622 263 640 m 356 67 q 460 169 460 81 q 433 238 460 213 q 356 281 406 263 l 356 67 z "},"%":{"ha":968,"x_min":58,"x_max":910,"o":"m 233 300 q 105 359 151 300 q 58 522 58 418 q 188 714 58 664 q 240 728 221 728 q 376 663 331 728 q 422 510 422 599 q 381 378 422 438 q 321 327 363 354 q 233 300 279 300 m 139 589 q 129 507 129 560 q 167 418 129 454 q 255 382 204 382 q 328 410 306 382 q 350 505 350 439 q 315 608 350 571 q 235 646 279 646 q 139 589 158 646 m 208 -4 l 699 746 l 750 713 l 260 -37 l 208 -4 m 719 -17 q 591 42 638 -17 q 544 204 544 101 q 674 397 544 347 q 726 411 707 411 q 863 346 817 411 q 910 193 910 281 q 897 116 910 146 q 866 62 883 86 q 807 10 849 38 q 719 -17 765 -17 m 625 272 q 615 190 615 243 q 653 101 615 138 q 741 65 690 65 q 814 93 792 65 q 836 188 836 121 q 801 291 836 254 q 721 328 765 328 q 625 272 644 328 z "},"&":{"ha":1083,"x_min":63,"x_max":1069,"o":"m 161 53 q 63 272 63 147 q 154 478 63 397 q 318 597 225 542 q 197 857 197 746 q 270 1000 197 936 q 449 1064 343 1064 q 596 1045 554 1064 q 638 988 638 1026 q 586 811 638 918 l 539 822 q 546 879 546 864 q 435 982 546 982 q 352 952 386 982 q 318 869 318 922 q 435 638 318 792 q 744 308 551 483 q 819 574 819 447 q 797 641 819 624 q 717 663 775 658 l 717 708 q 866 704 768 704 q 1017 708 964 704 l 1017 663 q 894 564 908 656 q 863 438 888 524 q 792 265 838 351 q 1069 46 919 154 l 1069 0 q 885 -6 956 0 l 725 163 q 604 49 674 96 l 560 18 q 489 -17 522 -8 q 373 -25 456 -25 q 254 -13 290 -25 q 161 53 218 -1 m 200 307 q 268 149 200 215 q 429 82 336 82 q 679 211 569 82 l 360 550 q 200 307 200 449 z "},"'":{"ha":294,"x_min":83,"x_max":211,"o":"m 83 1099 q 147 1107 101 1107 q 211 1099 192 1107 l 175 785 l 119 785 l 83 1099 z "},"(":{"ha":458,"x_min":139,"x_max":458,"o":"m 218 -28 q 164 168 189 43 q 139 413 139 293 q 164 656 139 532 q 209 829 189 779 q 247 908 229 879 q 284 963 265 938 q 324 1011 303 988 q 363 1053 344 1035 l 428 1114 l 458 1083 q 313 814 383 972 q 271 413 271 729 q 313 8 271 96 q 458 -260 394 -164 l 428 -290 l 426 -289 q 218 -28 278 -164 z "},")":{"ha":458,"x_min":0,"x_max":319,"o":"m 0 -260 q 146 8 64 -164 q 188 412 188 94 q 146 814 188 729 q 0 1083 75 972 l 31 1114 l 64 1085 q 240 851 199 956 q 294 656 269 779 q 319 413 319 532 q 294 168 319 293 q 240 -28 269 43 q 32 -289 188 -157 l 31 -290 l 0 -260 z "},"*":{"ha":722,"x_min":69,"x_max":653,"o":"m 69 769 l 100 879 l 119 890 l 342 783 l 289 1040 l 403 1043 l 419 1029 l 388 785 l 614 915 l 653 807 l 644 786 l 401 743 l 596 567 l 506 496 l 483 499 l 367 715 l 258 476 l 164 540 l 160 563 l 329 740 l 69 769 z "},"+":{"ha":667,"x_min":15,"x_max":656,"o":"m 15 347 l 35 439 l 289 439 l 289 696 l 367 714 l 382 697 l 381 439 l 639 439 l 656 424 l 638 347 l 382 347 l 381 93 l 289 74 l 289 347 l 15 347 z "},",":{"ha":333,"x_min":88,"x_max":246,"o":"m 150 -17 q 150 0 150 -17 q 119 63 150 17 q 88 117 88 108 q 100 144 88 125 q 158 206 136 206 q 213 153 179 206 q 246 58 246 100 q 191 -71 246 17 q 115 -158 136 -158 q 103 -151 113 -158 q 94 -139 94 -143 q 122 -92 94 -135 q 150 -17 150 -50 z "},"-":{"ha":375,"x_min":24,"x_max":351,"o":"m 24 347 l 43 439 l 336 439 l 351 424 l 335 347 l 24 347 z "},".":{"ha":333,"x_min":88,"x_max":246,"o":"m 154 -14 q 111 44 135 -14 q 88 117 88 101 q 112 169 88 133 q 160 206 136 206 q 215 154 183 206 q 246 82 246 103 q 212 24 246 61 q 154 -14 178 -14 z "},"/":{"ha":667,"x_min":-28,"x_max":694,"o":"m -28 -194 l 610 1107 l 694 1107 l 60 -194 l -28 -194 z "},":":{"ha":333,"x_min":88,"x_max":246,"o":"m 154 -14 q 111 44 135 -14 q 88 117 88 101 q 112 169 88 133 q 160 206 136 206 q 215 154 183 206 q 246 82 246 103 q 212 24 246 61 q 154 -14 178 -14 m 154 463 q 111 520 135 463 q 88 594 88 578 q 112 646 88 610 q 160 682 136 682 q 215 631 183 682 q 246 558 246 579 q 212 500 246 538 q 154 463 178 463 z "},";":{"ha":333,"x_min":88,"x_max":246,"o":"m 154 463 q 111 520 135 463 q 88 594 88 578 q 112 646 88 610 q 160 682 136 682 q 215 631 183 682 q 246 558 246 579 q 212 500 246 538 q 154 463 178 463 m 150 -17 q 150 0 150 -17 q 119 63 150 17 q 88 117 88 108 q 100 144 88 125 q 158 206 136 206 q 213 153 179 206 q 246 58 246 100 q 191 -71 246 17 q 115 -158 136 -158 q 103 -151 113 -158 q 94 -139 94 -143 q 122 -92 94 -135 q 150 -17 150 -50 z "},"<":{"ha":667,"x_min":-4,"x_max":671,"o":"m -4 343 l 15 440 l 654 725 l 671 710 l 654 625 l 121 388 l 654 150 l 671 65 l 654 50 l -4 343 z "},"=":{"ha":667,"x_min":6,"x_max":661,"o":"m 6 239 l 25 331 l 644 331 l 661 315 l 642 239 l 6 239 m 6 456 l 25 547 l 644 547 l 661 532 l 642 456 l 6 456 z "},">":{"ha":667,"x_min":-4,"x_max":671,"o":"m -4 65 l 13 150 l 546 388 l 13 625 l -4 710 l 13 725 l 671 432 l 651 335 l 13 50 l -4 65 z "},"?":{"ha":618,"x_min":78,"x_max":556,"o":"m 97 925 q 129 992 97 974 q 238 1010 161 1010 q 361 992 315 1010 q 438 951 407 975 q 492 900 468 926 q 538 833 532 854 q 556 674 556 743 q 314 400 556 400 q 199 438 253 400 q 179 272 183 294 l 133 281 l 118 569 q 268 497 203 497 q 406 544 365 497 q 447 685 447 592 q 436 802 447 729 q 398 899 425 875 q 322 924 371 924 q 241 917 272 924 q 192 904 210 911 q 164 881 175 897 q 150 856 153 865 q 144 825 147 846 q 138 796 140 804 l 103 796 q 97 925 97 907 m 144 -14 q 101 44 125 -14 q 78 117 78 101 q 102 169 78 133 q 150 206 126 206 q 205 154 174 206 q 236 82 236 103 q 202 24 236 61 q 144 -14 168 -14 z "},"@":{"ha":1278,"x_min":28,"x_max":1249,"o":"m 183 -93 q 145 -50 183 -93 q 67 102 107 -7 q 28 338 28 211 q 69 580 28 464 q 178 778 110 696 q 338 918 247 860 q 726 1033 515 1033 q 1089 910 942 1033 q 1206 751 1163 849 q 1249 540 1249 654 q 1192 295 1249 425 q 1054 74 1136 165 q 906 -17 972 -17 q 793 139 814 -17 q 659 32 733 82 q 547 -18 585 -18 q 476 9 513 -18 q 417 67 440 36 q 378 155 394 99 q 361 290 361 211 q 396 454 361 369 q 481 597 431 539 q 588 690 532 654 q 700 725 644 725 q 858 686 756 725 l 907 729 l 938 717 q 908 461 919 669 q 896 175 896 253 q 936 68 896 68 q 1013 134 968 68 q 1092 308 1058 200 q 1126 521 1126 417 q 1088 709 1126 625 q 983 844 1049 793 q 676 949 853 949 q 502 918 582 949 q 367 835 422 888 q 269 719 311 783 q 203 581 226 654 q 154 322 154 438 q 185 114 154 207 q 280 -54 217 21 q 450 -173 343 -129 q 671 -217 557 -217 q 926 -185 785 -217 l 938 -225 q 801 -262 890 -243 q 657 -282 713 -282 q 381 -231 504 -282 q 183 -93 258 -179 m 461 313 q 506 168 461 242 q 597 94 551 94 q 699 128 643 94 q 797 217 754 163 q 815 542 815 429 q 638 638 719 638 q 509 547 557 638 q 461 313 461 457 z "},"A":{"ha":1049,"x_min":0,"x_max":1049,"o":"m 0 0 l 0 50 q 68 70 46 54 q 115 131 90 86 q 186 292 140 176 l 475 1014 q 520 1026 485 1021 q 569 1032 556 1032 q 937 131 925 153 q 959 95 949 108 q 993 68 969 82 q 1049 50 1017 54 l 1049 0 l 651 0 l 651 47 q 775 108 775 57 q 746 213 775 146 l 719 274 q 690 346 703 311 l 289 346 q 233 209 264 289 q 203 115 203 129 q 328 54 203 65 l 328 0 l 0 0 m 308 406 l 672 406 l 488 863 l 308 406 z "},"B":{"ha":901,"x_min":40,"x_max":865,"o":"m 40 0 l 40 51 q 105 58 82 54 q 147 76 128 63 q 165 115 165 90 q 156 918 165 596 q 134 959 154 949 q 60 972 114 969 l 40 974 l 40 1025 q 236 1019 115 1019 q 428 1026 357 1019 q 513 1033 499 1033 l 540 1033 q 667 1015 613 1033 q 752 972 722 997 q 800 913 782 947 q 829 783 829 857 q 675 568 829 643 l 633 547 q 865 296 865 469 q 764 82 865 172 q 533 -8 663 -8 l 504 -8 q 394 -3 464 -8 l 350 0 q 195 6 275 6 q 40 0 115 6 m 301 194 q 349 97 301 117 q 553 78 396 78 q 665 136 611 78 q 718 295 718 194 q 653 451 718 396 q 472 506 588 506 q 304 497 356 506 q 301 194 301 339 m 304 564 q 449 572 394 572 q 536 569 503 572 q 644 646 611 592 q 678 760 678 700 q 657 863 678 821 q 608 925 636 906 q 524 965 551 965 q 326 949 371 965 l 310 933 q 304 564 306 738 z "},"C":{"ha":938,"x_min":58,"x_max":872,"o":"m 804 744 l 758 896 q 736 932 750 922 q 529 958 635 958 q 264 860 331 958 q 197 503 197 763 q 382 100 197 213 q 565 53 461 53 q 761 124 668 53 q 801 247 775 149 l 821 322 l 872 322 q 867 46 867 265 q 522 -24 679 -24 q 192 89 315 -24 q 58 508 58 211 q 107 794 58 681 q 226 941 136 863 q 435 1035 317 1019 q 597 1044 506 1044 q 850 1004 776 1044 l 865 989 q 853 744 865 919 l 804 744 z "},"D":{"ha":1078,"x_min":40,"x_max":1021,"o":"m 524 -8 l 233 6 q 40 0 115 6 l 40 51 q 105 58 82 54 q 147 76 128 63 q 165 115 165 90 q 156 918 165 596 q 134 959 154 949 q 60 972 114 969 l 40 974 l 40 1025 q 240 1019 115 1019 q 446 1026 364 1019 q 557 1033 528 1033 l 586 1033 q 917 922 813 1033 q 1021 568 1021 811 q 991 342 1021 443 q 913 176 961 240 q 803 69 865 113 q 553 -8 688 -8 l 524 -8 m 300 194 q 355 101 300 125 q 575 78 410 78 q 725 115 676 78 q 826 244 774 151 q 878 524 878 338 q 788 858 878 751 q 506 964 699 964 q 326 949 372 964 l 311 933 q 300 194 300 639 z "},"E":{"ha":889,"x_min":40,"x_max":831,"o":"m 40 0 l 40 51 q 105 58 82 54 q 147 76 128 63 q 165 115 165 90 q 171 538 171 293 q 165 918 171 783 q 144 959 164 949 q 71 972 124 969 l 51 974 l 51 1025 q 240 1019 126 1019 q 417 1024 354 1019 l 782 1025 l 799 1010 q 779 883 796 999 q 761 753 763 768 l 714 753 q 681 912 688 894 q 661 939 675 929 q 494 951 615 951 q 347 942 372 951 q 321 904 322 933 q 315 574 318 829 q 657 581 511 574 l 643 478 l 619 478 q 314 514 569 514 q 311 115 311 308 q 361 72 311 82 q 540 61 411 61 q 689 78 668 61 q 760 247 724 108 l 779 322 l 831 322 q 822 154 826 286 q 818 0 818 22 l 40 0 z "},"F":{"ha":783,"x_min":40,"x_max":764,"o":"m 167 218 l 169 585 q 165 918 169 776 q 144 959 164 949 q 71 972 124 969 l 50 974 l 50 1025 q 240 1019 128 1019 q 417 1024 353 1019 l 747 1025 l 764 1010 q 744 883 761 999 q 726 753 728 768 l 679 753 q 647 912 653 894 q 626 939 640 929 q 474 951 576 951 q 346 942 371 951 q 319 904 321 933 q 314 574 314 599 q 657 581 511 574 l 643 478 l 618 478 q 392 514 571 511 q 314 514 318 514 q 310 115 310 206 q 369 58 310 72 q 435 51 392 54 l 488 47 l 488 0 l 40 0 l 40 51 q 105 58 82 54 q 147 76 128 63 q 165 115 165 90 l 167 218 z "},"G":{"ha":1051,"x_min":58,"x_max":1033,"o":"m 58 519 q 107 794 58 681 q 226 941 136 863 q 435 1035 317 1019 q 592 1044 506 1044 q 778 1033 679 1044 q 906 1004 876 1021 l 922 989 q 910 744 922 919 l 861 744 q 811 904 824 872 q 703 940 783 922 q 531 958 622 958 q 265 861 332 958 q 197 503 197 764 q 594 67 197 67 q 799 126 735 67 l 799 319 q 761 363 799 351 q 685 375 726 372 l 650 378 l 649 425 q 841 419 724 419 q 1033 425 958 419 l 1033 374 l 1014 372 q 948 360 967 369 q 929 329 929 350 l 929 71 l 914 56 q 522 -24 690 -24 q 192 89 315 -24 q 58 519 58 211 z "},"H":{"ha":1179,"x_min":40,"x_max":1138,"o":"m 303 514 l 300 115 q 358 58 300 72 q 425 51 382 54 l 425 0 l 40 0 l 40 51 q 105 58 82 54 q 147 76 128 63 q 165 115 165 90 q 156 918 165 596 q 134 959 154 949 q 60 972 114 969 l 40 974 l 40 1025 l 425 1025 l 425 974 l 406 972 q 331 959 351 969 q 310 918 311 949 q 304 574 306 672 l 875 574 q 868 918 874 742 q 847 959 867 949 q 772 972 826 969 l 753 974 l 753 1025 l 1138 1025 l 1138 974 l 1118 972 q 1044 959 1064 969 q 1022 918 1024 949 q 1013 115 1013 640 q 1072 58 1013 72 q 1138 51 1094 54 l 1138 0 l 753 0 l 753 51 q 817 58 794 54 q 859 76 840 63 q 878 115 878 90 q 875 514 878 307 l 303 514 z "},"I":{"ha":465,"x_min":40,"x_max":425,"o":"m 40 0 l 40 51 q 105 58 82 54 q 147 76 128 63 q 165 115 165 90 q 156 918 165 596 q 134 959 154 949 q 60 972 114 969 l 40 974 l 40 1025 l 425 1025 l 425 974 l 406 972 q 331 959 351 969 q 310 918 311 949 q 300 115 300 640 q 358 58 300 72 q 425 51 382 54 l 425 0 l 40 0 z "},"J":{"ha":433,"x_min":0,"x_max":406,"o":"m 0 -225 l 38 -196 q 124 -72 104 -136 q 143 128 143 -8 q 135 918 143 831 q 113 960 133 950 q 40 972 93 969 l 21 974 l 21 1025 l 406 1025 l 406 974 l 385 972 q 331 967 349 969 q 290 918 290 958 q 268 11 281 78 q 89 -236 243 -146 l 28 -269 l 0 -225 z "},"K":{"ha":931,"x_min":44,"x_max":931,"o":"m 311 513 l 313 115 q 372 58 313 72 q 438 51 394 54 l 438 0 l 53 0 l 53 51 q 117 58 94 54 q 159 76 140 63 q 178 107 178 90 q 175 281 178 124 q 160 918 168 674 q 138 959 158 949 q 65 972 118 969 l 44 974 l 44 1025 l 303 1025 l 319 1010 q 311 571 311 835 q 441 665 353 572 q 597 849 529 757 q 664 951 664 940 q 648 966 664 961 q 582 974 632 971 l 582 1025 l 904 1025 l 904 974 q 827 962 846 969 q 756 908 808 954 q 550 689 703 863 l 461 586 q 844 83 722 217 l 931 50 l 931 0 q 719 -6 796 0 l 356 503 q 335 513 349 513 l 311 513 z "},"L":{"ha":775,"x_min":40,"x_max":775,"o":"m 40 0 l 40 51 q 108 58 85 54 q 165 115 165 71 q 156 918 165 606 q 134 960 154 950 q 60 972 114 969 l 40 974 l 40 1025 l 443 1025 l 443 974 l 424 972 q 364 967 385 969 q 310 918 310 957 q 300 115 300 640 q 436 61 300 61 l 465 61 q 633 78 614 61 q 704 247 668 108 l 724 322 l 775 322 q 767 154 771 286 q 763 0 763 22 l 40 0 z "},"M":{"ha":1324,"x_min":3,"x_max":1288,"o":"m 3 974 l 3 1025 l 319 1025 l 332 988 l 643 215 q 958 988 813 583 l 971 1025 l 1288 1025 l 1288 974 q 1147 949 1171 969 q 1138 929 1138 939 q 1164 161 1138 919 l 1165 122 q 1191 67 1169 79 q 1278 51 1213 56 l 1278 0 l 893 0 l 893 51 q 958 58 935 54 q 999 76 981 63 q 1018 115 1018 90 q 988 829 1014 383 q 639 0 794 406 l 585 0 l 229 835 q 208 115 208 476 q 332 54 208 65 l 332 0 l 4 0 l 4 50 q 90 87 67 57 q 119 183 114 117 q 151 847 147 611 l 153 925 q 116 960 153 951 q 3 974 79 969 z "},"N":{"ha":1079,"x_min":21,"x_max":1079,"o":"m 151 732 l 150 861 l 150 926 q 90 967 144 961 l 21 974 l 21 1025 l 283 1025 q 879 221 300 976 q 874 498 874 299 q 868 881 874 697 q 847 947 867 929 q 743 972 828 964 l 743 1025 l 1079 1025 l 1079 975 q 967 938 986 967 l 958 894 q 949 228 949 557 l 951 0 l 869 0 q 729 191 814 83 q 592 365 644 299 q 228 829 486 501 l 228 403 q 235 111 235 138 q 266 72 235 85 q 354 54 297 60 l 354 0 l 26 0 l 26 50 q 142 111 135 60 q 151 625 151 181 l 151 732 z "},"O":{"ha":1035,"x_min":58,"x_max":978,"o":"m 499 -19 q 168 123 278 -19 q 58 489 58 265 q 147 847 58 713 q 281 967 194 918 q 549 1043 417 1043 q 872 919 765 1043 q 978 555 978 796 q 879 169 978 314 q 698 26 813 72 q 499 -19 583 -19 m 200 526 q 242 281 200 386 q 301 183 261 235 q 400 102 340 132 q 563 72 460 72 q 835 488 835 72 q 761 830 835 722 q 574 954 688 938 q 499 957 561 957 q 281 856 361 957 q 200 526 200 754 z "},"P":{"ha":885,"x_min":40,"x_max":836,"o":"m 313 469 l 310 115 q 360 67 310 78 q 463 51 401 56 l 515 47 l 515 0 l 40 0 l 40 51 q 104 58 82 54 q 146 76 126 63 q 165 115 165 90 q 169 517 169 257 q 165 918 169 776 q 144 959 164 949 q 69 972 124 969 l 50 974 l 50 1025 q 248 1019 128 1019 q 438 1026 368 1019 q 522 1033 508 1033 l 550 1033 q 691 1009 632 1033 q 781 942 750 985 q 836 751 836 863 q 781 597 836 676 q 461 447 672 447 q 313 469 363 447 m 314 558 q 474 517 361 517 q 572 533 531 517 q 634 569 614 549 q 665 622 654 590 q 681 717 681 668 q 678 789 681 765 q 667 847 676 813 q 574 953 650 917 q 533 965 546 965 q 336 949 385 965 l 321 933 q 314 558 317 821 z "},"Q":{"ha":1035,"x_min":58,"x_max":978,"o":"m 499 -19 q 168 123 278 -19 q 58 489 58 265 q 147 847 58 713 q 281 967 194 918 q 549 1043 417 1043 q 872 919 765 1043 q 978 572 978 796 q 910 222 978 349 q 710 32 843 94 q 908 -158 838 -108 q 846 -265 868 -211 l 826 -271 l 610 -3 q 499 -19 550 -19 m 200 526 q 242 281 200 386 q 301 183 261 235 q 400 102 340 132 q 563 72 460 72 q 835 488 835 72 q 761 830 835 722 q 574 954 688 938 q 499 957 561 957 q 281 856 361 957 q 200 526 200 754 z "},"R":{"ha":929,"x_min":44,"x_max":929,"o":"m 44 0 l 44 51 q 109 58 86 54 q 151 76 132 63 q 169 115 169 90 q 160 918 169 596 q 138 959 158 949 q 64 972 118 969 l 44 974 l 44 1025 q 237 1019 122 1019 q 428 1026 351 1019 q 517 1033 506 1033 l 544 1033 q 706 965 638 1033 q 775 797 775 897 q 736 643 775 696 q 606 531 697 590 q 853 83 751 244 l 929 50 l 929 0 q 728 -6 804 0 l 485 496 l 446 496 q 308 514 361 496 q 304 115 304 221 q 364 58 304 72 q 429 51 386 54 l 429 0 l 44 0 m 310 589 q 456 565 349 565 q 563 601 521 565 q 617 678 604 636 q 631 767 631 721 q 619 850 631 813 q 590 908 607 888 q 553 944 572 929 q 499 968 521 968 q 329 950 371 968 l 315 935 q 310 589 313 874 z "},"S":{"ha":721,"x_min":79,"x_max":679,"o":"m 572 733 l 526 885 q 504 921 515 913 q 373 957 464 957 q 236 925 282 957 q 190 811 190 893 q 264 675 190 722 q 301 651 279 664 l 513 542 q 679 283 679 456 q 661 167 679 210 q 589 61 643 124 q 351 -21 514 -21 q 81 42 222 -21 q 90 322 90 175 l 142 322 l 161 247 q 191 151 181 172 q 228 108 201 129 q 383 78 299 78 q 508 110 468 78 q 549 229 549 143 q 421 417 549 349 l 308 472 q 201 531 226 515 q 160 563 176 546 l 149 575 q 79 747 79 650 q 110 901 79 843 q 235 1010 142 958 q 409 1046 301 1046 q 617 993 517 1046 l 633 978 q 621 733 633 908 l 572 733 z "},"T":{"ha":844,"x_min":0,"x_max":844,"o":"m 0 1010 l 15 1025 l 829 1025 l 844 1010 q 838 736 838 892 l 789 736 q 742 889 753 867 q 729 919 736 906 q 704 932 719 929 q 583 946 632 946 q 500 939 535 946 q 489 115 489 676 q 515 76 489 90 q 567 57 540 61 q 639 49 593 53 l 639 0 l 194 0 l 194 49 q 331 83 306 58 q 343 115 343 96 q 347 620 347 385 q 344 939 347 856 q 261 946 310 946 q 140 932 213 946 q 115 919 125 929 q 103 889 108 906 q 56 736 92 867 l 7 736 q 0 1010 7 892 z "},"U":{"ha":1051,"x_min":47,"x_max":1058,"o":"m 858 494 l 856 910 q 731 971 856 960 l 731 1025 l 1058 1025 l 1058 975 q 947 914 951 963 l 946 889 q 938 615 943 850 q 932 310 932 381 q 907 175 932 240 q 844 73 882 110 q 746 15 806 36 q 631 -13 686 -7 q 498 -19 575 -19 q 357 6 421 -19 q 258 66 293 31 q 200 147 224 101 q 164 297 164 222 q 158 917 161 888 q 133 958 154 946 q 47 974 113 969 l 47 1025 l 431 1025 l 431 974 q 364 967 386 971 q 306 910 306 954 l 307 542 l 307 431 q 308 298 308 354 q 322 208 308 242 q 367 141 336 175 q 460 85 399 107 q 596 64 521 64 q 717 80 671 64 q 791 124 763 96 q 833 208 819 153 q 858 494 858 303 z "},"V":{"ha":1042,"x_min":0,"x_max":1042,"o":"m 0 974 l 0 1025 l 383 1025 l 383 974 q 281 925 281 965 l 281 919 q 393 570 281 896 q 543 168 506 244 q 721 603 613 324 q 829 910 829 882 q 808 951 829 939 q 714 971 786 964 l 714 1025 l 1042 1025 l 1042 975 q 960 938 986 969 q 883 786 935 907 l 557 0 l 468 0 l 108 886 q 69 951 90 931 q 0 974 47 971 z "},"W":{"ha":1389,"x_min":0,"x_max":1389,"o":"m 0 974 l 0 1025 l 361 1025 l 361 974 q 266 959 289 968 q 243 923 243 950 q 319 594 243 896 q 419 232 396 292 q 548 617 460 333 q 636 926 636 900 q 613 960 636 951 q 531 974 589 969 l 531 1025 l 915 1025 l 915 974 q 821 928 821 968 q 853 786 821 917 q 1014 232 954 382 q 1140 649 1074 411 q 1207 915 1207 888 q 1181 953 1207 942 q 1092 971 1156 965 l 1092 1025 l 1389 1025 l 1389 975 q 1339 959 1356 972 q 1311 917 1322 946 q 1036 0 1046 47 l 933 0 q 822 389 910 114 q 688 790 733 664 q 549 380 651 694 q 436 0 447 65 l 328 0 q 99 828 321 57 l 81 886 q 54 950 71 929 q 0 974 38 971 z "},"X":{"ha":897,"x_min":0,"x_max":897,"o":"m 0 0 l 0 50 q 92 107 36 54 q 393 503 149 160 l 108 932 q 24 974 82 969 l 24 1025 l 408 1025 l 408 974 q 334 962 354 969 q 314 938 314 954 q 490 617 314 904 q 630 819 571 726 q 689 931 689 911 q 670 958 689 950 q 583 971 651 965 l 583 1025 l 894 1025 l 894 975 q 763 875 835 968 l 526 557 l 710 253 q 821 83 794 111 q 897 51 847 54 l 897 0 l 540 0 l 540 51 q 644 92 644 60 q 629 128 644 100 l 429 443 q 272 222 347 333 q 197 96 197 111 q 311 54 197 67 l 311 0 l 0 0 z "},"Y":{"ha":901,"x_min":0,"x_max":901,"o":"m 0 974 l 0 1025 l 383 1025 l 383 974 q 292 958 315 968 q 268 928 268 949 q 478 567 268 896 q 710 935 710 899 q 688 960 710 954 q 613 971 667 967 l 613 1025 l 901 1025 l 901 975 q 825 940 847 968 l 514 510 q 510 262 510 418 q 517 93 510 106 q 656 49 536 57 l 656 0 l 225 0 l 225 49 q 296 57 269 53 q 347 76 322 61 q 371 115 371 90 l 365 497 q 89 908 333 554 q 0 974 50 969 z "},"Z":{"ha":918,"x_min":29,"x_max":868,"o":"m 29 15 l 649 947 q 530 954 579 954 q 258 949 481 954 q 220 925 238 947 q 197 886 203 903 q 150 733 186 864 l 103 733 q 97 1010 97 817 l 114 1025 l 851 1025 l 868 1010 q 235 83 286 189 q 393 69 315 69 q 710 88 690 69 q 781 247 747 118 l 794 299 l 850 299 q 839 0 839 132 l 46 0 l 29 15 z "},"[":{"ha":410,"x_min":139,"x_max":410,"o":"m 249 -281 l 154 -283 l 139 -268 l 139 1092 l 154 1107 q 253 1104 165 1104 q 410 1107 340 1104 l 410 1061 q 272 1029 288 1058 q 264 979 265 1015 l 264 -157 q 272 -207 265 -193 q 410 -237 286 -235 l 410 -285 q 249 -281 306 -281 z "},"\\":{"ha":667,"x_min":-28,"x_max":694,"o":"m -28 1107 l 57 1107 l 694 -194 l 607 -194 l -28 1107 z "},"]":{"ha":410,"x_min":0,"x_max":271,"o":"m 256 -283 l 161 -281 q 0 -285 104 -281 l 0 -237 q 138 -207 124 -235 q 146 -157 144 -193 l 146 979 q 138 1029 144 1015 q 0 1061 122 1058 l 0 1107 q 157 1104 69 1104 q 256 1107 244 1104 l 271 1092 l 271 -268 l 256 -283 z "},"^":{"ha":667,"x_min":-4,"x_max":671,"o":"m -4 379 l 281 1019 l 378 1038 l 671 379 l 656 363 l 571 379 l 333 913 l 96 379 l 11 363 l -4 379 z "},"_":{"ha":694,"x_min":0,"x_max":694,"o":"m 0 -60 l 694 -58 l 694 -136 l 0 -136 l 0 -60 z "},"`":{"ha":694,"x_min":200,"x_max":494,"o":"m 200 993 q 226 1037 201 1018 q 281 1056 251 1056 q 494 806 413 890 l 469 776 q 200 993 349 857 z "},"a":{"ha":664,"x_min":56,"x_max":633,"o":"m 576 544 l 571 178 q 602 94 571 143 q 633 37 633 44 q 621 25 633 29 q 512 -7 524 -7 q 488 13 500 -7 q 467 63 476 33 q 456 93 457 92 q 404 58 435 79 q 362 30 374 38 q 328 11 350 22 q 290 -4 307 0 q 185 -14 251 -14 q 88 39 119 -14 q 56 154 56 92 q 65 254 56 217 q 97 317 75 292 q 142 358 119 342 q 205 387 164 375 q 276 405 246 399 q 360 422 306 411 q 447 439 414 432 l 449 522 q 403 614 449 586 q 292 642 357 642 q 203 609 228 642 q 149 469 178 576 l 92 475 q 133 644 92 596 q 242 717 183 703 q 360 731 300 731 q 464 717 421 731 q 528 685 507 703 q 562 638 550 668 q 575 590 574 608 q 576 544 576 572 m 181 182 q 274 79 181 79 q 439 149 356 79 q 449 250 449 157 q 447 385 449 343 q 384 364 422 376 q 330 346 346 351 q 288 331 314 340 q 252 317 261 322 q 227 303 243 311 q 207 287 211 294 q 194 269 203 279 q 185 244 186 258 q 181 182 181 206 z "},"b":{"ha":743,"x_min":14,"x_max":707,"o":"m 14 1074 q 167 1095 117 1083 q 222 1107 218 1107 q 246 1086 246 1107 l 246 1026 l 240 642 q 454 732 406 732 q 661 639 610 732 q 707 389 707 557 q 647 131 707 221 q 583 65 632 110 q 486 0 533 21 q 367 -21 439 -21 q 221 3 296 -21 q 119 65 146 28 q 118 444 118 236 q 103 1007 118 976 q 47 1028 94 1026 l 17 1028 l 14 1074 m 239 490 q 238 278 238 407 q 251 136 238 150 q 322 95 268 115 q 429 75 376 75 q 512 92 482 75 q 556 158 542 110 q 577 288 571 207 q 583 418 583 368 q 565 519 583 468 q 515 593 546 569 q 401 636 460 636 q 239 582 342 636 l 239 490 z "},"c":{"ha":613,"x_min":42,"x_max":574,"o":"m 61 167 q 42 347 42 250 q 60 532 42 443 q 108 606 69 574 q 222 692 171 664 q 297 725 272 721 q 368 729 321 729 q 474 718 415 729 q 550 700 532 707 q 546 492 546 658 l 504 492 q 483 579 490 553 q 422 619 475 606 q 296 633 369 633 q 194 581 222 633 q 165 378 165 528 q 199 172 165 243 q 354 88 238 88 q 443 112 396 88 q 517 161 490 136 l 544 186 l 574 158 q 478 56 519 92 q 417 8 438 19 q 158 22 299 -53 q 61 167 101 74 z "},"d":{"ha":732,"x_min":42,"x_max":688,"o":"m 496 714 l 493 922 q 492 984 493 967 q 478 1014 492 1001 q 452 1027 465 1026 q 396 1029 439 1028 l 393 1075 q 549 1097 499 1085 q 603 1108 599 1108 q 626 1086 626 1108 q 622 513 626 788 q 617 191 617 239 q 652 90 617 143 q 688 35 688 38 q 676 27 688 32 q 646 17 664 22 q 599 -1 628 11 q 560 -14 571 -14 q 538 9 549 -14 q 516 60 526 32 q 499 94 506 88 q 314 -21 394 -21 q 153 56 244 -21 q 74 167 106 93 q 42 326 42 240 q 50 469 42 413 q 68 558 58 526 q 98 614 78 589 q 128 647 118 639 q 163 669 139 656 l 210 697 q 341 733 269 733 q 496 714 413 733 m 164 404 q 164 324 164 404 q 219 172 164 244 q 353 99 274 99 q 497 161 432 99 q 495 506 497 404 q 493 614 493 608 q 329 653 428 653 q 262 645 288 653 q 211 611 236 638 q 164 404 164 564 z "},"e":{"ha":649,"x_min":42,"x_max":607,"o":"m 72 554 q 179 666 94 606 q 333 726 264 726 q 450 711 401 726 q 526 666 499 696 q 572 608 554 636 q 594 536 589 579 q 606 431 606 467 l 606 390 q 460 363 561 363 l 175 363 q 197 172 175 214 q 281 96 231 111 q 356 86 313 86 q 576 185 476 86 l 607 153 q 581 126 601 147 q 553 97 560 104 q 526 72 546 90 q 497 46 507 53 q 467 25 486 39 q 435 6 449 11 q 403 -8 422 0 q 328 -21 371 -21 q 185 12 244 -21 q 97 100 126 44 q 42 342 42 201 q 72 554 42 482 m 178 425 l 257 425 q 476 450 442 425 q 457 553 476 510 q 329 636 421 636 q 208 590 238 636 q 178 425 178 543 z "},"f":{"ha":507,"x_min":42,"x_max":590,"o":"m 590 951 l 589 900 l 529 899 q 442 1057 500 1057 q 348 950 392 1057 q 304 721 304 843 l 304 700 l 490 700 l 486 622 l 304 622 q 299 225 299 331 q 300 109 299 119 q 303 90 301 99 q 311 77 304 82 q 323 69 318 72 q 343 63 328 65 q 369 57 358 60 q 406 51 381 54 q 453 43 432 47 l 453 0 l 64 0 l 64 47 q 126 56 114 54 q 156 69 139 58 q 174 94 172 81 q 175 174 175 108 q 167 622 175 239 l 42 622 l 42 669 l 165 690 q 246 983 165 858 q 478 1108 326 1108 q 568 1072 546 1108 q 590 951 590 1035 z "},"g":{"ha":660,"x_min":14,"x_max":660,"o":"m 14 -115 q 94 19 14 -35 q 192 71 133 46 q 82 146 82 86 q 206 246 82 208 q 104 313 135 278 q 61 415 74 349 q 60 442 60 421 q 82 565 60 517 q 188 670 104 613 q 360 728 271 728 q 517 672 450 728 q 651 690 585 675 l 660 682 l 660 624 l 550 624 q 569 563 561 608 q 578 469 578 517 q 497 300 578 374 q 322 236 425 258 q 208 157 208 207 q 225 124 208 138 q 268 110 242 110 l 433 110 q 560 96 525 110 q 627 40 594 82 q 660 -45 660 -1 q 640 -127 660 -89 q 581 -201 621 -165 q 468 -260 542 -237 q 324 -283 394 -283 q 208 -276 253 -283 q 117 -251 163 -268 q 42 -198 71 -233 q 14 -115 14 -162 m 133 -75 q 194 -184 133 -139 q 322 -229 256 -229 q 476 -183 425 -229 q 526 -64 526 -137 q 364 42 526 42 q 133 -75 133 42 m 188 450 q 224 346 188 386 q 328 306 260 306 q 421 342 396 306 q 446 473 446 378 q 418 600 446 568 q 310 642 390 632 q 290 643 303 643 q 213 601 239 643 q 188 450 188 558 z "},"h":{"ha":785,"x_min":31,"x_max":750,"o":"m 133 106 l 135 756 q 121 992 135 957 q 33 1028 107 1028 l 31 1074 q 184 1095 133 1083 q 239 1107 235 1107 q 263 1086 263 1107 l 261 996 l 260 638 q 522 728 421 728 q 653 662 622 728 q 683 446 683 596 l 679 151 q 690 69 679 85 q 750 47 700 53 l 750 0 l 486 0 l 486 47 q 546 78 536 58 q 556 182 556 97 l 556 431 q 537 591 556 556 q 449 626 518 626 q 348 608 407 626 q 260 571 289 590 q 256 168 256 410 q 267 70 256 90 q 335 47 279 50 l 335 0 l 51 0 l 51 47 q 115 64 97 50 q 133 106 133 78 z "},"i":{"ha":392,"x_min":42,"x_max":364,"o":"m 201 840 q 190 840 201 840 q 151 874 179 840 q 124 924 124 908 q 147 982 124 940 q 194 1024 169 1024 q 250 998 219 1024 q 281 939 281 972 q 252 873 281 906 q 201 840 224 840 m 42 0 l 42 47 q 131 66 113 53 q 149 121 149 79 l 149 410 q 142 578 149 531 q 122 638 136 625 q 69 651 108 651 l 49 651 l 46 697 q 199 719 149 707 q 254 731 250 731 q 278 708 278 731 q 276 617 278 692 q 271 104 271 319 q 293 63 271 76 q 364 47 315 50 l 364 0 l 42 0 z "},"j":{"ha":350,"x_min":-7,"x_max":256,"o":"m 176 840 q 165 840 176 840 q 126 874 154 840 q 97 924 97 908 q 121 982 97 940 q 169 1024 144 1024 q 225 998 194 1024 q 256 939 256 972 q 226 873 256 906 q 176 840 197 840 m -7 -257 q 28 -214 1 -246 q 69 -156 54 -182 q 99 -92 83 -131 q 117 31 114 -53 q 125 511 125 211 q 110 628 125 603 q 46 653 96 653 l 25 653 l 22 699 q 178 720 131 708 q 231 732 226 732 q 254 710 254 732 l 254 496 q 241 108 254 200 q 222 -9 228 15 q 200 -75 217 -33 q 171 -132 183 -117 q 130 -179 158 -147 q 80 -229 101 -211 q 17 -281 58 -247 l -7 -257 z "},"k":{"ha":799,"x_min":32,"x_max":799,"o":"m 140 201 l 143 739 q 135 940 143 901 q 124 992 128 978 q 103 1016 121 1007 q 76 1026 85 1025 q 35 1028 67 1026 l 32 1074 q 186 1095 138 1083 q 239 1107 235 1107 q 264 1086 264 1107 l 264 1026 l 263 410 q 396 500 310 410 q 482 638 482 590 q 453 661 482 661 q 433 669 440 661 q 426 686 426 676 q 453 708 426 707 q 586 704 500 704 q 719 708 672 704 q 744 686 744 708 q 729 664 744 669 q 708 657 713 657 q 576 576 653 635 q 451 468 500 517 l 403 419 l 782 42 q 799 15 799 25 q 786 0 799 4 l 782 0 q 611 -6 676 0 q 360 287 401 243 q 285 342 319 331 q 260 351 269 347 q 261 301 261 332 l 258 135 l 258 111 q 260 94 258 103 q 263 81 263 86 q 269 72 264 76 q 277 65 275 67 q 289 60 279 63 q 303 56 299 57 q 322 52 307 56 q 344 47 336 49 l 344 0 l 44 0 l 44 47 q 88 57 83 56 q 103 61 92 58 q 116 67 114 64 q 125 76 118 71 q 132 89 132 82 l 139 131 l 140 201 z "},"l":{"ha":394,"x_min":36,"x_max":364,"o":"m 36 0 l 36 47 q 65 52 47 49 q 89 56 83 56 q 106 61 94 57 q 121 68 118 65 q 131 79 124 71 q 138 96 138 88 q 142 119 139 104 q 144 150 144 133 l 144 449 q 140 906 144 592 l 139 972 q 122 1017 138 1007 q 61 1026 107 1026 l 43 1026 l 40 1072 q 193 1097 143 1085 q 249 1108 243 1108 q 272 1088 272 1108 q 275 803 275 974 q 268 438 275 632 q 261 132 261 244 q 277 67 261 79 q 364 47 293 56 l 364 0 l 36 0 z "},"m":{"ha":1158,"x_min":44,"x_max":1126,"o":"m 526 149 l 528 540 q 502 606 528 585 q 404 628 476 628 q 335 610 376 628 q 267 576 293 593 q 257 214 257 261 l 257 144 q 260 106 257 122 q 265 81 264 89 q 276 67 267 74 q 289 58 285 60 q 335 47 310 56 l 335 0 l 51 0 l 51 47 q 115 64 97 50 q 132 106 132 78 q 122 601 132 572 q 110 617 119 608 q 47 632 100 626 l 44 685 q 158 711 100 690 q 233 732 217 732 q 257 717 250 732 q 264 658 264 701 l 264 639 q 297 657 272 643 q 331 676 321 671 q 362 693 342 682 q 394 709 382 704 q 425 719 407 714 q 485 731 453 731 q 658 632 565 731 q 890 731 793 731 q 986 697 947 731 q 1047 567 1047 643 l 1044 204 q 1056 72 1044 94 q 1117 47 1068 50 l 1126 47 l 1126 0 l 843 0 l 843 47 q 909 69 896 50 q 922 154 922 88 l 921 494 q 918 554 921 535 q 904 594 915 574 q 867 621 893 614 q 799 628 840 628 q 657 575 757 628 q 656 204 656 394 l 658 115 q 664 88 658 99 q 670 72 669 78 q 681 61 671 65 q 694 56 692 57 q 713 51 696 54 q 735 47 729 49 l 735 0 l 451 0 l 451 47 q 515 69 503 50 q 526 149 526 88 z "},"n":{"ha":782,"x_min":44,"x_max":750,"o":"m 44 685 q 159 711 101 690 q 234 732 217 732 q 258 716 251 732 q 265 658 265 700 l 265 639 q 516 729 425 729 q 642 680 607 729 q 676 567 676 631 l 676 103 q 690 61 676 72 q 750 47 703 50 l 750 0 l 467 0 l 467 47 q 533 64 519 51 q 546 108 546 76 l 546 549 q 524 602 546 583 q 480 624 503 621 q 427 628 457 628 q 347 612 397 628 q 269 576 297 596 q 265 406 268 494 q 260 156 260 225 q 274 69 260 88 q 342 47 288 50 l 342 0 l 50 0 l 50 47 q 109 63 92 53 q 131 94 126 74 q 136 178 136 131 q 132 403 136 226 q 126 587 128 581 q 123 599 125 593 q 117 610 121 606 q 112 617 114 614 q 104 622 110 619 q 96 626 99 625 q 85 628 93 626 q 75 631 78 629 q 49 632 67 632 l 44 685 z "},"o":{"ha":718,"x_min":42,"x_max":682,"o":"m 110 82 q 95 102 110 82 q 61 194 81 122 q 42 374 42 265 q 99 576 42 483 q 229 683 136 635 q 383 731 322 731 q 594 651 507 731 q 682 405 682 572 q 621 144 682 238 q 461 0 539 35 q 351 -24 408 -24 q 258 -16 294 -24 q 181 17 222 -8 q 110 82 140 42 m 174 356 q 174 281 174 356 q 231 140 174 206 q 399 75 289 75 q 460 82 440 75 q 556 371 556 119 q 524 544 556 489 q 417 622 493 599 q 346 632 378 632 q 299 631 314 632 q 261 622 285 629 q 225 599 238 615 q 199 556 213 583 q 174 356 174 506 z "},"p":{"ha":769,"x_min":42,"x_max":733,"o":"m 263 79 q 258 -143 257 -93 q 272 -209 258 -193 q 340 -235 286 -225 l 340 -282 l 57 -282 l 57 -237 q 119 -218 101 -232 q 138 -178 138 -204 q 136 576 136 -47 q 122 639 136 626 q 44 651 107 651 l 42 697 q 198 719 150 707 q 250 731 246 731 q 275 708 275 731 q 273 673 275 707 q 271 631 271 639 q 325 665 282 636 q 500 731 424 731 q 585 708 540 731 q 658 656 629 686 q 710 564 688 626 q 733 419 733 501 q 651 106 733 219 q 439 -8 568 -8 q 349 2 375 -8 q 310 19 322 13 q 289 37 297 26 q 276 53 281 47 q 268 69 272 60 q 263 79 264 78 m 269 572 l 263 314 q 292 113 263 168 q 406 58 322 58 q 544 137 489 58 q 600 378 600 215 q 440 624 600 624 q 269 572 369 624 z "},"q":{"ha":749,"x_min":42,"x_max":701,"o":"m 692 -232 l 701 -235 l 701 -282 l 418 -282 l 418 -237 q 487 -202 471 -228 q 503 -97 503 -176 q 499 82 503 -18 q 274 -17 365 -17 q 101 82 160 -17 q 42 319 42 181 q 169 636 42 550 q 294 710 250 690 q 367 729 338 729 q 490 714 397 729 q 701 697 583 699 l 701 650 q 649 617 661 633 q 632 553 636 601 q 619 157 619 408 q 622 -125 619 -94 q 625 -176 624 -156 q 639 -207 626 -197 q 673 -226 656 -221 q 692 -232 690 -232 m 175 328 q 222 142 175 200 q 339 83 269 83 q 468 126 408 83 q 499 211 499 149 l 499 581 q 436 625 496 615 q 353 635 388 635 q 175 328 175 635 z "},"r":{"ha":553,"x_min":35,"x_max":553,"o":"m 269 503 l 268 126 q 293 70 268 83 q 369 50 318 57 q 424 43 419 43 l 424 0 l 35 0 l 35 47 q 79 52 68 51 q 108 60 90 53 q 128 74 125 68 q 136 101 131 81 q 142 143 142 122 l 142 253 q 132 581 142 532 q 51 635 121 635 l 49 688 q 163 714 104 693 q 238 735 221 735 q 261 719 254 735 q 268 661 268 703 l 269 608 q 463 726 392 726 q 533 714 514 726 q 553 668 553 701 q 531 518 553 657 l 481 518 q 410 622 474 622 q 322 590 374 622 q 269 503 269 557 z "},"s":{"ha":538,"x_min":63,"x_max":496,"o":"m 183 323 q 158 332 183 323 q 98 385 133 342 q 63 496 63 428 q 86 600 63 564 q 181 705 136 681 q 294 729 225 729 q 419 706 364 729 q 442 694 435 700 q 467 638 467 679 q 465 617 467 633 q 463 501 463 581 l 411 501 q 399 554 410 519 q 376 607 389 589 q 272 647 349 647 q 175 611 199 647 q 156 547 156 582 q 190 484 156 511 q 275 440 225 457 q 376 403 325 424 q 461 337 426 383 q 496 218 496 290 q 475 111 496 146 q 386 11 438 51 q 321 -14 365 -4 q 254 -24 276 -24 q 76 26 106 -24 q 65 74 65 44 q 72 212 65 186 q 101 238 78 238 q 129 218 124 238 q 139 164 135 199 q 275 65 154 65 q 371 93 336 65 q 406 169 406 121 q 370 244 406 217 q 284 288 335 272 q 183 323 233 304 z "},"t":{"ha":465,"x_min":14,"x_max":451,"o":"m 131 261 l 135 622 l 14 622 l 14 664 l 135 688 l 135 815 l 242 849 q 263 828 263 849 l 260 743 l 260 700 l 436 700 l 432 622 l 260 622 l 256 279 q 269 125 256 172 q 318 78 282 78 q 422 118 354 78 l 451 90 q 276 -21 344 -21 q 158 40 186 -21 q 131 261 131 101 z "},"u":{"ha":772,"x_min":31,"x_max":731,"o":"m 543 206 l 546 535 q 528 644 546 635 q 493 650 518 650 l 449 650 l 446 696 q 602 717 554 706 q 654 729 650 729 q 679 708 679 729 q 674 368 679 533 q 668 172 668 203 q 699 92 668 142 q 731 35 731 43 q 718 24 731 28 q 609 -8 621 -8 q 585 12 597 -8 q 564 61 574 32 q 553 92 554 90 q 400 10 469 33 q 288 -12 331 -12 q 199 28 246 -12 q 138 128 153 68 q 124 300 124 172 l 124 524 q 111 619 124 558 q 93 636 108 629 q 69 644 78 643 q 33 644 61 644 l 31 692 q 171 715 119 701 q 228 729 222 729 q 253 708 253 729 l 247 303 q 259 167 247 200 q 297 115 271 133 q 348 97 322 97 q 420 107 374 97 q 497 133 467 117 q 535 160 526 149 q 543 206 543 172 z "},"v":{"ha":683,"x_min":0,"x_max":683,"o":"m 572 707 l 664 713 q 683 692 683 713 q 681 684 683 688 q 674 672 679 681 q 662 652 669 664 q 641 615 654 640 q 611 556 628 589 q 447 157 536 403 q 388 7 399 22 q 369 -14 378 -8 q 330 -21 357 -21 q 290 3 303 -21 q 252 110 276 28 q 216 231 228 193 q 183 347 204 269 q 147 469 161 424 q 69 636 106 613 q 32 647 56 646 q 3 650 8 649 l 0 696 q 144 722 96 708 q 199 735 193 735 q 222 714 222 735 q 331 278 222 674 l 368 146 q 515 619 515 535 q 490 657 515 657 q 465 685 465 657 q 513 710 465 710 l 572 707 z "},"w":{"ha":1126,"x_min":0,"x_max":1126,"o":"m 1001 707 l 1107 713 q 1126 692 1126 713 q 1122 681 1126 686 q 1103 656 1117 675 q 1069 606 1089 638 q 876 157 990 468 q 817 7 828 22 q 799 -14 807 -8 q 759 -21 786 -21 q 719 3 732 -21 q 681 110 706 28 q 644 233 657 193 q 608 360 632 274 q 575 476 583 447 l 515 335 q 434 123 447 161 q 414 67 421 85 q 400 34 407 50 q 388 10 393 18 q 377 -6 382 1 q 365 -15 372 -12 q 326 -21 351 -21 q 289 2 301 -21 q 252 107 276 25 q 217 226 228 189 q 189 323 206 264 q 160 422 172 382 q 135 507 149 463 q 56 643 96 631 q 25 648 42 647 q 3 650 8 649 l 0 696 q 143 722 94 708 q 197 735 192 735 q 222 714 222 735 q 331 278 222 674 l 368 146 q 514 617 514 533 q 503 657 514 633 q 492 688 492 681 q 594 713 492 713 q 625 710 617 713 q 638 708 633 708 q 646 704 643 707 q 650 700 649 701 q 656 692 656 699 q 768 253 663 633 l 797 146 q 944 619 944 535 q 937 652 944 643 q 919 661 929 661 q 894 684 894 658 q 942 710 894 710 l 1001 707 z "},"x":{"ha":629,"x_min":-7,"x_max":629,"o":"m 517 711 l 597 714 q 625 685 625 714 q 601 664 625 668 q 544 619 571 657 q 394 410 486 549 q 612 58 594 96 q 629 3 629 19 q 606 -25 629 -25 q 493 56 563 -25 q 310 311 424 136 q 272 253 293 285 q 240 205 251 222 q 215 167 229 188 q 194 133 201 146 q 181 108 188 121 q 169 75 169 86 q 221 47 169 56 l 221 0 l -7 0 l -7 47 q 33 56 24 50 q 101 128 58 69 q 264 369 144 188 q 199 476 232 421 q 151 553 165 531 q 121 599 138 575 q 92 631 104 624 q 26 651 64 647 l 24 697 q 119 717 72 703 q 176 731 167 731 q 191 729 185 731 q 203 722 197 728 q 215 710 210 717 q 229 692 221 704 q 244 667 238 679 q 263 633 251 654 q 286 590 275 611 q 315 537 297 569 q 350 474 333 504 q 457 638 457 624 q 449 660 457 653 q 431 668 440 668 q 406 690 406 668 q 415 707 406 700 q 438 714 425 714 l 517 711 z "},"y":{"ha":683,"x_min":0,"x_max":683,"o":"m 572 707 l 664 713 q 683 692 683 713 q 681 684 683 688 q 674 672 679 681 q 662 652 669 664 q 641 615 654 640 q 611 556 628 589 q 515 335 579 489 q 315 -214 389 18 q 291 -279 297 -269 q 268 -289 285 -289 q 176 -249 176 -289 q 226 -148 176 -226 q 275 -22 275 -69 q 195 306 275 25 q 82 625 115 586 q 52 645 68 643 q 22 648 36 647 q 3 650 8 649 l 0 696 q 142 722 92 708 q 199 735 193 735 q 222 714 222 735 q 331 278 222 674 l 368 146 q 515 619 515 539 q 490 657 515 657 q 465 685 465 657 q 513 710 465 710 l 572 707 z "},"z":{"ha":717,"x_min":46,"x_max":682,"o":"m 665 -19 l 667 -42 l 606 -37 q 584 -1 606 -7 q 474 6 563 6 q 61 0 386 6 l 46 36 l 472 635 q 331 640 472 640 q 267 640 294 640 q 216 632 240 640 q 184 616 192 624 q 164 581 176 608 q 146 528 151 553 q 128 446 140 503 l 75 446 q 80 597 78 513 q 86 694 82 681 q 110 707 90 707 l 325 703 l 621 708 q 661 681 661 708 q 574 547 661 653 l 538 503 q 369 275 439 379 q 256 78 256 108 q 274 71 256 71 q 517 83 404 71 q 566 102 547 88 q 585 119 585 117 q 591 133 586 121 q 624 253 596 146 l 682 249 q 665 -19 665 96 z "},"{":{"ha":539,"x_min":69,"x_max":539,"o":"m 69 392 l 78 436 q 222 476 167 458 q 240 631 238 499 q 251 899 242 764 q 294 1067 261 1033 q 526 1113 392 1090 l 539 1067 q 394 1028 463 1050 q 378 922 382 1008 q 371 717 374 835 q 357 533 368 599 q 298 453 350 489 q 214 413 246 417 q 297 374 244 410 q 357 293 350 338 q 371 110 368 228 q 378 -95 374 -8 q 394 -201 382 -182 q 539 -243 450 -221 l 526 -289 q 294 -243 353 -257 q 251 -74 261 -211 q 238 198 240 64 q 222 351 236 332 q 69 392 158 372 z "},"|":{"ha":333,"x_min":113,"x_max":221,"o":"m 113 -282 l 113 1107 l 221 1107 l 221 -282 l 113 -282 z "},"}":{"ha":539,"x_min":0,"x_max":469,"o":"m 0 -243 q 144 -201 89 -221 q 161 -95 157 -182 q 168 110 165 -8 q 182 293 171 228 q 242 374 189 338 q 325 413 294 410 q 241 453 293 417 q 182 533 189 489 q 168 717 171 599 q 161 922 165 835 q 144 1028 157 1008 q 0 1067 76 1050 l 13 1113 q 244 1067 147 1090 q 288 899 278 1033 q 299 631 297 764 q 317 476 301 499 q 469 435 394 451 l 461 390 q 317 351 385 374 q 301 198 303 332 q 288 -74 299 64 q 244 -243 278 -211 q 13 -289 186 -257 l 0 -243 z "},"~":{"ha":667,"x_min":3,"x_max":663,"o":"m 3 397 q 90 490 46 456 q 194 524 135 524 q 349 480 253 524 q 478 436 444 436 q 589 518 529 436 l 663 472 q 471 344 581 344 q 321 388 417 344 q 181 432 225 432 q 76 350 138 432 l 3 397 z "},"¡":{"ha":333,"x_min":78,"x_max":254,"o":"m 78 1 q 153 768 129 643 l 199 760 l 206 643 q 236 10 236 100 q 94 -14 138 -4 l 78 1 m 182 835 q 170 835 182 835 q 127 886 158 835 q 96 958 96 938 q 130 1017 96 979 q 188 1054 164 1054 q 231 997 207 1054 q 254 923 254 939 q 230 871 254 907 q 182 835 206 835 z "},"¢":{"ha":667,"x_min":68,"x_max":600,"o":"m 88 167 q 68 347 68 250 q 86 532 68 443 q 135 606 96 574 q 331 726 251 713 l 331 851 l 388 851 l 388 729 q 500 718 442 729 q 576 700 558 707 q 572 492 572 658 l 531 492 q 508 581 517 553 q 388 631 499 618 l 388 88 q 474 114 428 89 q 544 163 519 139 l 571 186 l 600 158 q 507 58 550 96 q 439 6 464 19 q 388 -14 414 -7 l 388 -126 l 331 -126 l 331 -19 q 185 22 264 -19 q 88 167 128 74 m 331 633 q 220 581 249 633 q 192 390 192 528 q 221 181 192 253 q 331 92 250 108 l 331 633 z "},"£":{"ha":678,"x_min":35,"x_max":594,"o":"m 35 46 q 92 68 74 54 q 126 147 110 82 q 146 342 143 213 l 64 342 l 64 397 l 146 397 q 149 435 147 408 q 153 469 151 461 q 157 496 154 478 q 164 524 160 514 q 192 574 175 550 q 444 736 313 736 q 576 704 494 736 l 556 536 l 524 536 q 490 640 510 594 q 401 671 446 671 q 325 636 356 671 q 288 534 294 601 q 279 397 282 467 l 517 397 l 517 342 l 275 342 q 194 83 267 165 q 360 79 276 79 q 514 92 443 79 l 526 119 l 549 208 l 589 208 q 594 0 589 56 q 216 4 319 4 q 50 0 113 4 l 35 46 z "},"¦":{"ha":333,"x_min":113,"x_max":221,"o":"m 113 278 l 221 278 l 221 -282 l 113 -282 l 113 278 m 113 547 l 113 1107 l 221 1107 l 221 547 l 113 547 z "},"§":{"ha":667,"x_min":69,"x_max":597,"o":"m 268 155 q 215 184 268 155 q 115 265 161 214 q 69 386 69 315 q 93 496 69 457 q 178 578 117 535 l 249 626 q 107 839 107 707 q 199 1018 107 943 q 382 1078 271 1078 q 472 1063 421 1078 q 551 1025 522 1047 q 544 825 544 976 l 493 825 q 480 892 492 844 q 456 957 468 939 q 407 988 443 975 q 324 1001 371 1001 q 240 969 278 1001 q 201 887 201 938 q 240 794 201 836 q 376 699 279 751 l 457 656 q 560 575 522 619 q 597 443 597 531 q 557 308 597 356 q 426 224 517 260 l 476 193 q 531 146 511 172 q 576 -1 576 78 q 465 -228 576 -136 q 304 -282 399 -282 q 111 -225 171 -282 q 119 -22 119 -167 l 168 -22 q 208 -159 178 -114 q 312 -204 239 -204 q 433 -168 385 -204 q 482 -58 482 -132 q 474 -3 482 -36 q 409 69 443 43 q 268 155 375 96 m 186 421 q 288 297 186 350 l 365 257 q 401 272 374 257 q 458 326 428 286 q 489 413 489 365 q 446 502 489 460 q 360 565 403 544 l 317 586 q 186 421 186 547 z "},"¨":{"ha":694,"x_min":135,"x_max":553,"o":"m 213 811 q 202 811 213 811 q 163 846 192 811 q 135 897 135 881 q 158 954 135 913 q 206 996 181 996 q 261 970 231 996 q 292 911 292 944 q 263 844 292 878 q 213 811 235 811 m 473 811 q 462 811 473 811 q 423 846 451 811 q 394 897 394 881 q 418 954 394 913 q 467 996 442 996 q 522 970 492 996 q 553 911 553 944 q 524 844 553 878 q 473 811 494 811 z "},"©":{"ha":1078,"x_min":50,"x_max":1028,"o":"m 535 -25 q 432 -25 535 -25 q 190 120 329 -25 q 50 469 50 265 q 195 813 50 674 q 542 953 340 953 q 886 810 744 953 q 1028 462 1028 668 q 884 115 1028 256 q 535 -25 740 -25 m 538 886 q 453 886 538 886 q 243 766 368 886 q 118 469 118 646 q 238 168 118 293 q 536 43 357 43 q 838 165 715 43 q 961 466 961 288 q 835 765 961 644 q 538 886 708 886 m 319 308 q 304 457 304 379 q 318 604 304 535 q 331 638 326 633 q 438 726 392 697 q 505 760 483 756 q 590 764 526 764 q 715 740 653 764 q 713 571 713 718 l 678 571 l 661 644 q 613 675 656 664 q 510 686 569 686 q 427 644 450 686 q 404 499 404 601 q 417 347 404 397 q 461 272 432 306 q 539 240 500 240 q 619 261 578 240 q 686 303 661 282 l 711 324 l 735 301 l 610 165 q 538 156 549 156 q 399 192 461 156 q 319 308 351 233 z "},"ª":{"ha":431,"x_min":56,"x_max":431,"o":"m 172 610 q 79 635 103 613 q 56 700 56 658 q 66 765 56 742 q 89 802 76 789 q 129 825 101 815 q 176 839 157 835 q 233 849 194 843 q 292 860 272 856 l 292 924 q 252 955 292 939 q 186 971 213 971 q 142 947 160 971 q 117 897 124 922 l 111 874 l 76 874 l 86 975 q 225 1019 164 1019 q 346 983 286 1019 q 371 953 367 969 l 368 686 q 388 655 369 665 q 431 644 407 644 l 431 624 q 342 614 396 624 l 325 611 l 297 669 l 204 614 l 172 610 m 131 718 q 194 661 131 661 q 240 671 210 661 l 293 703 l 292 829 q 156 785 235 818 q 131 718 131 768 z "},"«":{"ha":726,"x_min":39,"x_max":665,"o":"m 39 340 q 206 478 93 379 q 347 607 318 578 l 392 585 l 179 336 l 389 90 l 349 69 q 39 340 154 261 m 313 340 q 479 478 367 379 q 621 607 592 578 l 665 585 l 451 336 l 663 90 l 622 69 q 313 340 428 261 z "},"­":{"ha":375,"x_min":24,"x_max":351,"o":"m 24 347 l 43 439 l 336 439 l 351 424 l 335 347 l 24 347 z "},"®":{"ha":868,"x_min":69,"x_max":799,"o":"m 438 349 q 167 453 264 349 q 69 711 69 558 q 178 973 69 864 q 445 1082 286 1082 q 701 976 604 1082 q 799 718 799 871 q 692 457 799 565 q 438 349 586 349 m 440 1031 q 375 1031 440 1031 q 222 937 310 1031 q 135 712 135 843 q 219 490 135 581 q 435 399 303 399 q 653 492 567 399 q 739 716 739 586 q 655 938 739 846 q 440 1031 571 1031 m 249 517 l 249 542 q 303 567 303 544 q 299 879 303 768 q 289 894 299 890 q 249 901 289 894 l 249 926 q 324 925 265 925 q 417 928 383 925 q 456 931 450 931 l 468 931 q 539 903 508 931 q 569 835 569 875 q 552 774 569 794 q 494 729 535 753 q 604 550 560 614 l 638 538 l 638 517 q 549 514 583 517 l 442 715 l 425 715 q 364 722 385 715 q 363 567 363 644 q 418 542 363 544 l 418 517 q 333 518 401 518 q 249 517 265 518 m 367 886 l 365 756 q 426 746 381 746 q 488 769 471 746 q 506 823 506 793 q 492 871 506 853 q 447 899 471 899 q 374 892 392 899 l 367 886 z "},"¯":{"ha":694,"x_min":174,"x_max":521,"o":"m 174 836 l 192 921 l 521 921 l 504 836 l 174 836 z "},"°":{"ha":431,"x_min":56,"x_max":410,"o":"m 56 800 q 93 914 56 867 q 168 967 115 943 q 254 992 221 992 q 364 955 318 992 q 410 831 410 918 q 368 699 410 744 q 332 663 360 688 q 207 614 278 614 q 108 644 154 614 q 56 800 56 681 m 228 942 q 153 914 178 942 q 128 803 128 886 q 158 692 128 721 q 244 664 188 664 q 278 667 264 664 q 339 831 339 689 q 228 942 339 942 z "},"±":{"ha":667,"x_min":15,"x_max":656,"o":"m 15 382 l 35 474 l 289 474 l 289 696 l 367 714 l 382 697 l 381 474 l 639 474 l 656 458 l 638 382 l 382 382 l 381 163 l 289 143 l 289 382 l 15 382 m 15 0 l 35 92 l 639 92 l 656 76 l 638 0 l 15 0 z "},"´":{"ha":694,"x_min":200,"x_max":494,"o":"m 200 804 q 414 1054 282 889 q 468 1035 443 1054 q 494 992 493 1017 q 225 775 346 856 l 200 804 z "},"¶":{"ha":667,"x_min":42,"x_max":582,"o":"m 121 567 q 104 582 121 567 q 65 649 88 597 q 42 758 42 700 q 53 858 42 817 q 80 927 64 900 q 126 974 96 954 q 182 1003 157 993 q 250 1017 207 1013 q 403 1025 319 1025 l 582 1025 l 582 -236 l 532 -236 l 532 976 l 424 976 l 424 -236 l 375 -236 l 375 483 l 335 483 q 211 510 268 483 q 121 567 154 538 z "},"·":{"ha":347,"x_min":88,"x_max":246,"o":"m 154 289 q 111 347 135 289 q 88 420 88 404 q 112 472 88 436 q 160 508 136 508 q 215 457 183 508 q 246 385 246 406 q 212 326 246 364 q 154 289 178 289 z "},"¸":{"ha":694,"x_min":244,"x_max":450,"o":"m 244 -233 q 345 -217 310 -233 q 381 -181 381 -201 q 353 -144 381 -160 q 279 -126 325 -128 l 263 -111 l 306 11 l 339 8 l 325 -60 q 450 -165 450 -85 q 411 -253 450 -225 q 368 -276 396 -264 q 247 -286 336 -282 l 244 -233 z "},"º":{"ha":486,"x_min":56,"x_max":443,"o":"m 119 640 q 105 650 119 640 q 73 705 90 660 q 56 817 56 750 q 84 925 56 885 q 169 992 113 965 q 263 1018 225 1018 q 390 975 338 1018 q 443 839 443 932 q 406 696 443 746 q 369 656 399 685 q 308 615 339 628 q 240 603 278 603 q 174 611 201 603 q 119 640 147 619 m 136 827 q 136 778 136 827 q 171 694 136 729 q 271 658 206 658 q 308 661 300 658 q 367 821 367 682 q 348 915 367 885 q 282 958 329 946 q 239 964 265 964 q 199 961 213 964 q 169 947 186 958 q 136 827 136 925 z "},"»":{"ha":726,"x_min":63,"x_max":688,"o":"m 63 585 l 107 607 q 244 481 129 583 q 414 340 360 379 q 104 69 304 264 l 64 90 l 275 336 l 63 585 m 336 585 l 379 607 q 520 479 407 579 q 688 340 633 379 q 378 69 578 264 l 338 90 l 549 336 l 336 585 z "},"¿":{"ha":618,"x_min":78,"x_max":556,"o":"m 78 322 q 319 596 78 596 q 435 558 381 596 q 454 724 450 701 l 500 715 l 515 426 q 365 499 431 499 q 227 451 268 499 q 186 311 186 404 q 197 194 186 267 q 235 97 208 121 q 312 72 263 72 q 392 78 361 72 q 441 92 424 85 q 469 115 458 99 q 483 140 481 131 q 490 171 486 150 q 496 200 493 192 l 531 200 q 536 71 536 89 q 504 4 536 22 q 395 -14 472 -14 q 272 3 318 -14 q 196 45 226 21 q 142 96 165 69 q 96 163 101 142 q 78 322 78 253 m 483 790 q 472 790 483 790 q 428 842 460 790 q 397 914 397 893 q 431 972 397 935 q 489 1010 465 1010 q 532 952 508 1010 q 556 878 556 894 q 531 826 556 863 q 483 790 507 790 z "},"À":{"ha":1049,"x_min":0,"x_max":1049,"o":"m 301 1282 l 301 1288 q 322 1332 301 1311 q 369 1357 343 1353 q 622 1149 517 1225 l 604 1115 q 449 1195 544 1142 q 301 1282 353 1249 m 0 0 l 0 50 q 68 70 46 54 q 115 131 90 86 q 186 292 140 176 l 475 1014 q 520 1026 485 1021 q 569 1032 556 1032 q 937 131 925 153 q 959 95 949 108 q 993 68 969 82 q 1049 50 1017 54 l 1049 0 l 651 0 l 651 47 q 775 108 775 57 q 746 213 775 146 l 719 274 q 690 346 703 311 l 289 346 q 233 209 264 289 q 203 115 203 129 q 328 54 203 65 l 328 0 l 0 0 m 308 406 l 672 406 l 488 863 l 308 406 z "},"Á":{"ha":1049,"x_min":0,"x_max":1049,"o":"m 424 1149 q 676 1357 529 1225 q 724 1332 703 1353 q 744 1288 744 1311 l 744 1282 q 597 1195 693 1249 q 442 1115 501 1142 l 424 1149 m 0 0 l 0 50 q 68 70 46 54 q 115 131 90 86 q 186 292 140 176 l 475 1014 q 520 1026 485 1021 q 569 1032 556 1032 q 937 131 925 153 q 959 95 949 108 q 993 68 969 82 q 1049 50 1017 54 l 1049 0 l 651 0 l 651 47 q 775 108 775 57 q 746 213 775 146 l 719 274 q 690 346 703 311 l 289 346 q 233 209 264 289 q 203 115 203 129 q 328 54 203 65 l 328 0 l 0 0 m 308 406 l 672 406 l 488 863 l 308 406 z "},"Â":{"ha":1049,"x_min":0,"x_max":1049,"o":"m 365 1126 q 507 1297 436 1201 l 563 1297 q 699 1128 622 1210 l 672 1104 l 529 1199 l 390 1101 l 365 1126 m 0 0 l 0 50 q 68 70 46 54 q 115 131 90 86 q 186 292 140 176 l 475 1014 q 520 1026 485 1021 q 569 1032 556 1032 q 937 131 925 153 q 959 95 949 108 q 993 68 969 82 q 1049 50 1017 54 l 1049 0 l 651 0 l 651 47 q 775 108 775 57 q 746 213 775 146 l 719 274 q 690 346 703 311 l 289 346 q 233 209 264 289 q 203 115 203 129 q 328 54 203 65 l 328 0 l 0 0 m 308 406 l 672 406 l 488 863 l 308 406 z "},"Ã":{"ha":1049,"x_min":0,"x_max":1049,"o":"m 303 1153 q 381 1238 325 1186 q 456 1290 436 1290 q 528 1260 475 1290 q 631 1217 582 1229 q 724 1276 674 1229 l 744 1260 q 674 1180 722 1226 q 603 1133 625 1133 q 519 1170 582 1133 q 431 1207 457 1207 q 321 1133 385 1193 l 303 1153 m 0 0 l 0 50 q 68 70 46 54 q 115 131 90 86 q 186 292 140 176 l 475 1014 q 520 1026 485 1021 q 569 1032 556 1032 q 937 131 925 153 q 959 95 949 108 q 993 68 969 82 q 1049 50 1017 54 l 1049 0 l 651 0 l 651 47 q 775 108 775 57 q 746 213 775 146 l 719 274 q 690 346 703 311 l 289 346 q 233 209 264 289 q 203 115 203 129 q 328 54 203 65 l 328 0 l 0 0 m 308 406 l 672 406 l 488 863 l 308 406 z "},"Ä":{"ha":1049,"x_min":0,"x_max":1049,"o":"m 399 1128 q 389 1128 399 1128 q 349 1163 378 1128 q 321 1213 321 1197 q 344 1271 321 1229 q 392 1313 367 1313 q 447 1287 417 1313 q 478 1228 478 1261 q 449 1161 478 1194 q 399 1128 421 1128 m 659 1128 q 648 1128 659 1128 q 609 1163 638 1128 q 581 1213 581 1197 q 604 1271 581 1229 q 653 1313 628 1313 q 708 1287 678 1313 q 739 1228 739 1261 q 710 1161 739 1194 q 659 1128 681 1128 m 0 0 l 0 50 q 68 70 46 54 q 115 131 90 86 q 186 292 140 176 l 475 1014 q 520 1026 485 1021 q 569 1032 556 1032 q 937 131 925 153 q 959 95 949 108 q 993 68 969 82 q 1049 50 1017 54 l 1049 0 l 651 0 l 651 47 q 775 108 775 57 q 746 213 775 146 l 719 274 q 690 346 703 311 l 289 346 q 233 209 264 289 q 203 115 203 129 q 328 54 203 65 l 328 0 l 0 0 m 308 406 l 672 406 l 488 863 l 308 406 z "},"Å":{"ha":1049,"x_min":0,"x_max":1049,"o":"m 406 1228 q 426 1299 406 1267 q 474 1334 440 1318 q 542 1350 508 1350 q 607 1324 575 1350 q 639 1242 639 1297 q 617 1156 639 1188 q 558 1108 578 1117 q 513 1100 538 1100 q 406 1228 406 1100 m 533 1146 q 553 1147 549 1146 q 583 1229 583 1160 q 574 1278 583 1263 q 515 1304 558 1304 q 489 1301 497 1304 q 464 1219 464 1293 q 533 1146 464 1146 m 0 0 l 0 50 q 68 70 46 54 q 115 131 90 86 q 186 292 140 176 l 475 1014 q 520 1026 485 1021 q 569 1032 556 1032 q 937 131 925 153 q 959 95 949 108 q 993 68 969 82 q 1049 50 1017 54 l 1049 0 l 651 0 l 651 47 q 775 108 775 57 q 746 213 775 146 l 719 274 q 690 346 703 311 l 289 346 q 233 209 264 289 q 203 115 203 129 q 328 54 203 65 l 328 0 l 0 0 m 308 406 l 672 406 l 488 863 l 308 406 z "},"Æ":{"ha":1435,"x_min":0,"x_max":1376,"o":"m 218 107 q 328 54 218 63 l 328 0 l 0 0 l 0 50 q 72 69 46 54 q 132 132 97 85 q 232 292 167 179 l 597 935 q 603 949 603 942 q 600 960 603 957 q 589 967 597 964 q 525 972 561 972 l 506 974 l 506 1025 q 740 1019 581 1019 q 964 1024 900 1019 l 1328 1025 l 1344 1010 q 1325 880 1342 994 q 1307 753 1308 765 l 1260 753 q 1231 903 1260 753 q 1208 939 1219 931 q 1030 951 1142 951 q 893 942 918 951 q 867 904 868 933 q 861 574 864 829 q 1204 581 1058 574 l 1190 478 l 1165 478 q 860 514 1115 514 l 857 115 q 907 72 857 82 q 1085 61 957 61 q 1235 78 1214 61 q 1306 247 1268 107 l 1325 322 l 1376 322 q 1364 0 1364 151 l 588 0 l 588 51 q 651 58 629 54 q 693 76 674 63 q 713 115 713 90 q 715 346 713 118 l 346 346 q 272 223 326 318 q 218 107 218 128 m 375 406 l 715 406 q 717 613 717 458 q 713 918 717 767 q 705 938 711 929 q 689 946 699 946 q 674 932 679 946 l 375 406 z "},"Ç":{"ha":1011,"x_min":101,"x_max":915,"o":"m 101 508 q 150 794 101 681 q 269 941 179 863 q 478 1035 360 1019 q 640 1044 549 1044 q 893 1004 819 1044 l 910 989 q 896 744 910 939 l 849 744 q 779 932 800 917 q 574 958 678 958 q 308 861 375 958 q 240 503 240 764 q 426 100 240 213 q 608 53 503 53 q 804 124 713 53 q 844 247 818 149 l 864 322 l 915 322 q 910 46 910 265 q 607 -22 744 -14 l 519 -22 l 513 -60 q 638 -165 638 -85 q 624 -220 638 -197 q 597 -253 611 -243 q 556 -276 583 -262 q 435 -286 524 -282 l 431 -233 q 531 -217 496 -233 q 567 -181 567 -201 q 539 -144 567 -160 q 465 -126 511 -128 l 449 -111 l 482 -18 q 101 508 101 25 z "},"È":{"ha":889,"x_min":40,"x_max":831,"o":"m 243 1282 l 243 1288 q 264 1332 243 1311 q 311 1357 285 1353 q 564 1149 458 1225 l 546 1115 q 390 1195 486 1142 q 243 1282 294 1249 m 40 0 l 40 51 q 105 58 82 54 q 147 76 128 63 q 165 115 165 90 q 171 538 171 293 q 165 918 171 783 q 144 959 164 949 q 71 972 124 969 l 51 974 l 51 1025 q 240 1019 126 1019 q 417 1024 354 1019 l 782 1025 l 799 1010 q 779 883 796 999 q 761 753 763 768 l 714 753 q 681 912 688 894 q 661 939 675 929 q 494 951 615 951 q 347 942 372 951 q 321 904 322 933 q 315 574 318 829 q 657 581 511 574 l 643 478 l 619 478 q 314 514 569 514 q 311 115 311 308 q 361 72 311 82 q 540 61 411 61 q 689 78 668 61 q 760 247 724 108 l 779 322 l 831 322 q 822 154 826 286 q 818 0 818 22 l 40 0 z "},"É":{"ha":889,"x_min":40,"x_max":831,"o":"m 365 1149 q 618 1357 471 1225 q 665 1332 644 1353 q 686 1288 686 1311 l 686 1282 q 539 1195 635 1249 q 383 1115 443 1142 l 365 1149 m 40 0 l 40 51 q 105 58 82 54 q 147 76 128 63 q 165 115 165 90 q 171 538 171 293 q 165 918 171 783 q 144 959 164 949 q 71 972 124 969 l 51 974 l 51 1025 q 240 1019 126 1019 q 417 1024 354 1019 l 782 1025 l 799 1010 q 779 883 796 999 q 761 753 763 768 l 714 753 q 681 912 688 894 q 661 939 675 929 q 494 951 615 951 q 347 942 372 951 q 321 904 322 933 q 315 574 318 829 q 657 581 511 574 l 643 478 l 619 478 q 314 514 569 514 q 311 115 311 308 q 361 72 311 82 q 540 61 411 61 q 689 78 668 61 q 760 247 724 108 l 779 322 l 831 322 q 822 154 826 286 q 818 0 818 22 l 40 0 z "},"Ê":{"ha":889,"x_min":40,"x_max":831,"o":"m 307 1126 q 449 1297 378 1201 l 504 1297 q 640 1128 564 1210 l 614 1104 l 471 1199 l 332 1101 l 307 1126 m 40 0 l 40 51 q 105 58 82 54 q 147 76 128 63 q 165 115 165 90 q 171 538 171 293 q 165 918 171 783 q 144 959 164 949 q 71 972 124 969 l 51 974 l 51 1025 q 240 1019 126 1019 q 417 1024 354 1019 l 782 1025 l 799 1010 q 779 883 796 999 q 761 753 763 768 l 714 753 q 681 912 688 894 q 661 939 675 929 q 494 951 615 951 q 347 942 372 951 q 321 904 322 933 q 315 574 318 829 q 657 581 511 574 l 643 478 l 619 478 q 314 514 569 514 q 311 115 311 308 q 361 72 311 82 q 540 61 411 61 q 689 78 668 61 q 760 247 724 108 l 779 322 l 831 322 q 822 154 826 286 q 818 0 818 22 l 40 0 z "},"Ë":{"ha":889,"x_min":40,"x_max":831,"o":"m 341 1128 q 330 1128 341 1128 q 291 1163 319 1128 q 263 1213 263 1197 q 285 1271 263 1229 q 333 1313 308 1313 q 389 1287 358 1313 q 419 1228 419 1261 q 391 1161 419 1194 q 341 1128 363 1128 m 601 1128 q 590 1128 601 1128 q 551 1163 579 1128 q 522 1213 522 1197 q 546 1271 522 1229 q 594 1313 569 1313 q 650 1287 619 1313 q 681 1228 681 1261 q 651 1161 681 1194 q 601 1128 622 1128 m 40 0 l 40 51 q 105 58 82 54 q 147 76 128 63 q 165 115 165 90 q 171 538 171 293 q 165 918 171 783 q 144 959 164 949 q 71 972 124 969 l 51 974 l 51 1025 q 240 1019 126 1019 q 417 1024 354 1019 l 782 1025 l 799 1010 q 779 883 796 999 q 761 753 763 768 l 714 753 q 681 912 688 894 q 661 939 675 929 q 494 951 615 951 q 347 942 372 951 q 321 904 322 933 q 315 574 318 829 q 657 581 511 574 l 643 478 l 619 478 q 314 514 569 514 q 311 115 311 308 q 361 72 311 82 q 540 61 411 61 q 689 78 668 61 q 760 247 724 108 l 779 322 l 831 322 q 822 154 826 286 q 818 0 818 22 l 40 0 z "},"Ì":{"ha":465,"x_min":10,"x_max":425,"o":"m 10 1282 l 10 1288 q 31 1332 10 1311 q 78 1357 51 1353 q 331 1149 225 1225 l 313 1115 q 157 1195 253 1142 q 10 1282 61 1249 m 40 0 l 40 51 q 105 58 82 54 q 147 76 128 63 q 165 115 165 90 q 156 918 165 596 q 134 959 154 949 q 60 972 114 969 l 40 974 l 40 1025 l 425 1025 l 425 974 l 406 972 q 331 959 351 969 q 310 918 311 949 q 300 115 300 640 q 358 58 300 72 q 425 51 382 54 l 425 0 l 40 0 z "},"Í":{"ha":465,"x_min":40,"x_max":453,"o":"m 132 1149 q 385 1357 238 1225 q 432 1332 411 1353 q 453 1288 453 1311 l 453 1282 q 306 1195 401 1249 q 150 1115 210 1142 l 132 1149 m 40 0 l 40 51 q 105 58 82 54 q 147 76 128 63 q 165 115 165 90 q 156 918 165 596 q 134 959 154 949 q 60 972 114 969 l 40 974 l 40 1025 l 425 1025 l 425 974 l 406 972 q 331 959 351 969 q 310 918 311 949 q 300 115 300 640 q 358 58 300 72 q 425 51 382 54 l 425 0 l 40 0 z "},"Î":{"ha":465,"x_min":40,"x_max":425,"o":"m 74 1126 q 215 1297 144 1201 l 271 1297 q 407 1128 331 1210 l 381 1104 l 238 1199 l 99 1101 l 74 1126 m 40 0 l 40 51 q 105 58 82 54 q 147 76 128 63 q 165 115 165 90 q 156 918 165 596 q 134 959 154 949 q 60 972 114 969 l 40 974 l 40 1025 l 425 1025 l 425 974 l 406 972 q 331 959 351 969 q 310 918 311 949 q 300 115 300 640 q 358 58 300 72 q 425 51 382 54 l 425 0 l 40 0 z "},"Ï":{"ha":465,"x_min":29,"x_max":447,"o":"m 108 1128 q 97 1128 108 1128 q 58 1163 86 1128 q 29 1213 29 1197 q 52 1271 29 1229 q 100 1313 75 1313 q 156 1287 125 1313 q 186 1228 186 1261 q 158 1161 186 1194 q 108 1128 129 1128 m 367 1128 q 357 1128 367 1128 q 317 1163 346 1128 q 289 1213 289 1197 q 313 1271 289 1229 q 361 1313 336 1313 q 417 1287 386 1313 q 447 1228 447 1261 q 418 1161 447 1194 q 367 1128 389 1128 m 40 0 l 40 51 q 105 58 82 54 q 147 76 128 63 q 165 115 165 90 q 156 918 165 596 q 134 959 154 949 q 60 972 114 969 l 40 974 l 40 1025 l 425 1025 l 425 974 l 406 972 q 331 959 351 969 q 310 918 311 949 q 300 115 300 640 q 358 58 300 72 q 425 51 382 54 l 425 0 l 40 0 z "},"Ñ":{"ha":1079,"x_min":21,"x_max":1079,"o":"m 332 1153 q 410 1238 354 1186 q 485 1290 465 1290 q 558 1260 504 1290 q 660 1217 611 1229 q 753 1276 703 1229 l 774 1260 q 703 1180 751 1226 q 633 1133 654 1133 q 549 1170 611 1133 q 460 1207 486 1207 q 350 1133 414 1193 l 332 1153 m 151 732 l 150 861 l 150 926 q 90 967 144 961 l 21 974 l 21 1025 l 283 1025 q 879 221 300 976 q 874 498 874 299 q 868 881 874 697 q 847 947 867 929 q 743 972 828 964 l 743 1025 l 1079 1025 l 1079 975 q 967 938 986 967 l 958 894 q 949 228 949 557 l 951 0 l 869 0 q 729 191 814 83 q 592 365 644 299 q 228 829 486 501 l 228 403 q 235 111 235 138 q 266 72 235 85 q 354 54 297 60 l 354 0 l 26 0 l 26 50 q 142 111 135 60 q 151 625 151 181 l 151 732 z "},"Ò":{"ha":1035,"x_min":58,"x_max":978,"o":"m 315 1282 l 315 1288 q 336 1332 315 1311 q 383 1357 357 1353 q 636 1149 531 1225 l 618 1115 q 463 1195 558 1142 q 315 1282 367 1249 m 499 -19 q 168 123 278 -19 q 58 489 58 265 q 147 847 58 713 q 281 967 194 918 q 549 1043 417 1043 q 872 919 765 1043 q 978 555 978 796 q 879 169 978 314 q 698 26 813 72 q 499 -19 583 -19 m 200 526 q 242 281 200 386 q 301 183 261 235 q 400 102 340 132 q 563 72 460 72 q 835 488 835 72 q 761 830 835 722 q 574 954 688 938 q 499 957 561 957 q 281 856 361 957 q 200 526 200 754 z "},"Ó":{"ha":1035,"x_min":58,"x_max":978,"o":"m 438 1149 q 690 1357 543 1225 q 738 1332 717 1353 q 758 1288 758 1311 l 758 1282 q 611 1195 707 1249 q 456 1115 515 1142 l 438 1149 m 499 -19 q 168 123 278 -19 q 58 489 58 265 q 147 847 58 713 q 281 967 194 918 q 549 1043 417 1043 q 872 919 765 1043 q 978 555 978 796 q 879 169 978 314 q 698 26 813 72 q 499 -19 583 -19 m 200 526 q 242 281 200 386 q 301 183 261 235 q 400 102 340 132 q 563 72 460 72 q 835 488 835 72 q 761 830 835 722 q 574 954 688 938 q 499 957 561 957 q 281 856 361 957 q 200 526 200 754 z "},"Ô":{"ha":1035,"x_min":58,"x_max":978,"o":"m 379 1126 q 521 1297 450 1201 l 576 1297 q 713 1128 636 1210 l 686 1104 l 543 1199 l 404 1101 l 379 1126 m 499 -19 q 168 123 278 -19 q 58 489 58 265 q 147 847 58 713 q 281 967 194 918 q 549 1043 417 1043 q 872 919 765 1043 q 978 555 978 796 q 879 169 978 314 q 698 26 813 72 q 499 -19 583 -19 m 200 526 q 242 281 200 386 q 301 183 261 235 q 400 102 340 132 q 563 72 460 72 q 835 488 835 72 q 761 830 835 722 q 574 954 688 938 q 499 957 561 957 q 281 856 361 957 q 200 526 200 754 z "},"Õ":{"ha":1035,"x_min":58,"x_max":978,"o":"m 317 1153 q 394 1238 339 1186 q 469 1290 450 1290 q 542 1260 489 1290 q 644 1217 596 1229 q 738 1276 688 1229 l 758 1260 q 688 1180 736 1226 q 617 1133 639 1133 q 533 1170 596 1133 q 444 1207 471 1207 q 335 1133 399 1193 l 317 1153 m 499 -19 q 168 123 278 -19 q 58 489 58 265 q 147 847 58 713 q 281 967 194 918 q 549 1043 417 1043 q 872 919 765 1043 q 978 555 978 796 q 879 169 978 314 q 698 26 813 72 q 499 -19 583 -19 m 200 526 q 242 281 200 386 q 301 183 261 235 q 400 102 340 132 q 563 72 460 72 q 835 488 835 72 q 761 830 835 722 q 574 954 688 938 q 499 957 561 957 q 281 856 361 957 q 200 526 200 754 z "},"Ö":{"ha":1035,"x_min":58,"x_max":978,"o":"m 413 1128 q 402 1128 413 1128 q 363 1163 392 1128 q 335 1213 335 1197 q 358 1271 335 1229 q 406 1313 381 1313 q 461 1287 431 1313 q 492 1228 492 1261 q 463 1161 492 1194 q 413 1128 435 1128 m 673 1128 q 662 1128 673 1128 q 623 1163 651 1128 q 594 1213 594 1197 q 618 1271 594 1229 q 667 1313 642 1313 q 722 1287 692 1313 q 753 1228 753 1261 q 724 1161 753 1194 q 673 1128 694 1128 m 499 -19 q 168 123 278 -19 q 58 489 58 265 q 147 847 58 713 q 281 967 194 918 q 549 1043 417 1043 q 872 919 765 1043 q 978 555 978 796 q 879 169 978 314 q 698 26 813 72 q 499 -19 583 -19 m 200 526 q 242 281 200 386 q 301 183 261 235 q 400 102 340 132 q 563 72 460 72 q 835 488 835 72 q 761 830 835 722 q 574 954 688 938 q 499 957 561 957 q 281 856 361 957 q 200 526 200 754 z "},"Ø":{"ha":1035,"x_min":58,"x_max":978,"o":"m 58 497 q 147 847 58 713 q 281 967 194 918 q 542 1043 417 1043 q 757 1003 668 1043 l 804 1099 l 861 1072 l 811 972 q 978 571 978 858 q 697 26 978 139 q 496 -19 583 -19 q 332 7 408 -19 l 285 -87 l 231 -62 l 276 32 q 113 213 167 92 q 58 497 58 335 m 200 526 q 333 147 200 267 l 704 896 q 574 954 647 943 q 499 957 561 957 q 281 856 361 957 q 200 526 200 754 m 383 110 l 396 104 q 563 72 460 72 q 835 488 835 72 q 749 846 835 728 l 383 110 z "},"Ù":{"ha":1051,"x_min":47,"x_max":1058,"o":"m 354 1282 l 354 1288 q 375 1332 354 1311 q 422 1357 396 1353 q 675 1149 569 1225 l 657 1115 q 501 1195 597 1142 q 354 1282 406 1249 m 858 494 l 856 910 q 731 971 856 960 l 731 1025 l 1058 1025 l 1058 975 q 947 914 951 963 l 946 889 q 938 615 943 850 q 932 310 932 381 q 907 175 932 240 q 844 73 882 110 q 746 15 806 36 q 631 -13 686 -7 q 498 -19 575 -19 q 357 6 421 -19 q 258 66 293 31 q 200 147 224 101 q 164 297 164 222 q 158 917 161 888 q 133 958 154 946 q 47 974 113 969 l 47 1025 l 431 1025 l 431 974 q 364 967 386 971 q 306 910 306 954 l 307 542 l 307 431 q 308 298 308 354 q 322 208 308 242 q 367 141 336 175 q 460 85 399 107 q 596 64 521 64 q 717 80 671 64 q 791 124 763 96 q 833 208 819 153 q 858 494 858 303 z "},"Ú":{"ha":1051,"x_min":47,"x_max":1058,"o":"m 476 1149 q 729 1357 582 1225 q 776 1332 756 1353 q 797 1288 797 1311 l 797 1282 q 650 1195 746 1249 q 494 1115 554 1142 l 476 1149 m 858 494 l 856 910 q 731 971 856 960 l 731 1025 l 1058 1025 l 1058 975 q 947 914 951 963 l 946 889 q 938 615 943 850 q 932 310 932 381 q 907 175 932 240 q 844 73 882 110 q 746 15 806 36 q 631 -13 686 -7 q 498 -19 575 -19 q 357 6 421 -19 q 258 66 293 31 q 200 147 224 101 q 164 297 164 222 q 158 917 161 888 q 133 958 154 946 q 47 974 113 969 l 47 1025 l 431 1025 l 431 974 q 364 967 386 971 q 306 910 306 954 l 307 542 l 307 431 q 308 298 308 354 q 322 208 308 242 q 367 141 336 175 q 460 85 399 107 q 596 64 521 64 q 717 80 671 64 q 791 124 763 96 q 833 208 819 153 q 858 494 858 303 z "},"Û":{"ha":1051,"x_min":47,"x_max":1058,"o":"m 418 1126 q 560 1297 489 1201 l 615 1297 q 751 1128 675 1210 l 725 1104 l 582 1199 l 443 1101 l 418 1126 m 858 494 l 856 910 q 731 971 856 960 l 731 1025 l 1058 1025 l 1058 975 q 947 914 951 963 l 946 889 q 938 615 943 850 q 932 310 932 381 q 907 175 932 240 q 844 73 882 110 q 746 15 806 36 q 631 -13 686 -7 q 498 -19 575 -19 q 357 6 421 -19 q 258 66 293 31 q 200 147 224 101 q 164 297 164 222 q 158 917 161 888 q 133 958 154 946 q 47 974 113 969 l 47 1025 l 431 1025 l 431 974 q 364 967 386 971 q 306 910 306 954 l 307 542 l 307 431 q 308 298 308 354 q 322 208 308 242 q 367 141 336 175 q 460 85 399 107 q 596 64 521 64 q 717 80 671 64 q 791 124 763 96 q 833 208 819 153 q 858 494 858 303 z "},"Ü":{"ha":1051,"x_min":47,"x_max":1058,"o":"m 452 1128 q 441 1128 452 1128 q 402 1163 431 1128 q 374 1213 374 1197 q 397 1271 374 1229 q 444 1313 419 1313 q 500 1287 469 1313 q 531 1228 531 1261 q 502 1161 531 1194 q 452 1128 474 1128 m 712 1128 q 701 1128 712 1128 q 662 1163 690 1128 q 633 1213 633 1197 q 657 1271 633 1229 q 706 1313 681 1313 q 761 1287 731 1313 q 792 1228 792 1261 q 763 1161 792 1194 q 712 1128 733 1128 m 858 494 l 856 910 q 731 971 856 960 l 731 1025 l 1058 1025 l 1058 975 q 947 914 951 963 l 946 889 q 938 615 943 850 q 932 310 932 381 q 907 175 932 240 q 844 73 882 110 q 746 15 806 36 q 631 -13 686 -7 q 498 -19 575 -19 q 357 6 421 -19 q 258 66 293 31 q 200 147 224 101 q 164 297 164 222 q 158 917 161 888 q 133 958 154 946 q 47 974 113 969 l 47 1025 l 431 1025 l 431 974 q 364 967 386 971 q 306 910 306 954 l 307 542 l 307 431 q 308 298 308 354 q 322 208 308 242 q 367 141 336 175 q 460 85 399 107 q 596 64 521 64 q 717 80 671 64 q 791 124 763 96 q 833 208 819 153 q 858 494 858 303 z "},"Ý":{"ha":901,"x_min":0,"x_max":901,"o":"m 397 1149 q 650 1357 503 1225 q 697 1332 676 1353 q 718 1288 718 1311 l 718 1282 q 571 1195 667 1249 q 415 1115 475 1142 l 397 1149 m 0 974 l 0 1025 l 383 1025 l 383 974 q 292 958 315 968 q 268 928 268 949 q 478 567 268 896 q 710 935 710 899 q 688 960 710 954 q 613 971 667 967 l 613 1025 l 901 1025 l 901 975 q 825 940 847 968 l 514 510 q 510 262 510 418 q 517 93 510 106 q 656 49 536 57 l 656 0 l 225 0 l 225 49 q 296 57 269 53 q 347 76 322 61 q 371 115 371 90 l 365 497 q 89 908 333 554 q 0 974 50 969 z "},"ß":{"ha":831,"x_min":36,"x_max":789,"o":"m 276 721 l 271 182 q 281 74 271 90 q 356 50 292 57 q 374 47 368 49 l 374 0 l 36 0 l 36 47 q 99 56 86 54 q 128 69 111 58 q 146 94 144 81 q 147 174 147 108 q 139 622 147 239 l 138 690 q 218 983 138 858 q 450 1108 299 1108 q 614 1054 556 1108 q 672 921 672 1000 q 652 847 672 883 q 607 784 632 810 q 562 722 582 758 q 542 645 542 686 q 567 564 542 604 q 629 492 593 524 q 701 425 665 460 q 763 338 738 390 q 789 215 789 285 q 768 111 789 146 q 683 11 726 44 q 618 -14 663 -4 q 551 -24 574 -24 q 440 9 494 -24 q 386 74 386 42 q 392 212 386 186 q 420 238 399 238 q 451 210 442 238 q 465 151 460 183 q 497 92 469 119 q 577 65 524 65 q 665 92 631 65 q 699 161 699 118 q 670 246 699 204 q 601 327 642 288 q 519 406 561 367 q 422 569 422 501 q 450 700 422 651 q 496 762 468 731 q 536 808 524 793 q 565 894 565 843 q 553 982 565 946 q 517 1040 542 1018 q 449 1061 492 1061 q 368 1024 406 1061 q 311 928 331 986 q 276 721 276 819 z "},"à":{"ha":664,"x_min":56,"x_max":633,"o":"m 126 993 q 152 1037 128 1018 q 206 1056 176 1056 q 418 806 338 890 l 396 776 q 256 881 342 811 q 126 993 171 950 m 576 544 l 571 178 q 602 94 571 143 q 633 37 633 44 q 621 25 633 29 q 512 -7 524 -7 q 488 13 500 -7 q 467 63 476 33 q 456 93 457 92 q 404 58 435 79 q 362 30 374 38 q 328 11 350 22 q 290 -4 307 0 q 185 -14 251 -14 q 88 39 119 -14 q 56 154 56 92 q 65 254 56 217 q 97 317 75 292 q 142 358 119 342 q 205 387 164 375 q 276 405 246 399 q 360 422 306 411 q 447 439 414 432 l 449 522 q 403 614 449 586 q 292 642 357 642 q 203 609 228 642 q 149 469 178 576 l 92 475 q 133 644 92 596 q 242 717 183 703 q 360 731 300 731 q 464 717 421 731 q 528 685 507 703 q 562 638 550 668 q 575 590 574 608 q 576 544 576 572 m 181 182 q 274 79 181 79 q 439 149 356 79 q 449 250 449 157 q 447 385 449 343 q 384 364 422 376 q 330 346 346 351 q 288 331 314 340 q 252 317 261 322 q 227 303 243 311 q 207 287 211 294 q 194 269 203 279 q 185 244 186 258 q 181 182 181 206 z "},"á":{"ha":664,"x_min":56,"x_max":633,"o":"m 263 804 q 475 1054 343 889 q 529 1035 504 1054 q 556 992 554 1017 q 286 775 407 856 l 263 804 m 576 544 l 571 178 q 602 94 571 143 q 633 37 633 44 q 621 25 633 29 q 512 -7 524 -7 q 488 13 500 -7 q 467 63 476 33 q 456 93 457 92 q 404 58 435 79 q 362 30 374 38 q 328 11 350 22 q 290 -4 307 0 q 185 -14 251 -14 q 88 39 119 -14 q 56 154 56 92 q 65 254 56 217 q 97 317 75 292 q 142 358 119 342 q 205 387 164 375 q 276 405 246 399 q 360 422 306 411 q 447 439 414 432 l 449 522 q 403 614 449 586 q 292 642 357 642 q 203 609 228 642 q 149 469 178 576 l 92 475 q 133 644 92 596 q 242 717 183 703 q 360 731 300 731 q 464 717 421 731 q 528 685 507 703 q 562 638 550 668 q 575 590 574 608 q 576 544 576 572 m 181 182 q 274 79 181 79 q 439 149 356 79 q 449 250 449 157 q 447 385 449 343 q 384 364 422 376 q 330 346 346 351 q 288 331 314 340 q 252 317 261 322 q 227 303 243 311 q 207 287 211 294 q 194 269 203 279 q 185 244 186 258 q 181 182 181 206 z "},"â":{"ha":664,"x_min":56,"x_max":633,"o":"m 178 807 q 332 1044 279 954 l 388 1044 q 522 810 471 886 l 500 792 l 343 939 l 206 789 l 178 807 m 576 544 l 571 178 q 602 94 571 143 q 633 37 633 44 q 621 25 633 29 q 512 -7 524 -7 q 488 13 500 -7 q 467 63 476 33 q 456 93 457 92 q 404 58 435 79 q 362 30 374 38 q 328 11 350 22 q 290 -4 307 0 q 185 -14 251 -14 q 88 39 119 -14 q 56 154 56 92 q 65 254 56 217 q 97 317 75 292 q 142 358 119 342 q 205 387 164 375 q 276 405 246 399 q 360 422 306 411 q 447 439 414 432 l 449 522 q 403 614 449 586 q 292 642 357 642 q 203 609 228 642 q 149 469 178 576 l 92 475 q 133 644 92 596 q 242 717 183 703 q 360 731 300 731 q 464 717 421 731 q 528 685 507 703 q 562 638 550 668 q 575 590 574 608 q 576 544 576 572 m 181 182 q 274 79 181 79 q 439 149 356 79 q 449 250 449 157 q 447 385 449 343 q 384 364 422 376 q 330 346 346 351 q 288 331 314 340 q 252 317 261 322 q 227 303 243 311 q 207 287 211 294 q 194 269 203 279 q 185 244 186 258 q 181 182 181 206 z "},"ã":{"ha":664,"x_min":56,"x_max":633,"o":"m 121 836 q 199 922 143 869 q 274 974 254 974 q 347 943 293 974 q 449 900 400 913 q 542 960 492 913 l 563 943 q 492 863 540 910 q 422 817 443 817 q 338 853 400 817 q 249 890 275 890 q 139 817 203 876 l 121 836 m 576 544 l 571 178 q 602 94 571 143 q 633 37 633 44 q 621 25 633 29 q 512 -7 524 -7 q 488 13 500 -7 q 467 63 476 33 q 456 93 457 92 q 404 58 435 79 q 362 30 374 38 q 328 11 350 22 q 290 -4 307 0 q 185 -14 251 -14 q 88 39 119 -14 q 56 154 56 92 q 65 254 56 217 q 97 317 75 292 q 142 358 119 342 q 205 387 164 375 q 276 405 246 399 q 360 422 306 411 q 447 439 414 432 l 449 522 q 403 614 449 586 q 292 642 357 642 q 203 609 228 642 q 149 469 178 576 l 92 475 q 133 644 92 596 q 242 717 183 703 q 360 731 300 731 q 464 717 421 731 q 528 685 507 703 q 562 638 550 668 q 575 590 574 608 q 576 544 576 572 m 181 182 q 274 79 181 79 q 439 149 356 79 q 449 250 449 157 q 447 385 449 343 q 384 364 422 376 q 330 346 346 351 q 288 331 314 340 q 252 317 261 322 q 227 303 243 311 q 207 287 211 294 q 194 269 203 279 q 185 244 186 258 q 181 182 181 206 z "},"ä":{"ha":664,"x_min":56,"x_max":633,"o":"m 217 811 q 207 811 217 811 q 167 846 196 811 q 139 897 139 881 q 162 954 139 913 q 210 996 185 996 q 265 970 235 996 q 296 911 296 944 q 267 844 296 878 q 217 811 239 811 m 477 811 q 466 811 477 811 q 427 846 456 811 q 399 897 399 881 q 422 954 399 913 q 471 996 446 996 q 526 970 496 996 q 557 911 557 944 q 528 844 557 878 q 477 811 499 811 m 576 544 l 571 178 q 602 94 571 143 q 633 37 633 44 q 621 25 633 29 q 512 -7 524 -7 q 488 13 500 -7 q 467 63 476 33 q 456 93 457 92 q 404 58 435 79 q 362 30 374 38 q 328 11 350 22 q 290 -4 307 0 q 185 -14 251 -14 q 88 39 119 -14 q 56 154 56 92 q 65 254 56 217 q 97 317 75 292 q 142 358 119 342 q 205 387 164 375 q 276 405 246 399 q 360 422 306 411 q 447 439 414 432 l 449 522 q 403 614 449 586 q 292 642 357 642 q 203 609 228 642 q 149 469 178 576 l 92 475 q 133 644 92 596 q 242 717 183 703 q 360 731 300 731 q 464 717 421 731 q 528 685 507 703 q 562 638 550 668 q 575 590 574 608 q 576 544 576 572 m 181 182 q 274 79 181 79 q 439 149 356 79 q 449 250 449 157 q 447 385 449 343 q 384 364 422 376 q 330 346 346 351 q 288 331 314 340 q 252 317 261 322 q 227 303 243 311 q 207 287 211 294 q 194 269 203 279 q 185 244 186 258 q 181 182 181 206 z "},"å":{"ha":664,"x_min":56,"x_max":633,"o":"m 224 911 q 244 982 224 950 q 292 1017 258 1001 q 360 1033 326 1033 q 425 1007 393 1033 q 457 926 457 981 q 435 839 457 871 q 376 792 396 800 q 331 783 356 783 q 224 911 224 783 m 351 829 q 371 831 367 829 q 401 913 401 843 q 392 961 401 946 q 333 988 376 988 q 307 985 315 988 q 282 903 282 976 q 351 829 282 829 m 576 544 l 571 178 q 602 94 571 143 q 633 37 633 44 q 621 25 633 29 q 512 -7 524 -7 q 488 13 500 -7 q 467 63 476 33 q 456 93 457 92 q 404 58 435 79 q 362 30 374 38 q 328 11 350 22 q 290 -4 307 0 q 185 -14 251 -14 q 88 39 119 -14 q 56 154 56 92 q 65 254 56 217 q 97 317 75 292 q 142 358 119 342 q 205 387 164 375 q 276 405 246 399 q 360 422 306 411 q 447 439 414 432 l 449 522 q 403 614 449 586 q 292 642 357 642 q 203 609 228 642 q 149 469 178 576 l 92 475 q 133 644 92 596 q 242 717 183 703 q 360 731 300 731 q 464 717 421 731 q 528 685 507 703 q 562 638 550 668 q 575 590 574 608 q 576 544 576 572 m 181 182 q 274 79 181 79 q 439 149 356 79 q 449 250 449 157 q 447 385 449 343 q 384 364 422 376 q 330 346 346 351 q 288 331 314 340 q 252 317 261 322 q 227 303 243 311 q 207 287 211 294 q 194 269 203 279 q 185 244 186 258 q 181 182 181 206 z "},"æ":{"ha":1056,"x_min":56,"x_max":1014,"o":"m 447 439 l 449 522 q 403 614 449 586 q 292 642 357 642 q 203 609 228 642 q 149 469 178 576 l 92 475 q 133 644 92 596 q 242 717 183 703 q 360 731 300 731 q 558 644 518 731 q 744 726 658 726 q 933 667 878 726 q 978 608 961 636 q 1003 536 996 579 q 1013 431 1013 467 l 1013 390 q 867 363 967 363 l 582 363 q 622 142 582 193 q 763 86 667 86 q 983 185 883 86 l 1014 153 q 988 126 1008 147 q 960 97 967 104 q 933 72 953 90 q 903 46 914 53 q 874 25 893 39 q 842 6 856 11 q 811 -8 829 0 q 735 -21 778 -21 q 493 118 565 -21 l 456 93 q 404 58 435 79 q 362 30 374 38 q 328 11 350 22 q 290 -4 307 0 q 185 -14 251 -14 q 88 39 119 -14 q 56 154 56 92 q 65 254 56 217 q 97 317 75 292 q 142 358 119 342 q 205 387 164 375 q 276 405 246 399 q 360 422 306 411 q 447 439 414 432 m 181 182 q 274 79 181 79 q 439 149 356 79 q 449 250 449 157 q 447 385 449 343 q 384 364 422 376 q 330 346 346 351 q 288 331 314 340 q 252 317 261 322 q 227 303 243 311 q 207 287 211 294 q 194 269 203 279 q 185 244 186 258 q 181 182 181 206 m 585 425 l 664 425 q 883 450 849 425 q 864 553 883 510 q 736 636 828 636 q 615 590 644 636 q 585 425 585 543 z "},"ç":{"ha":613,"x_min":42,"x_max":574,"o":"m 61 167 q 42 321 42 250 q 50 474 42 392 q 75 574 58 557 q 253 711 192 688 q 308 726 289 724 q 370 729 326 729 q 472 718 414 729 q 550 700 529 707 q 544 492 544 663 l 504 492 l 482 581 q 422 619 475 606 q 295 633 369 633 q 192 581 221 633 q 164 406 164 528 q 181 214 164 285 q 236 122 200 164 q 333 82 286 82 q 432 108 381 82 q 514 160 483 133 l 544 186 l 574 158 l 419 -10 l 401 -12 q 349 -21 376 -18 l 301 -21 l 293 -60 q 418 -165 418 -85 q 405 -220 418 -197 q 378 -253 392 -243 q 336 -276 364 -262 q 215 -286 304 -282 l 211 -233 q 313 -217 278 -233 q 347 -181 347 -201 q 320 -144 347 -160 q 246 -126 293 -128 l 229 -111 l 264 -15 q 158 22 207 -6 q 61 167 99 76 z "},"è":{"ha":649,"x_min":42,"x_max":607,"o":"m 129 993 q 155 1037 131 1018 q 208 1056 179 1056 q 421 806 340 890 l 399 776 q 259 881 344 811 q 129 993 174 950 m 72 554 q 179 666 94 606 q 333 726 264 726 q 450 711 401 726 q 526 666 499 696 q 572 608 554 636 q 594 536 589 579 q 606 431 606 467 l 606 390 q 460 363 561 363 l 175 363 q 197 172 175 214 q 281 96 231 111 q 356 86 313 86 q 576 185 476 86 l 607 153 q 581 126 601 147 q 553 97 560 104 q 526 72 546 90 q 497 46 507 53 q 467 25 486 39 q 435 6 449 11 q 403 -8 422 0 q 328 -21 371 -21 q 185 12 244 -21 q 97 100 126 44 q 42 342 42 201 q 72 554 42 482 m 178 425 l 257 425 q 476 450 442 425 q 457 553 476 510 q 329 636 421 636 q 208 590 238 636 q 178 425 178 543 z "},"é":{"ha":649,"x_min":42,"x_max":607,"o":"m 265 804 q 478 1054 346 889 q 532 1035 507 1054 q 558 992 557 1017 q 289 775 410 856 l 265 804 m 72 554 q 179 666 94 606 q 333 726 264 726 q 450 711 401 726 q 526 666 499 696 q 572 608 554 636 q 594 536 589 579 q 606 431 606 467 l 606 390 q 460 363 561 363 l 175 363 q 197 172 175 214 q 281 96 231 111 q 356 86 313 86 q 576 185 476 86 l 607 153 q 581 126 601 147 q 553 97 560 104 q 526 72 546 90 q 497 46 507 53 q 467 25 486 39 q 435 6 449 11 q 403 -8 422 0 q 328 -21 371 -21 q 185 12 244 -21 q 97 100 126 44 q 42 342 42 201 q 72 554 42 482 m 178 425 l 257 425 q 476 450 442 425 q 457 553 476 510 q 329 636 421 636 q 208 590 238 636 q 178 425 178 543 z "},"ê":{"ha":649,"x_min":42,"x_max":607,"o":"m 181 807 q 335 1044 282 954 l 390 1044 q 525 810 474 886 l 503 792 l 346 939 l 208 789 l 181 807 m 72 554 q 179 666 94 606 q 333 726 264 726 q 450 711 401 726 q 526 666 499 696 q 572 608 554 636 q 594 536 589 579 q 606 431 606 467 l 606 390 q 460 363 561 363 l 175 363 q 197 172 175 214 q 281 96 231 111 q 356 86 313 86 q 576 185 476 86 l 607 153 q 581 126 601 147 q 553 97 560 104 q 526 72 546 90 q 497 46 507 53 q 467 25 486 39 q 435 6 449 11 q 403 -8 422 0 q 328 -21 371 -21 q 185 12 244 -21 q 97 100 126 44 q 42 342 42 201 q 72 554 42 482 m 178 425 l 257 425 q 476 450 442 425 q 457 553 476 510 q 329 636 421 636 q 208 590 238 636 q 178 425 178 543 z "},"ë":{"ha":649,"x_min":42,"x_max":607,"o":"m 220 811 q 209 811 220 811 q 170 846 199 811 q 142 897 142 881 q 165 954 142 913 q 213 996 188 996 q 268 970 238 996 q 299 911 299 944 q 270 844 299 878 q 220 811 242 811 m 480 811 q 469 811 480 811 q 430 846 458 811 q 401 897 401 881 q 425 954 401 913 q 474 996 449 996 q 529 970 499 996 q 560 911 560 944 q 531 844 560 878 q 480 811 501 811 m 72 554 q 179 666 94 606 q 333 726 264 726 q 450 711 401 726 q 526 666 499 696 q 572 608 554 636 q 594 536 589 579 q 606 431 606 467 l 606 390 q 460 363 561 363 l 175 363 q 197 172 175 214 q 281 96 231 111 q 356 86 313 86 q 576 185 476 86 l 607 153 q 581 126 601 147 q 553 97 560 104 q 526 72 546 90 q 497 46 507 53 q 467 25 486 39 q 435 6 449 11 q 403 -8 422 0 q 328 -21 371 -21 q 185 12 244 -21 q 97 100 126 44 q 42 342 42 201 q 72 554 42 482 m 178 425 l 257 425 q 476 450 442 425 q 457 553 476 510 q 329 636 421 636 q 208 590 238 636 q 178 425 178 543 z "},"ì":{"ha":392,"x_min":-25,"x_max":364,"o":"m -25 993 q 1 1037 -24 1018 q 54 1056 25 1056 q 267 806 186 890 l 244 776 q 105 881 190 811 q -25 993 19 950 m 42 0 l 42 47 q 131 66 113 53 q 149 121 149 79 l 149 410 q 142 578 149 531 q 122 638 136 625 q 69 651 108 651 l 49 651 l 46 697 q 199 719 149 707 q 254 731 250 731 q 278 708 278 731 q 276 617 278 692 q 271 104 271 319 q 293 63 271 76 q 364 47 315 50 l 364 0 l 42 0 z "},"í":{"ha":392,"x_min":42,"x_max":404,"o":"m 111 804 q 324 1054 192 889 q 378 1035 353 1054 q 404 992 403 1017 q 135 775 256 856 l 111 804 m 42 0 l 42 47 q 131 66 113 53 q 149 121 149 79 l 149 410 q 142 578 149 531 q 122 638 136 625 q 69 651 108 651 l 49 651 l 46 697 q 199 719 149 707 q 254 731 250 731 q 278 708 278 731 q 276 617 278 692 q 271 104 271 319 q 293 63 271 76 q 364 47 315 50 l 364 0 l 42 0 z "},"î":{"ha":392,"x_min":26,"x_max":371,"o":"m 26 807 q 181 1044 128 954 l 236 1044 q 371 810 319 886 l 349 792 l 192 939 l 54 789 l 26 807 m 42 0 l 42 47 q 131 66 113 53 q 149 121 149 79 l 149 410 q 142 578 149 531 q 122 638 136 625 q 69 651 108 651 l 49 651 l 46 697 q 199 719 149 707 q 254 731 250 731 q 278 708 278 731 q 276 617 278 692 q 271 104 271 319 q 293 63 271 76 q 364 47 315 50 l 364 0 l 42 0 z "},"ï":{"ha":392,"x_min":-12,"x_max":406,"o":"m 42 0 l 42 47 q 131 66 113 53 q 149 121 149 79 l 149 410 q 142 578 149 531 q 122 638 136 625 q 69 651 108 651 l 49 651 l 46 697 q 199 719 149 707 q 254 731 250 731 q 278 708 278 731 q 276 617 278 692 q 271 104 271 319 q 293 63 271 76 q 364 47 315 50 l 364 0 l 42 0 m 66 811 q 55 811 66 811 q 16 846 44 811 q -12 897 -12 881 q 10 954 -12 913 q 58 996 33 996 q 114 970 83 996 q 144 911 144 944 q 116 844 144 878 q 66 811 88 811 m 326 811 q 315 811 326 811 q 276 846 304 811 q 247 897 247 881 q 271 954 247 913 q 319 996 294 996 q 375 970 344 996 q 406 911 406 944 q 376 844 406 878 q 326 811 347 811 z "},"ñ":{"ha":782,"x_min":44,"x_max":750,"o":"m 211 836 q 289 922 233 869 q 364 974 344 974 q 437 943 383 974 q 539 900 490 913 q 632 960 582 913 l 653 943 q 582 863 631 910 q 512 817 533 817 q 428 853 490 817 q 339 890 365 890 q 229 817 293 876 l 211 836 m 44 685 q 159 711 101 690 q 234 732 217 732 q 258 716 251 732 q 265 658 265 700 l 265 639 q 516 729 425 729 q 642 680 607 729 q 676 567 676 631 l 676 103 q 690 61 676 72 q 750 47 703 50 l 750 0 l 467 0 l 467 47 q 533 64 519 51 q 546 108 546 76 l 546 549 q 524 602 546 583 q 480 624 503 621 q 427 628 457 628 q 347 612 397 628 q 269 576 297 596 q 265 406 268 494 q 260 156 260 225 q 274 69 260 88 q 342 47 288 50 l 342 0 l 50 0 l 50 47 q 109 63 92 53 q 131 94 126 74 q 136 178 136 131 q 132 403 136 226 q 126 587 128 581 q 123 599 125 593 q 117 610 121 606 q 112 617 114 614 q 104 622 110 619 q 96 626 99 625 q 85 628 93 626 q 75 631 78 629 q 49 632 67 632 l 44 685 z "},"ò":{"ha":718,"x_min":42,"x_max":682,"o":"m 157 993 q 183 1037 158 1018 q 236 1056 207 1056 q 449 806 368 890 l 426 776 q 287 881 372 811 q 157 993 201 950 m 110 82 q 95 102 110 82 q 61 194 81 122 q 42 374 42 265 q 99 576 42 483 q 229 683 136 635 q 383 731 322 731 q 594 651 507 731 q 682 405 682 572 q 621 144 682 238 q 461 0 539 35 q 351 -24 408 -24 q 258 -16 294 -24 q 181 17 222 -8 q 110 82 140 42 m 174 356 q 174 281 174 356 q 231 140 174 206 q 399 75 289 75 q 460 82 440 75 q 556 371 556 119 q 524 544 556 489 q 417 622 493 599 q 346 632 378 632 q 299 631 314 632 q 261 622 285 629 q 225 599 238 615 q 199 556 213 583 q 174 356 174 506 z "},"ó":{"ha":718,"x_min":42,"x_max":682,"o":"m 293 804 q 506 1054 374 889 q 560 1035 535 1054 q 586 992 585 1017 q 317 775 438 856 l 293 804 m 110 82 q 95 102 110 82 q 61 194 81 122 q 42 374 42 265 q 99 576 42 483 q 229 683 136 635 q 383 731 322 731 q 594 651 507 731 q 682 405 682 572 q 621 144 682 238 q 461 0 539 35 q 351 -24 408 -24 q 258 -16 294 -24 q 181 17 222 -8 q 110 82 140 42 m 174 356 q 174 281 174 356 q 231 140 174 206 q 399 75 289 75 q 460 82 440 75 q 556 371 556 119 q 524 544 556 489 q 417 622 493 599 q 346 632 378 632 q 299 631 314 632 q 261 622 285 629 q 225 599 238 615 q 199 556 213 583 q 174 356 174 506 z "},"ô":{"ha":718,"x_min":42,"x_max":682,"o":"m 208 807 q 363 1044 310 954 l 418 1044 q 553 810 501 886 l 531 792 l 374 939 l 236 789 l 208 807 m 110 82 q 95 102 110 82 q 61 194 81 122 q 42 374 42 265 q 99 576 42 483 q 229 683 136 635 q 383 731 322 731 q 594 651 507 731 q 682 405 682 572 q 621 144 682 238 q 461 0 539 35 q 351 -24 408 -24 q 258 -16 294 -24 q 181 17 222 -8 q 110 82 140 42 m 174 356 q 174 281 174 356 q 231 140 174 206 q 399 75 289 75 q 460 82 440 75 q 556 371 556 119 q 524 544 556 489 q 417 622 493 599 q 346 632 378 632 q 299 631 314 632 q 261 622 285 629 q 225 599 238 615 q 199 556 213 583 q 174 356 174 506 z "},"õ":{"ha":718,"x_min":42,"x_max":682,"o":"m 151 836 q 229 922 174 869 q 304 974 285 974 q 377 943 324 974 q 479 900 431 913 q 572 960 522 913 l 593 943 q 522 863 571 910 q 452 817 474 817 q 368 853 431 817 q 279 890 306 890 q 169 817 233 876 l 151 836 m 110 82 q 95 102 110 82 q 61 194 81 122 q 42 374 42 265 q 99 576 42 483 q 229 683 136 635 q 383 731 322 731 q 594 651 507 731 q 682 405 682 572 q 621 144 682 238 q 461 0 539 35 q 351 -24 408 -24 q 258 -16 294 -24 q 181 17 222 -8 q 110 82 140 42 m 174 356 q 174 281 174 356 q 231 140 174 206 q 399 75 289 75 q 460 82 440 75 q 556 371 556 119 q 524 544 556 489 q 417 622 493 599 q 346 632 378 632 q 299 631 314 632 q 261 622 285 629 q 225 599 238 615 q 199 556 213 583 q 174 356 174 506 z "},"ö":{"ha":718,"x_min":42,"x_max":682,"o":"m 248 811 q 237 811 248 811 q 198 846 226 811 q 169 897 169 881 q 192 954 169 913 q 240 996 215 996 q 296 970 265 996 q 326 911 326 944 q 298 844 326 878 q 248 811 269 811 m 508 811 q 497 811 508 811 q 458 846 486 811 q 429 897 429 881 q 453 954 429 913 q 501 996 476 996 q 557 970 526 996 q 588 911 588 944 q 558 844 588 878 q 508 811 529 811 m 110 82 q 95 102 110 82 q 61 194 81 122 q 42 374 42 265 q 99 576 42 483 q 229 683 136 635 q 383 731 322 731 q 594 651 507 731 q 682 405 682 572 q 621 144 682 238 q 461 0 539 35 q 351 -24 408 -24 q 258 -16 294 -24 q 181 17 222 -8 q 110 82 140 42 m 174 356 q 174 281 174 356 q 231 140 174 206 q 399 75 289 75 q 460 82 440 75 q 556 371 556 119 q 524 544 556 489 q 417 622 493 599 q 346 632 378 632 q 299 631 314 632 q 261 622 285 629 q 225 599 238 615 q 199 556 213 583 q 174 356 174 506 z "},"ø":{"ha":718,"x_min":42,"x_max":682,"o":"m 42 361 q 99 576 42 483 q 229 683 136 635 q 385 731 322 731 q 508 707 449 731 l 553 796 l 601 769 l 557 681 q 682 417 682 596 q 621 144 682 238 q 461 0 539 35 q 340 -24 408 -24 q 217 -3 272 -24 l 175 -87 l 128 -62 l 169 22 q 42 361 42 113 m 229 142 l 458 606 l 417 622 q 346 632 378 632 q 299 631 314 632 q 261 622 285 629 q 225 599 238 615 q 199 556 213 583 q 174 359 174 506 q 229 142 174 213 m 271 104 q 378 75 317 75 q 460 82 440 75 q 556 371 556 119 q 503 572 556 515 l 271 104 z "},"ù":{"ha":772,"x_min":31,"x_max":731,"o":"m 172 993 q 198 1037 174 1018 q 251 1056 222 1056 q 464 806 383 890 l 442 776 q 302 881 388 811 q 172 993 217 950 m 543 206 l 546 535 q 528 644 546 635 q 493 650 518 650 l 449 650 l 446 696 q 602 717 554 706 q 654 729 650 729 q 679 708 679 729 q 674 368 679 533 q 668 172 668 203 q 699 92 668 142 q 731 35 731 43 q 718 24 731 28 q 609 -8 621 -8 q 585 12 597 -8 q 564 61 574 32 q 553 92 554 90 q 400 10 469 33 q 288 -12 331 -12 q 199 28 246 -12 q 138 128 153 68 q 124 300 124 172 l 124 524 q 111 619 124 558 q 93 636 108 629 q 69 644 78 643 q 33 644 61 644 l 31 692 q 171 715 119 701 q 228 729 222 729 q 253 708 253 729 l 247 303 q 259 167 247 200 q 297 115 271 133 q 348 97 322 97 q 420 107 374 97 q 497 133 467 117 q 535 160 526 149 q 543 206 543 172 z "},"ú":{"ha":772,"x_min":31,"x_max":731,"o":"m 308 804 q 521 1054 389 889 q 575 1035 550 1054 q 601 992 600 1017 q 332 775 453 856 l 308 804 m 543 206 l 546 535 q 528 644 546 635 q 493 650 518 650 l 449 650 l 446 696 q 602 717 554 706 q 654 729 650 729 q 679 708 679 729 q 674 368 679 533 q 668 172 668 203 q 699 92 668 142 q 731 35 731 43 q 718 24 731 28 q 609 -8 621 -8 q 585 12 597 -8 q 564 61 574 32 q 553 92 554 90 q 400 10 469 33 q 288 -12 331 -12 q 199 28 246 -12 q 138 128 153 68 q 124 300 124 172 l 124 524 q 111 619 124 558 q 93 636 108 629 q 69 644 78 643 q 33 644 61 644 l 31 692 q 171 715 119 701 q 228 729 222 729 q 253 708 253 729 l 247 303 q 259 167 247 200 q 297 115 271 133 q 348 97 322 97 q 420 107 374 97 q 497 133 467 117 q 535 160 526 149 q 543 206 543 172 z "},"û":{"ha":772,"x_min":31,"x_max":731,"o":"m 224 807 q 378 1044 325 954 l 433 1044 q 568 810 517 886 l 546 792 l 389 939 l 251 789 l 224 807 m 543 206 l 546 535 q 528 644 546 635 q 493 650 518 650 l 449 650 l 446 696 q 602 717 554 706 q 654 729 650 729 q 679 708 679 729 q 674 368 679 533 q 668 172 668 203 q 699 92 668 142 q 731 35 731 43 q 718 24 731 28 q 609 -8 621 -8 q 585 12 597 -8 q 564 61 574 32 q 553 92 554 90 q 400 10 469 33 q 288 -12 331 -12 q 199 28 246 -12 q 138 128 153 68 q 124 300 124 172 l 124 524 q 111 619 124 558 q 93 636 108 629 q 69 644 78 643 q 33 644 61 644 l 31 692 q 171 715 119 701 q 228 729 222 729 q 253 708 253 729 l 247 303 q 259 167 247 200 q 297 115 271 133 q 348 97 322 97 q 420 107 374 97 q 497 133 467 117 q 535 160 526 149 q 543 206 543 172 z "},"ü":{"ha":772,"x_min":31,"x_max":731,"o":"m 263 811 q 252 811 263 811 q 213 846 242 811 q 185 897 185 881 q 208 954 185 913 q 256 996 231 996 q 311 970 281 996 q 342 911 342 944 q 313 844 342 878 q 263 811 285 811 m 523 811 q 512 811 523 811 q 473 846 501 811 q 444 897 444 881 q 468 954 444 913 q 517 996 492 996 q 572 970 542 996 q 603 911 603 944 q 574 844 603 878 q 523 811 544 811 m 543 206 l 546 535 q 528 644 546 635 q 493 650 518 650 l 449 650 l 446 696 q 602 717 554 706 q 654 729 650 729 q 679 708 679 729 q 674 368 679 533 q 668 172 668 203 q 699 92 668 142 q 731 35 731 43 q 718 24 731 28 q 609 -8 621 -8 q 585 12 597 -8 q 564 61 574 32 q 553 92 554 90 q 400 10 469 33 q 288 -12 331 -12 q 199 28 246 -12 q 138 128 153 68 q 124 300 124 172 l 124 524 q 111 619 124 558 q 93 636 108 629 q 69 644 78 643 q 33 644 61 644 l 31 692 q 171 715 119 701 q 228 729 222 729 q 253 708 253 729 l 247 303 q 259 167 247 200 q 297 115 271 133 q 348 97 322 97 q 420 107 374 97 q 497 133 467 117 q 535 160 526 149 q 543 206 543 172 z "},"ý":{"ha":683,"x_min":0,"x_max":683,"o":"m 288 804 q 500 1054 368 889 q 554 1035 529 1054 q 581 992 579 1017 q 311 775 432 856 l 288 804 m 572 707 l 664 713 q 683 692 683 713 q 681 684 683 688 q 674 672 679 681 q 662 652 669 664 q 641 615 654 640 q 611 556 628 589 q 515 335 579 489 q 315 -214 389 18 q 291 -279 297 -269 q 268 -289 285 -289 q 176 -249 176 -289 q 226 -148 176 -226 q 275 -22 275 -69 q 195 306 275 25 q 82 625 115 586 q 52 645 68 643 q 22 648 36 647 q 3 650 8 649 l 0 696 q 142 722 92 708 q 199 735 193 735 q 222 714 222 735 q 331 278 222 674 l 368 146 q 515 619 515 539 q 490 657 515 657 q 465 685 465 657 q 513 710 465 710 l 572 707 z "},"ÿ":{"ha":683,"x_min":0,"x_max":683,"o":"m 242 811 q 232 811 242 811 q 192 846 221 811 q 164 897 164 881 q 187 954 164 913 q 235 996 210 996 q 290 970 260 996 q 321 911 321 944 q 292 844 321 878 q 242 811 264 811 m 502 811 q 491 811 502 811 q 452 846 481 811 q 424 897 424 881 q 447 954 424 913 q 496 996 471 996 q 551 970 521 996 q 582 911 582 944 q 553 844 582 878 q 502 811 524 811 m 572 707 l 664 713 q 683 692 683 713 q 681 684 683 688 q 674 672 679 681 q 662 652 669 664 q 641 615 654 640 q 611 556 628 589 q 515 335 579 489 q 315 -214 389 18 q 291 -279 297 -269 q 268 -289 285 -289 q 176 -249 176 -289 q 226 -148 176 -226 q 275 -22 275 -69 q 195 306 275 25 q 82 625 115 586 q 52 645 68 643 q 22 648 36 647 q 3 650 8 649 l 0 696 q 142 722 92 708 q 199 735 193 735 q 222 714 222 735 q 331 278 222 674 l 368 146 q 515 619 515 539 q 490 657 515 657 q 465 685 465 657 q 513 710 465 710 l 572 707 z "},"Ā":{"ha":1049,"x_min":0,"x_max":1049,"o":"m 349 1153 l 367 1238 l 696 1238 l 679 1153 l 349 1153 m 0 0 l 0 50 q 68 70 46 54 q 115 131 90 86 q 186 292 140 176 l 475 1014 q 520 1026 485 1021 q 569 1032 556 1032 q 937 131 925 153 q 959 95 949 108 q 993 68 969 82 q 1049 50 1017 54 l 1049 0 l 651 0 l 651 47 q 775 108 775 57 q 746 213 775 146 l 719 274 q 690 346 703 311 l 289 346 q 233 209 264 289 q 203 115 203 129 q 328 54 203 65 l 328 0 l 0 0 m 308 406 l 672 406 l 488 863 l 308 406 z "},"ā":{"ha":664,"x_min":56,"x_max":633,"o":"m 167 836 l 185 921 l 514 921 l 497 836 l 167 836 m 576 544 l 571 178 q 602 94 571 143 q 633 37 633 44 q 621 25 633 29 q 512 -7 524 -7 q 488 13 500 -7 q 467 63 476 33 q 456 93 457 92 q 404 58 435 79 q 362 30 374 38 q 328 11 350 22 q 290 -4 307 0 q 185 -14 251 -14 q 88 39 119 -14 q 56 154 56 92 q 65 254 56 217 q 97 317 75 292 q 142 358 119 342 q 205 387 164 375 q 276 405 246 399 q 360 422 306 411 q 447 439 414 432 l 449 522 q 403 614 449 586 q 292 642 357 642 q 203 609 228 642 q 149 469 178 576 l 92 475 q 133 644 92 596 q 242 717 183 703 q 360 731 300 731 q 464 717 421 731 q 528 685 507 703 q 562 638 550 668 q 575 590 574 608 q 576 544 576 572 m 181 182 q 274 79 181 79 q 439 149 356 79 q 449 250 449 157 q 447 385 449 343 q 384 364 422 376 q 330 346 346 351 q 288 331 314 340 q 252 317 261 322 q 227 303 243 311 q 207 287 211 294 q 194 269 203 279 q 185 244 186 258 q 181 182 181 206 z "},"Ă":{"ha":1049,"x_min":0,"x_max":1049,"o":"m 346 1269 l 422 1304 l 439 1288 q 551 1203 485 1203 q 681 1307 618 1203 l 724 1288 q 521 1122 640 1122 q 418 1162 465 1122 q 346 1269 371 1201 m 0 0 l 0 50 q 68 70 46 54 q 115 131 90 86 q 186 292 140 176 l 475 1014 q 520 1026 485 1021 q 569 1032 556 1032 q 937 131 925 153 q 959 95 949 108 q 993 68 969 82 q 1049 50 1017 54 l 1049 0 l 651 0 l 651 47 q 775 108 775 57 q 746 213 775 146 l 719 274 q 690 346 703 311 l 289 346 q 233 209 264 289 q 203 115 203 129 q 328 54 203 65 l 328 0 l 0 0 m 308 406 l 672 406 l 488 863 l 308 406 z "},"ă":{"ha":664,"x_min":56,"x_max":633,"o":"m 164 953 l 240 988 l 257 971 q 369 886 303 886 q 499 990 436 886 l 542 971 q 339 806 458 806 q 236 845 283 806 q 164 953 189 885 m 576 544 l 571 178 q 602 94 571 143 q 633 37 633 44 q 621 25 633 29 q 512 -7 524 -7 q 488 13 500 -7 q 467 63 476 33 q 456 93 457 92 q 404 58 435 79 q 362 30 374 38 q 328 11 350 22 q 290 -4 307 0 q 185 -14 251 -14 q 88 39 119 -14 q 56 154 56 92 q 65 254 56 217 q 97 317 75 292 q 142 358 119 342 q 205 387 164 375 q 276 405 246 399 q 360 422 306 411 q 447 439 414 432 l 449 522 q 403 614 449 586 q 292 642 357 642 q 203 609 228 642 q 149 469 178 576 l 92 475 q 133 644 92 596 q 242 717 183 703 q 360 731 300 731 q 464 717 421 731 q 528 685 507 703 q 562 638 550 668 q 575 590 574 608 q 576 544 576 572 m 181 182 q 274 79 181 79 q 439 149 356 79 q 449 250 449 157 q 447 385 449 343 q 384 364 422 376 q 330 346 346 351 q 288 331 314 340 q 252 317 261 322 q 227 303 243 311 q 207 287 211 294 q 194 269 203 279 q 185 244 186 258 q 181 182 181 206 z "},"Ć":{"ha":938,"x_min":58,"x_max":872,"o":"m 465 1149 q 718 1357 571 1225 q 765 1332 744 1353 q 786 1288 786 1311 l 786 1282 q 639 1195 735 1249 q 483 1115 543 1142 l 465 1149 m 804 744 l 758 896 q 736 932 750 922 q 529 958 635 958 q 264 860 331 958 q 197 503 197 763 q 382 100 197 213 q 565 53 461 53 q 761 124 668 53 q 801 247 775 149 l 821 322 l 872 322 q 867 46 867 265 q 522 -24 679 -24 q 192 89 315 -24 q 58 508 58 211 q 107 794 58 681 q 226 941 136 863 q 435 1035 317 1019 q 597 1044 506 1044 q 850 1004 776 1044 l 865 989 q 853 744 865 919 l 804 744 z "},"ć":{"ha":613,"x_min":42,"x_max":574,"o":"m 258 804 q 471 1054 339 889 q 525 1035 500 1054 q 551 992 550 1017 q 282 775 403 856 l 258 804 m 61 167 q 42 347 42 250 q 60 532 42 443 q 108 606 69 574 q 222 692 171 664 q 297 725 272 721 q 368 729 321 729 q 474 718 415 729 q 550 700 532 707 q 546 492 546 658 l 504 492 q 483 579 490 553 q 422 619 475 606 q 296 633 369 633 q 194 581 222 633 q 165 378 165 528 q 199 172 165 243 q 354 88 238 88 q 443 112 396 88 q 517 161 490 136 l 544 186 l 574 158 q 478 56 519 92 q 417 8 438 19 q 158 22 299 -53 q 61 167 101 74 z "},"Ĉ":{"ha":938,"x_min":58,"x_max":872,"o":"m 407 1126 q 549 1297 478 1201 l 604 1297 q 740 1128 664 1210 l 714 1104 l 571 1199 l 432 1101 l 407 1126 m 804 744 l 758 896 q 736 932 750 922 q 529 958 635 958 q 264 860 331 958 q 197 503 197 763 q 382 100 197 213 q 565 53 461 53 q 761 124 668 53 q 801 247 775 149 l 821 322 l 872 322 q 867 46 867 265 q 522 -24 679 -24 q 192 89 315 -24 q 58 508 58 211 q 107 794 58 681 q 226 941 136 863 q 435 1035 317 1019 q 597 1044 506 1044 q 850 1004 776 1044 l 865 989 q 853 744 865 919 l 804 744 z "},"ĉ":{"ha":613,"x_min":42,"x_max":574,"o":"m 174 807 q 328 1044 275 954 l 383 1044 q 518 810 467 886 l 496 792 l 339 939 l 201 789 l 174 807 m 61 167 q 42 347 42 250 q 60 532 42 443 q 108 606 69 574 q 222 692 171 664 q 297 725 272 721 q 368 729 321 729 q 474 718 415 729 q 550 700 532 707 q 546 492 546 658 l 504 492 q 483 579 490 553 q 422 619 475 606 q 296 633 369 633 q 194 581 222 633 q 165 378 165 528 q 199 172 165 243 q 354 88 238 88 q 443 112 396 88 q 517 161 490 136 l 544 186 l 574 158 q 478 56 519 92 q 417 8 438 19 q 158 22 299 -53 q 61 167 101 74 z "},"Ċ":{"ha":938,"x_min":58,"x_max":872,"o":"m 564 1129 q 553 1129 564 1129 q 514 1163 542 1129 q 486 1213 486 1197 q 509 1271 486 1229 q 557 1313 532 1313 q 613 1287 582 1313 q 643 1228 643 1261 q 615 1162 643 1194 q 564 1129 586 1129 m 804 744 l 758 896 q 736 932 750 922 q 529 958 635 958 q 264 860 331 958 q 197 503 197 763 q 382 100 197 213 q 565 53 461 53 q 761 124 668 53 q 801 247 775 149 l 821 322 l 872 322 q 867 46 867 265 q 522 -24 679 -24 q 192 89 315 -24 q 58 508 58 211 q 107 794 58 681 q 226 941 136 863 q 435 1035 317 1019 q 597 1044 506 1044 q 850 1004 776 1044 l 865 989 q 853 744 865 919 l 804 744 z "},"ċ":{"ha":613,"x_min":42,"x_max":574,"o":"m 336 813 q 325 813 336 813 q 286 847 314 813 q 258 897 258 881 q 281 954 258 913 q 329 996 304 996 q 385 970 354 996 q 415 911 415 944 q 387 845 415 878 q 336 813 358 813 m 61 167 q 42 347 42 250 q 60 532 42 443 q 108 606 69 574 q 222 692 171 664 q 297 725 272 721 q 368 729 321 729 q 474 718 415 729 q 550 700 532 707 q 546 492 546 658 l 504 492 q 483 579 490 553 q 422 619 475 606 q 296 633 369 633 q 194 581 222 633 q 165 378 165 528 q 199 172 165 243 q 354 88 238 88 q 443 112 396 88 q 517 161 490 136 l 544 186 l 574 158 q 478 56 519 92 q 417 8 438 19 q 158 22 299 -53 q 61 167 101 74 z "},"Č":{"ha":938,"x_min":58,"x_max":872,"o":"m 408 1258 l 442 1296 l 578 1201 l 715 1296 l 736 1272 q 592 1103 635 1165 l 536 1103 q 408 1258 490 1167 m 804 744 l 758 896 q 736 932 750 922 q 529 958 635 958 q 264 860 331 958 q 197 503 197 763 q 382 100 197 213 q 565 53 461 53 q 761 124 668 53 q 801 247 775 149 l 821 322 l 872 322 q 867 46 867 265 q 522 -24 679 -24 q 192 89 315 -24 q 58 508 58 211 q 107 794 58 681 q 226 941 136 863 q 435 1035 317 1019 q 597 1044 506 1044 q 850 1004 776 1044 l 865 989 q 853 744 865 919 l 804 744 z "},"č":{"ha":613,"x_min":42,"x_max":574,"o":"m 543 1017 q 365 786 488 949 l 310 786 q 160 994 290 821 l 197 1039 l 354 892 l 526 1042 l 543 1017 m 61 167 q 42 347 42 250 q 60 532 42 443 q 108 606 69 574 q 222 692 171 664 q 297 725 272 721 q 368 729 321 729 q 474 718 415 729 q 550 700 532 707 q 546 492 546 658 l 504 492 q 483 579 490 553 q 422 619 475 606 q 296 633 369 633 q 194 581 222 633 q 165 378 165 528 q 199 172 165 243 q 354 88 238 88 q 443 112 396 88 q 517 161 490 136 l 544 186 l 574 158 q 478 56 519 92 q 417 8 438 19 q 158 22 299 -53 q 61 167 101 74 z "},"Ď":{"ha":1078,"x_min":40,"x_max":1021,"o":"m 393 1258 l 426 1296 l 563 1201 l 700 1296 l 721 1272 q 576 1103 619 1165 l 521 1103 q 393 1258 475 1167 m 524 -8 l 233 6 q 40 0 115 6 l 40 51 q 105 58 82 54 q 147 76 128 63 q 165 115 165 90 q 156 918 165 596 q 134 959 154 949 q 60 972 114 969 l 40 974 l 40 1025 q 240 1019 115 1019 q 446 1026 364 1019 q 557 1033 528 1033 l 586 1033 q 917 922 813 1033 q 1021 568 1021 811 q 991 342 1021 443 q 913 176 961 240 q 803 69 865 113 q 553 -8 688 -8 l 524 -8 m 300 194 q 355 101 300 125 q 575 78 410 78 q 725 115 676 78 q 826 244 774 151 q 878 524 878 338 q 788 858 878 751 q 506 964 699 964 q 326 949 372 964 l 311 933 q 300 194 300 639 z "},"ď":{"ha":894,"x_min":42,"x_max":908,"o":"m 731 986 q 759 1051 739 1013 q 800 1108 779 1090 q 908 1022 875 1068 q 877 902 908 988 q 789 756 846 817 l 756 775 q 814 915 814 861 q 753 978 814 954 l 731 986 m 496 714 l 493 922 q 492 984 493 967 q 478 1014 492 1001 q 452 1027 465 1026 q 396 1029 439 1028 l 393 1075 q 549 1097 499 1085 q 603 1108 599 1108 q 626 1086 626 1108 q 622 513 626 788 q 617 191 617 239 q 652 90 617 143 q 688 35 688 38 q 676 27 688 32 q 646 17 664 22 q 599 -1 628 11 q 560 -14 571 -14 q 538 9 549 -14 q 516 60 526 32 q 499 94 506 88 q 314 -21 394 -21 q 153 56 244 -21 q 74 167 106 93 q 42 326 42 240 q 50 469 42 413 q 68 558 58 526 q 98 614 78 589 q 128 647 118 639 q 163 669 139 656 l 210 697 q 341 733 269 733 q 496 714 413 733 m 164 404 q 164 324 164 404 q 219 172 164 244 q 353 99 274 99 q 497 161 432 99 q 495 506 497 404 q 493 614 493 608 q 329 653 428 653 q 262 645 288 653 q 211 611 236 638 q 164 404 164 564 z "},"Ē":{"ha":889,"x_min":40,"x_max":831,"o":"m 290 1153 l 308 1238 l 638 1238 l 621 1153 l 290 1153 m 40 0 l 40 51 q 105 58 82 54 q 147 76 128 63 q 165 115 165 90 q 171 538 171 293 q 165 918 171 783 q 144 959 164 949 q 71 972 124 969 l 51 974 l 51 1025 q 240 1019 126 1019 q 417 1024 354 1019 l 782 1025 l 799 1010 q 779 883 796 999 q 761 753 763 768 l 714 753 q 681 912 688 894 q 661 939 675 929 q 494 951 615 951 q 347 942 372 951 q 321 904 322 933 q 315 574 318 829 q 657 581 511 574 l 643 478 l 619 478 q 314 514 569 514 q 311 115 311 308 q 361 72 311 82 q 540 61 411 61 q 689 78 668 61 q 760 247 724 108 l 779 322 l 831 322 q 822 154 826 286 q 818 0 818 22 l 40 0 z "},"ē":{"ha":649,"x_min":42,"x_max":607,"o":"m 169 836 l 188 921 l 517 921 l 500 836 l 169 836 m 72 554 q 179 666 94 606 q 333 726 264 726 q 450 711 401 726 q 526 666 499 696 q 572 608 554 636 q 594 536 589 579 q 606 431 606 467 l 606 390 q 460 363 561 363 l 175 363 q 197 172 175 214 q 281 96 231 111 q 356 86 313 86 q 576 185 476 86 l 607 153 q 581 126 601 147 q 553 97 560 104 q 526 72 546 90 q 497 46 507 53 q 467 25 486 39 q 435 6 449 11 q 403 -8 422 0 q 328 -21 371 -21 q 185 12 244 -21 q 97 100 126 44 q 42 342 42 201 q 72 554 42 482 m 178 425 l 257 425 q 476 450 442 425 q 457 553 476 510 q 329 636 421 636 q 208 590 238 636 q 178 425 178 543 z "},"Ĕ":{"ha":889,"x_min":40,"x_max":831,"o":"m 288 1269 l 364 1304 l 381 1288 q 493 1203 426 1203 q 622 1307 560 1203 l 665 1288 q 463 1122 582 1122 q 360 1162 407 1122 q 288 1269 313 1201 m 40 0 l 40 51 q 105 58 82 54 q 147 76 128 63 q 165 115 165 90 q 171 538 171 293 q 165 918 171 783 q 144 959 164 949 q 71 972 124 969 l 51 974 l 51 1025 q 240 1019 126 1019 q 417 1024 354 1019 l 782 1025 l 799 1010 q 779 883 796 999 q 761 753 763 768 l 714 753 q 681 912 688 894 q 661 939 675 929 q 494 951 615 951 q 347 942 372 951 q 321 904 322 933 q 315 574 318 829 q 657 581 511 574 l 643 478 l 619 478 q 314 514 569 514 q 311 115 311 308 q 361 72 311 82 q 540 61 411 61 q 689 78 668 61 q 760 247 724 108 l 779 322 l 831 322 q 822 154 826 286 q 818 0 818 22 l 40 0 z "},"ĕ":{"ha":649,"x_min":42,"x_max":607,"o":"m 167 953 l 243 988 l 260 971 q 372 886 306 886 q 501 990 439 886 l 544 971 q 342 806 461 806 q 239 845 286 806 q 167 953 192 885 m 72 554 q 179 666 94 606 q 333 726 264 726 q 450 711 401 726 q 526 666 499 696 q 572 608 554 636 q 594 536 589 579 q 606 431 606 467 l 606 390 q 460 363 561 363 l 175 363 q 197 172 175 214 q 281 96 231 111 q 356 86 313 86 q 576 185 476 86 l 607 153 q 581 126 601 147 q 553 97 560 104 q 526 72 546 90 q 497 46 507 53 q 467 25 486 39 q 435 6 449 11 q 403 -8 422 0 q 328 -21 371 -21 q 185 12 244 -21 q 97 100 126 44 q 42 342 42 201 q 72 554 42 482 m 178 425 l 257 425 q 476 450 442 425 q 457 553 476 510 q 329 636 421 636 q 208 590 238 636 q 178 425 178 543 z "},"Ė":{"ha":889,"x_min":40,"x_max":831,"o":"m 464 1129 q 453 1129 464 1129 q 414 1163 442 1129 q 386 1213 386 1197 q 409 1271 386 1229 q 457 1313 432 1313 q 513 1287 482 1313 q 543 1228 543 1261 q 515 1162 543 1194 q 464 1129 486 1129 m 40 0 l 40 51 q 105 58 82 54 q 147 76 128 63 q 165 115 165 90 q 171 538 171 293 q 165 918 171 783 q 144 959 164 949 q 71 972 124 969 l 51 974 l 51 1025 q 240 1019 126 1019 q 417 1024 354 1019 l 782 1025 l 799 1010 q 779 883 796 999 q 761 753 763 768 l 714 753 q 681 912 688 894 q 661 939 675 929 q 494 951 615 951 q 347 942 372 951 q 321 904 322 933 q 315 574 318 829 q 657 581 511 574 l 643 478 l 619 478 q 314 514 569 514 q 311 115 311 308 q 361 72 311 82 q 540 61 411 61 q 689 78 668 61 q 760 247 724 108 l 779 322 l 831 322 q 822 154 826 286 q 818 0 818 22 l 40 0 z "},"ė":{"ha":649,"x_min":42,"x_max":607,"o":"m 343 813 q 332 813 343 813 q 293 847 321 813 q 265 897 265 881 q 288 954 265 913 q 336 996 311 996 q 392 970 361 996 q 422 911 422 944 q 394 845 422 878 q 343 813 365 813 m 72 554 q 179 666 94 606 q 333 726 264 726 q 450 711 401 726 q 526 666 499 696 q 572 608 554 636 q 594 536 589 579 q 606 431 606 467 l 606 390 q 460 363 561 363 l 175 363 q 197 172 175 214 q 281 96 231 111 q 356 86 313 86 q 576 185 476 86 l 607 153 q 581 126 601 147 q 553 97 560 104 q 526 72 546 90 q 497 46 507 53 q 467 25 486 39 q 435 6 449 11 q 403 -8 422 0 q 328 -21 371 -21 q 185 12 244 -21 q 97 100 126 44 q 42 342 42 201 q 72 554 42 482 m 178 425 l 257 425 q 476 450 442 425 q 457 553 476 510 q 329 636 421 636 q 208 590 238 636 q 178 425 178 543 z "},"Ě":{"ha":889,"x_min":40,"x_max":831,"o":"m 308 1258 l 342 1296 l 478 1201 l 615 1296 l 636 1272 q 492 1103 535 1165 l 436 1103 q 308 1258 390 1167 m 40 0 l 40 51 q 105 58 82 54 q 147 76 128 63 q 165 115 165 90 q 171 538 171 293 q 165 918 171 783 q 144 959 164 949 q 71 972 124 969 l 51 974 l 51 1025 q 240 1019 126 1019 q 417 1024 354 1019 l 782 1025 l 799 1010 q 779 883 796 999 q 761 753 763 768 l 714 753 q 681 912 688 894 q 661 939 675 929 q 494 951 615 951 q 347 942 372 951 q 321 904 322 933 q 315 574 318 829 q 657 581 511 574 l 643 478 l 619 478 q 314 514 569 514 q 311 115 311 308 q 361 72 311 82 q 540 61 411 61 q 689 78 668 61 q 760 247 724 108 l 779 322 l 831 322 q 822 154 826 286 q 818 0 818 22 l 40 0 z "},"ě":{"ha":649,"x_min":42,"x_max":607,"o":"m 550 1017 q 372 786 494 949 l 317 786 q 167 994 297 821 l 204 1039 l 361 892 l 533 1042 l 550 1017 m 72 554 q 179 666 94 606 q 333 726 264 726 q 450 711 401 726 q 526 666 499 696 q 572 608 554 636 q 594 536 589 579 q 606 431 606 467 l 606 390 q 460 363 561 363 l 175 363 q 197 172 175 214 q 281 96 231 111 q 356 86 313 86 q 576 185 476 86 l 607 153 q 581 126 601 147 q 553 97 560 104 q 526 72 546 90 q 497 46 507 53 q 467 25 486 39 q 435 6 449 11 q 403 -8 422 0 q 328 -21 371 -21 q 185 12 244 -21 q 97 100 126 44 q 42 342 42 201 q 72 554 42 482 m 178 425 l 257 425 q 476 450 442 425 q 457 553 476 510 q 329 636 421 636 q 208 590 238 636 q 178 425 178 543 z "},"Ĝ":{"ha":1051,"x_min":58,"x_max":1033,"o":"m 415 1126 q 557 1297 486 1201 l 613 1297 q 749 1128 672 1210 l 722 1104 l 579 1199 l 440 1101 l 415 1126 m 58 519 q 107 794 58 681 q 226 941 136 863 q 435 1035 317 1019 q 592 1044 506 1044 q 778 1033 679 1044 q 906 1004 876 1021 l 922 989 q 910 744 922 919 l 861 744 q 811 904 824 872 q 703 940 783 922 q 531 958 622 958 q 265 861 332 958 q 197 503 197 764 q 594 67 197 67 q 799 126 735 67 l 799 319 q 761 363 799 351 q 685 375 726 372 l 650 378 l 649 425 q 841 419 724 419 q 1033 425 958 419 l 1033 374 l 1014 372 q 948 360 967 369 q 929 329 929 350 l 929 71 l 914 56 q 522 -24 690 -24 q 192 89 315 -24 q 58 519 58 211 z "},"ĝ":{"ha":660,"x_min":14,"x_max":660,"o":"m 185 807 q 339 1044 286 954 l 394 1044 q 529 810 478 886 l 507 792 l 350 939 l 213 789 l 185 807 m 14 -115 q 94 19 14 -35 q 192 71 133 46 q 82 146 82 86 q 206 246 82 208 q 104 313 135 278 q 61 415 74 349 q 60 442 60 421 q 82 565 60 517 q 188 670 104 613 q 360 728 271 728 q 517 672 450 728 q 651 690 585 675 l 660 682 l 660 624 l 550 624 q 569 563 561 608 q 578 469 578 517 q 497 300 578 374 q 322 236 425 258 q 208 157 208 207 q 225 124 208 138 q 268 110 242 110 l 433 110 q 560 96 525 110 q 627 40 594 82 q 660 -45 660 -1 q 640 -127 660 -89 q 581 -201 621 -165 q 468 -260 542 -237 q 324 -283 394 -283 q 208 -276 253 -283 q 117 -251 163 -268 q 42 -198 71 -233 q 14 -115 14 -162 m 133 -75 q 194 -184 133 -139 q 322 -229 256 -229 q 476 -183 425 -229 q 526 -64 526 -137 q 364 42 526 42 q 133 -75 133 42 m 188 450 q 224 346 188 386 q 328 306 260 306 q 421 342 396 306 q 446 473 446 378 q 418 600 446 568 q 310 642 390 632 q 290 643 303 643 q 213 601 239 643 q 188 450 188 558 z "},"Ğ":{"ha":1051,"x_min":58,"x_max":1033,"o":"m 396 1269 l 472 1304 l 489 1288 q 601 1203 535 1203 q 731 1307 668 1203 l 774 1288 q 571 1122 690 1122 q 468 1162 515 1122 q 396 1269 421 1201 m 58 519 q 107 794 58 681 q 226 941 136 863 q 435 1035 317 1019 q 592 1044 506 1044 q 778 1033 679 1044 q 906 1004 876 1021 l 922 989 q 910 744 922 919 l 861 744 q 811 904 824 872 q 703 940 783 922 q 531 958 622 958 q 265 861 332 958 q 197 503 197 764 q 594 67 197 67 q 799 126 735 67 l 799 319 q 761 363 799 351 q 685 375 726 372 l 650 378 l 649 425 q 841 419 724 419 q 1033 425 958 419 l 1033 374 l 1014 372 q 948 360 967 369 q 929 329 929 350 l 929 71 l 914 56 q 522 -24 690 -24 q 192 89 315 -24 q 58 519 58 211 z "},"ğ":{"ha":660,"x_min":14,"x_max":660,"o":"m 171 953 l 247 988 l 264 971 q 376 886 310 886 q 506 990 443 886 l 549 971 q 346 806 465 806 q 243 845 290 806 q 171 953 196 885 m 14 -115 q 94 19 14 -35 q 192 71 133 46 q 82 146 82 86 q 206 246 82 208 q 104 313 135 278 q 61 415 74 349 q 60 442 60 421 q 82 565 60 517 q 188 670 104 613 q 360 728 271 728 q 517 672 450 728 q 651 690 585 675 l 660 682 l 660 624 l 550 624 q 569 563 561 608 q 578 469 578 517 q 497 300 578 374 q 322 236 425 258 q 208 157 208 207 q 225 124 208 138 q 268 110 242 110 l 433 110 q 560 96 525 110 q 627 40 594 82 q 660 -45 660 -1 q 640 -127 660 -89 q 581 -201 621 -165 q 468 -260 542 -237 q 324 -283 394 -283 q 208 -276 253 -283 q 117 -251 163 -268 q 42 -198 71 -233 q 14 -115 14 -162 m 133 -75 q 194 -184 133 -139 q 322 -229 256 -229 q 476 -183 425 -229 q 526 -64 526 -137 q 364 42 526 42 q 133 -75 133 42 m 188 450 q 224 346 188 386 q 328 306 260 306 q 421 342 396 306 q 446 473 446 378 q 418 600 446 568 q 310 642 390 632 q 290 643 303 643 q 213 601 239 643 q 188 450 188 558 z "},"Ġ":{"ha":1051,"x_min":58,"x_max":1033,"o":"m 572 1129 q 561 1129 572 1129 q 522 1163 550 1129 q 494 1213 494 1197 q 517 1271 494 1229 q 565 1313 540 1313 q 621 1287 590 1313 q 651 1228 651 1261 q 623 1162 651 1194 q 572 1129 594 1129 m 58 519 q 107 794 58 681 q 226 941 136 863 q 435 1035 317 1019 q 592 1044 506 1044 q 778 1033 679 1044 q 906 1004 876 1021 l 922 989 q 910 744 922 919 l 861 744 q 811 904 824 872 q 703 940 783 922 q 531 958 622 958 q 265 861 332 958 q 197 503 197 764 q 594 67 197 67 q 799 126 735 67 l 799 319 q 761 363 799 351 q 685 375 726 372 l 650 378 l 649 425 q 841 419 724 419 q 1033 425 958 419 l 1033 374 l 1014 372 q 948 360 967 369 q 929 329 929 350 l 929 71 l 914 56 q 522 -24 690 -24 q 192 89 315 -24 q 58 519 58 211 z "},"ġ":{"ha":660,"x_min":14,"x_max":660,"o":"m 347 813 q 336 813 347 813 q 297 847 325 813 q 269 897 269 881 q 292 954 269 913 q 340 996 315 996 q 396 970 365 996 q 426 911 426 944 q 398 845 426 878 q 347 813 369 813 m 14 -115 q 94 19 14 -35 q 192 71 133 46 q 82 146 82 86 q 206 246 82 208 q 104 313 135 278 q 61 415 74 349 q 60 442 60 421 q 82 565 60 517 q 188 670 104 613 q 360 728 271 728 q 517 672 450 728 q 651 690 585 675 l 660 682 l 660 624 l 550 624 q 569 563 561 608 q 578 469 578 517 q 497 300 578 374 q 322 236 425 258 q 208 157 208 207 q 225 124 208 138 q 268 110 242 110 l 433 110 q 560 96 525 110 q 627 40 594 82 q 660 -45 660 -1 q 640 -127 660 -89 q 581 -201 621 -165 q 468 -260 542 -237 q 324 -283 394 -283 q 208 -276 253 -283 q 117 -251 163 -268 q 42 -198 71 -233 q 14 -115 14 -162 m 133 -75 q 194 -184 133 -139 q 322 -229 256 -229 q 476 -183 425 -229 q 526 -64 526 -137 q 364 42 526 42 q 133 -75 133 42 m 188 450 q 224 346 188 386 q 328 306 260 306 q 421 342 396 306 q 446 473 446 378 q 418 600 446 568 q 310 642 390 632 q 290 643 303 643 q 213 601 239 643 q 188 450 188 558 z "},"Ĥ":{"ha":1179,"x_min":40,"x_max":1138,"o":"m 432 1126 q 574 1297 503 1201 l 629 1297 q 765 1128 689 1210 l 739 1104 l 596 1199 l 457 1101 l 432 1126 m 303 514 l 300 115 q 358 58 300 72 q 425 51 382 54 l 425 0 l 40 0 l 40 51 q 105 58 82 54 q 147 76 128 63 q 165 115 165 90 q 156 918 165 596 q 134 959 154 949 q 60 972 114 969 l 40 974 l 40 1025 l 425 1025 l 425 974 l 406 972 q 331 959 351 969 q 310 918 311 949 q 304 574 306 672 l 875 574 q 868 918 874 742 q 847 959 867 949 q 772 972 826 969 l 753 974 l 753 1025 l 1138 1025 l 1138 974 l 1118 972 q 1044 959 1064 969 q 1022 918 1024 949 q 1013 115 1013 640 q 1072 58 1013 72 q 1138 51 1094 54 l 1138 0 l 753 0 l 753 51 q 817 58 794 54 q 859 76 840 63 q 878 115 878 90 q 875 514 878 307 l 303 514 z "},"ĥ":{"ha":785,"x_min":24,"x_max":750,"o":"m 24 1153 q 178 1390 125 1300 l 233 1390 q 368 1156 317 1232 l 346 1138 l 189 1285 l 51 1135 l 24 1153 m 133 106 l 135 756 q 121 992 135 957 q 33 1028 107 1028 l 31 1074 q 184 1095 133 1083 q 239 1107 235 1107 q 263 1086 263 1107 l 261 996 l 260 638 q 522 728 421 728 q 653 662 622 728 q 683 446 683 596 l 679 151 q 690 69 679 85 q 750 47 700 53 l 750 0 l 486 0 l 486 47 q 546 78 536 58 q 556 182 556 97 l 556 431 q 537 591 556 556 q 449 626 518 626 q 348 608 407 626 q 260 571 289 590 q 256 168 256 410 q 267 70 256 90 q 335 47 279 50 l 335 0 l 51 0 l 51 47 q 115 64 97 50 q 133 106 133 78 z "},"Ĩ":{"ha":465,"x_min":11,"x_max":453,"o":"m 11 1153 q 89 1238 33 1186 q 164 1290 144 1290 q 237 1260 183 1290 q 339 1217 290 1229 q 432 1276 382 1229 l 453 1260 q 382 1180 431 1226 q 312 1133 333 1133 q 228 1170 290 1133 q 139 1207 165 1207 q 29 1133 93 1193 l 11 1153 m 40 0 l 40 51 q 105 58 82 54 q 147 76 128 63 q 165 115 165 90 q 156 918 165 596 q 134 959 154 949 q 60 972 114 969 l 40 974 l 40 1025 l 425 1025 l 425 974 l 406 972 q 331 959 351 969 q 310 918 311 949 q 300 115 300 640 q 358 58 300 72 q 425 51 382 54 l 425 0 l 40 0 z "},"ĩ":{"ha":392,"x_min":-31,"x_max":411,"o":"m -31 836 q 47 922 -8 869 q 122 974 103 974 q 195 943 142 974 q 297 900 249 913 q 390 960 340 913 l 411 943 q 340 863 389 910 q 270 817 292 817 q 186 853 249 817 q 97 890 124 890 q -12 817 51 876 l -31 836 m 42 0 l 42 47 q 131 66 113 53 q 149 121 149 79 l 149 410 q 142 578 149 531 q 122 638 136 625 q 69 651 108 651 l 49 651 l 46 697 q 199 719 149 707 q 254 731 250 731 q 278 708 278 731 q 276 617 278 692 q 271 104 271 319 q 293 63 271 76 q 364 47 315 50 l 364 0 l 42 0 z "},"Ī":{"ha":465,"x_min":40,"x_max":425,"o":"m 57 1153 l 75 1238 l 404 1238 l 388 1153 l 57 1153 m 40 0 l 40 51 q 105 58 82 54 q 147 76 128 63 q 165 115 165 90 q 156 918 165 596 q 134 959 154 949 q 60 972 114 969 l 40 974 l 40 1025 l 425 1025 l 425 974 l 406 972 q 331 959 351 969 q 310 918 311 949 q 300 115 300 640 q 358 58 300 72 q 425 51 382 54 l 425 0 l 40 0 z "},"ī":{"ha":392,"x_min":15,"x_max":364,"o":"m 42 0 l 42 47 q 131 66 113 53 q 149 121 149 79 l 149 410 q 142 578 149 531 q 122 638 136 625 q 69 651 108 651 l 49 651 l 46 697 q 199 719 149 707 q 254 731 250 731 q 278 708 278 731 q 276 617 278 692 q 271 104 271 319 q 293 63 271 76 q 364 47 315 50 l 364 0 l 42 0 m 15 836 l 33 921 l 363 921 l 346 836 l 15 836 z "},"Ĭ":{"ha":465,"x_min":40,"x_max":432,"o":"m 54 1269 l 131 1304 l 147 1288 q 260 1203 193 1203 q 389 1307 326 1203 l 432 1288 q 229 1122 349 1122 q 126 1162 174 1122 q 54 1269 79 1201 m 40 0 l 40 51 q 105 58 82 54 q 147 76 128 63 q 165 115 165 90 q 156 918 165 596 q 134 959 154 949 q 60 972 114 969 l 40 974 l 40 1025 l 425 1025 l 425 974 l 406 972 q 331 959 351 969 q 310 918 311 949 q 300 115 300 640 q 358 58 300 72 q 425 51 382 54 l 425 0 l 40 0 z "},"ĭ":{"ha":392,"x_min":13,"x_max":390,"o":"m 13 953 l 89 988 l 106 971 q 218 886 151 886 q 347 990 285 886 l 390 971 q 188 806 307 806 q 85 845 132 806 q 13 953 38 885 m 42 0 l 42 47 q 131 66 113 53 q 149 121 149 79 l 149 410 q 142 578 149 531 q 122 638 136 625 q 69 651 108 651 l 49 651 l 46 697 q 199 719 149 707 q 254 731 250 731 q 278 708 278 731 q 276 617 278 692 q 271 104 271 319 q 293 63 271 76 q 364 47 315 50 l 364 0 l 42 0 z "},"İ":{"ha":465,"x_min":40,"x_max":425,"o":"m 231 1129 q 219 1129 231 1129 q 181 1163 208 1129 q 153 1213 153 1197 q 176 1271 153 1229 q 224 1313 199 1313 q 279 1287 249 1313 q 310 1228 310 1261 q 281 1162 310 1194 q 231 1129 253 1129 m 40 0 l 40 51 q 105 58 82 54 q 147 76 128 63 q 165 115 165 90 q 156 918 165 596 q 134 959 154 949 q 60 972 114 969 l 40 974 l 40 1025 l 425 1025 l 425 974 l 406 972 q 331 959 351 969 q 310 918 311 949 q 300 115 300 640 q 358 58 300 72 q 425 51 382 54 l 425 0 l 40 0 z "},"ı":{"ha":392,"x_min":42,"x_max":364,"o":"m 42 0 l 42 47 q 131 66 113 53 q 149 121 149 79 l 149 410 q 142 578 149 531 q 122 638 136 625 q 69 651 108 651 l 49 651 l 46 697 q 199 719 149 707 q 254 731 250 731 q 278 708 278 731 q 276 617 278 692 q 271 104 271 319 q 293 63 271 76 q 364 47 315 50 l 364 0 l 42 0 z "},"Ĳ":{"ha":899,"x_min":40,"x_max":871,"o":"m 465 -225 l 503 -196 q 589 -72 569 -136 q 608 128 608 -8 q 600 918 608 831 q 578 960 599 950 q 506 972 558 969 l 486 974 l 486 1025 l 871 1025 l 871 974 l 850 972 q 796 967 814 969 q 756 918 756 958 q 733 11 746 78 q 554 -236 708 -146 l 493 -269 l 465 -225 m 40 0 l 40 51 q 105 58 82 54 q 147 76 128 63 q 165 115 165 90 q 156 918 165 596 q 134 959 154 949 q 60 972 114 969 l 40 974 l 40 1025 l 425 1025 l 425 974 l 406 972 q 331 959 351 969 q 310 918 311 949 q 300 115 300 640 q 358 58 300 72 q 425 51 382 54 l 425 0 l 40 0 z "},"ĳ":{"ha":742,"x_min":42,"x_max":647,"o":"m 567 840 q 557 840 567 840 q 517 874 546 840 q 489 924 489 908 q 513 982 489 940 q 561 1024 536 1024 q 617 998 586 1024 q 647 939 647 972 q 618 873 647 906 q 567 840 589 840 m 385 -257 q 419 -214 393 -246 q 460 -156 446 -182 q 490 -92 475 -131 q 508 31 506 -53 q 517 511 517 211 q 502 628 517 603 q 438 653 488 653 l 417 653 l 414 699 q 570 720 522 708 q 622 732 618 732 q 646 710 646 732 l 646 496 q 633 108 646 200 q 614 -9 619 15 q 592 -75 608 -33 q 563 -132 575 -117 q 522 -179 550 -147 q 472 -229 493 -211 q 408 -281 450 -247 l 385 -257 m 201 840 q 190 840 201 840 q 151 874 179 840 q 124 924 124 908 q 147 982 124 940 q 194 1024 169 1024 q 250 998 219 1024 q 281 939 281 972 q 252 873 281 906 q 201 840 224 840 m 42 0 l 42 47 q 131 66 113 53 q 149 121 149 79 l 149 410 q 142 578 149 531 q 122 638 136 625 q 69 651 108 651 l 49 651 l 46 697 q 199 719 149 707 q 254 731 250 731 q 278 708 278 731 q 276 617 278 692 q 271 104 271 319 q 293 63 271 76 q 364 47 315 50 l 364 0 l 42 0 z "},"Ĵ":{"ha":433,"x_min":0,"x_max":406,"o":"m 54 1126 q 196 1297 125 1201 l 251 1297 q 388 1128 311 1210 l 361 1104 l 218 1199 l 79 1101 l 54 1126 m 0 -225 l 38 -196 q 124 -72 104 -136 q 143 128 143 -8 q 135 918 143 831 q 113 960 133 950 q 40 972 93 969 l 21 974 l 21 1025 l 406 1025 l 406 974 l 385 972 q 331 967 349 969 q 290 918 290 958 q 268 11 281 78 q 89 -236 243 -146 l 28 -269 l 0 -225 z "},"ĵ":{"ha":349,"x_min":-15,"x_max":329,"o":"m -15 806 q 139 1043 86 953 l 194 1043 q 329 808 278 885 l 307 790 l 150 938 l 13 788 l -15 806 m -7 -257 q 28 -214 1 -246 q 69 -156 54 -182 q 99 -92 83 -131 q 117 31 114 -53 q 125 511 125 211 q 110 628 125 603 q 46 653 96 653 l 25 653 l 22 699 q 178 720 131 708 q 231 732 226 732 q 254 710 254 732 l 254 496 q 241 108 254 200 q 222 -9 228 15 q 200 -75 217 -33 q 171 -132 183 -117 q 130 -179 158 -147 q 80 -229 101 -211 q 17 -281 58 -247 l -7 -257 z "},"Ĺ":{"ha":775,"x_min":40,"x_max":775,"o":"m 140 1149 q 393 1357 246 1225 q 440 1332 419 1353 q 461 1288 461 1311 l 461 1282 q 314 1195 410 1249 q 158 1115 218 1142 l 140 1149 m 40 0 l 40 51 q 108 58 85 54 q 165 115 165 71 q 156 918 165 606 q 134 960 154 950 q 60 972 114 969 l 40 974 l 40 1025 l 443 1025 l 443 974 l 424 972 q 364 967 385 969 q 310 918 310 957 q 300 115 300 640 q 436 61 300 61 l 465 61 q 633 78 614 61 q 704 247 668 108 l 724 322 l 775 322 q 767 154 771 286 q 763 0 763 22 l 40 0 z "},"ĺ":{"ha":394,"x_min":36,"x_max":410,"o":"m 117 1150 q 329 1400 197 1235 q 383 1381 358 1400 q 410 1338 408 1363 q 140 1121 261 1201 l 117 1150 m 36 0 l 36 47 q 65 52 47 49 q 89 56 83 56 q 106 61 94 57 q 121 68 118 65 q 131 79 124 71 q 138 96 138 88 q 142 119 139 104 q 144 150 144 133 l 144 449 q 140 906 144 592 l 139 972 q 122 1017 138 1007 q 61 1026 107 1026 l 43 1026 l 40 1072 q 193 1097 143 1085 q 249 1108 243 1108 q 272 1088 272 1108 q 275 803 275 974 q 268 438 275 632 q 261 132 261 244 q 277 67 261 79 q 364 47 293 56 l 364 0 l 36 0 z "},"Ľ":{"ha":814,"x_min":35,"x_max":769,"o":"m 35 0 l 35 51 q 103 58 79 54 q 160 115 160 71 q 150 918 160 606 q 128 960 149 950 q 54 972 108 969 l 35 974 l 35 1025 l 438 1025 l 438 974 l 418 972 q 358 967 379 969 q 304 918 304 957 q 294 115 294 640 q 431 61 294 61 l 460 61 q 628 78 608 61 q 699 247 663 108 l 718 322 l 769 322 q 761 154 765 286 q 757 0 757 22 l 35 0 m 532 886 q 532 903 532 886 q 501 965 532 919 q 469 1019 469 1011 q 482 1047 469 1028 q 540 1108 518 1108 q 594 1056 561 1108 q 628 961 628 1003 q 573 832 628 919 q 497 744 518 744 q 485 752 494 744 q 476 764 476 760 q 504 810 476 768 q 532 886 532 853 z "},"ľ":{"ha":583,"x_min":36,"x_max":544,"o":"m 36 0 l 36 47 q 65 52 47 49 q 89 56 83 56 q 106 61 94 57 q 121 68 118 65 q 131 79 124 71 q 138 96 138 88 q 142 119 139 104 q 144 150 144 133 l 144 449 q 140 906 144 592 l 139 972 q 122 1017 138 1007 q 61 1026 107 1026 l 43 1026 l 40 1072 q 193 1097 143 1085 q 249 1108 243 1108 q 272 1088 272 1108 q 275 803 275 974 q 268 438 275 632 q 261 132 261 244 q 277 67 261 79 q 364 47 293 56 l 364 0 l 36 0 m 449 886 q 449 903 449 886 q 417 965 449 919 q 386 1019 386 1011 q 399 1047 386 1028 q 456 1108 435 1108 q 511 1056 478 1108 q 544 961 544 1003 q 490 832 544 919 q 414 744 435 744 q 402 752 411 744 q 393 764 393 760 q 421 810 393 768 q 449 886 449 853 z "},"Ń":{"ha":1079,"x_min":21,"x_max":1079,"o":"m 453 1149 q 706 1357 558 1225 q 753 1332 732 1353 q 774 1288 774 1311 l 774 1282 q 626 1195 722 1249 q 471 1115 531 1142 l 453 1149 m 151 732 l 150 861 l 150 926 q 90 967 144 961 l 21 974 l 21 1025 l 283 1025 q 879 221 300 976 q 874 498 874 299 q 868 881 874 697 q 847 947 867 929 q 743 972 828 964 l 743 1025 l 1079 1025 l 1079 975 q 967 938 986 967 l 958 894 q 949 228 949 557 l 951 0 l 869 0 q 729 191 814 83 q 592 365 644 299 q 228 829 486 501 l 228 403 q 235 111 235 138 q 266 72 235 85 q 354 54 297 60 l 354 0 l 26 0 l 26 50 q 142 111 135 60 q 151 625 151 181 l 151 732 z "},"ń":{"ha":782,"x_min":44,"x_max":750,"o":"m 353 804 q 565 1054 433 889 q 619 1035 594 1054 q 646 992 644 1017 q 376 775 497 856 l 353 804 m 44 685 q 159 711 101 690 q 234 732 217 732 q 258 716 251 732 q 265 658 265 700 l 265 639 q 516 729 425 729 q 642 680 607 729 q 676 567 676 631 l 676 103 q 690 61 676 72 q 750 47 703 50 l 750 0 l 467 0 l 467 47 q 533 64 519 51 q 546 108 546 76 l 546 549 q 524 602 546 583 q 480 624 503 621 q 427 628 457 628 q 347 612 397 628 q 269 576 297 596 q 265 406 268 494 q 260 156 260 225 q 274 69 260 88 q 342 47 288 50 l 342 0 l 50 0 l 50 47 q 109 63 92 53 q 131 94 126 74 q 136 178 136 131 q 132 403 136 226 q 126 587 128 581 q 123 599 125 593 q 117 610 121 606 q 112 617 114 614 q 104 622 110 619 q 96 626 99 625 q 85 628 93 626 q 75 631 78 629 q 49 632 67 632 l 44 685 z "},"Ň":{"ha":1079,"x_min":21,"x_max":1079,"o":"m 396 1258 l 429 1296 l 565 1201 l 703 1296 l 724 1272 q 579 1103 622 1165 l 524 1103 q 396 1258 478 1167 m 151 732 l 150 861 l 150 926 q 90 967 144 961 l 21 974 l 21 1025 l 283 1025 q 879 221 300 976 q 874 498 874 299 q 868 881 874 697 q 847 947 867 929 q 743 972 828 964 l 743 1025 l 1079 1025 l 1079 975 q 967 938 986 967 l 958 894 q 949 228 949 557 l 951 0 l 869 0 q 729 191 814 83 q 592 365 644 299 q 228 829 486 501 l 228 403 q 235 111 235 138 q 266 72 235 85 q 354 54 297 60 l 354 0 l 26 0 l 26 50 q 142 111 135 60 q 151 625 151 181 l 151 732 z "},"ň":{"ha":782,"x_min":44,"x_max":750,"o":"m 638 1017 q 460 786 582 949 l 404 786 q 254 994 385 821 l 292 1039 l 449 892 l 621 1042 l 638 1017 m 44 685 q 159 711 101 690 q 234 732 217 732 q 258 716 251 732 q 265 658 265 700 l 265 639 q 516 729 425 729 q 642 680 607 729 q 676 567 676 631 l 676 103 q 690 61 676 72 q 750 47 703 50 l 750 0 l 467 0 l 467 47 q 533 64 519 51 q 546 108 546 76 l 546 549 q 524 602 546 583 q 480 624 503 621 q 427 628 457 628 q 347 612 397 628 q 269 576 297 596 q 265 406 268 494 q 260 156 260 225 q 274 69 260 88 q 342 47 288 50 l 342 0 l 50 0 l 50 47 q 109 63 92 53 q 131 94 126 74 q 136 178 136 131 q 132 403 136 226 q 126 587 128 581 q 123 599 125 593 q 117 610 121 606 q 112 617 114 614 q 104 622 110 619 q 96 626 99 625 q 85 628 93 626 q 75 631 78 629 q 49 632 67 632 l 44 685 z "},"Ō":{"ha":1035,"x_min":58,"x_max":978,"o":"m 363 1153 l 381 1238 l 710 1238 l 693 1153 l 363 1153 m 499 -19 q 168 123 278 -19 q 58 489 58 265 q 147 847 58 713 q 281 967 194 918 q 549 1043 417 1043 q 872 919 765 1043 q 978 555 978 796 q 879 169 978 314 q 698 26 813 72 q 499 -19 583 -19 m 200 526 q 242 281 200 386 q 301 183 261 235 q 400 102 340 132 q 563 72 460 72 q 835 488 835 72 q 761 830 835 722 q 574 954 688 938 q 499 957 561 957 q 281 856 361 957 q 200 526 200 754 z "},"ō":{"ha":718,"x_min":42,"x_max":682,"o":"m 197 836 l 215 921 l 544 921 l 528 836 l 197 836 m 110 82 q 95 102 110 82 q 61 194 81 122 q 42 374 42 265 q 99 576 42 483 q 229 683 136 635 q 383 731 322 731 q 594 651 507 731 q 682 405 682 572 q 621 144 682 238 q 461 0 539 35 q 351 -24 408 -24 q 258 -16 294 -24 q 181 17 222 -8 q 110 82 140 42 m 174 356 q 174 281 174 356 q 231 140 174 206 q 399 75 289 75 q 460 82 440 75 q 556 371 556 119 q 524 544 556 489 q 417 622 493 599 q 346 632 378 632 q 299 631 314 632 q 261 622 285 629 q 225 599 238 615 q 199 556 213 583 q 174 356 174 506 z "},"Ŏ":{"ha":1035,"x_min":58,"x_max":978,"o":"m 360 1269 l 436 1304 l 453 1288 q 565 1203 499 1203 q 694 1307 632 1203 l 738 1288 q 535 1122 654 1122 q 432 1162 479 1122 q 360 1269 385 1201 m 499 -19 q 168 123 278 -19 q 58 489 58 265 q 147 847 58 713 q 281 967 194 918 q 549 1043 417 1043 q 872 919 765 1043 q 978 555 978 796 q 879 169 978 314 q 698 26 813 72 q 499 -19 583 -19 m 200 526 q 242 281 200 386 q 301 183 261 235 q 400 102 340 132 q 563 72 460 72 q 835 488 835 72 q 761 830 835 722 q 574 954 688 938 q 499 957 561 957 q 281 856 361 957 q 200 526 200 754 z "},"ŏ":{"ha":718,"x_min":42,"x_max":682,"o":"m 194 953 l 271 988 l 288 971 q 400 886 333 886 q 529 990 467 886 l 572 971 q 369 806 489 806 q 267 845 314 806 q 194 953 219 885 m 110 82 q 95 102 110 82 q 61 194 81 122 q 42 374 42 265 q 99 576 42 483 q 229 683 136 635 q 383 731 322 731 q 594 651 507 731 q 682 405 682 572 q 621 144 682 238 q 461 0 539 35 q 351 -24 408 -24 q 258 -16 294 -24 q 181 17 222 -8 q 110 82 140 42 m 174 356 q 174 281 174 356 q 231 140 174 206 q 399 75 289 75 q 460 82 440 75 q 556 371 556 119 q 524 544 556 489 q 417 622 493 599 q 346 632 378 632 q 299 631 314 632 q 261 622 285 629 q 225 599 238 615 q 199 556 213 583 q 174 356 174 506 z "},"Ő":{"ha":1035,"x_min":58,"x_max":978,"o":"m 499 -19 q 168 123 278 -19 q 58 489 58 265 q 147 847 58 713 q 281 967 194 918 q 549 1043 417 1043 q 872 919 765 1043 q 978 555 978 796 q 879 169 978 314 q 698 26 813 72 q 499 -19 583 -19 m 200 526 q 242 281 200 386 q 301 183 261 235 q 400 102 340 132 q 563 72 460 72 q 835 488 835 72 q 761 830 835 722 q 574 954 688 938 q 499 957 561 957 q 281 856 361 957 q 200 526 200 754 z "},"ő":{"ha":718,"x_min":42,"x_max":721,"o":"m 110 82 q 95 102 110 82 q 61 194 81 122 q 42 374 42 265 q 99 576 42 483 q 229 683 136 635 q 383 731 322 731 q 594 651 507 731 q 682 405 682 572 q 621 144 682 238 q 461 0 539 35 q 351 -24 408 -24 q 258 -16 294 -24 q 181 17 222 -8 q 110 82 140 42 m 174 356 q 174 281 174 356 q 231 140 174 206 q 399 75 289 75 q 460 82 440 75 q 556 371 556 119 q 524 544 556 489 q 417 622 493 599 q 346 632 378 632 q 299 631 314 632 q 261 622 285 629 q 225 599 238 615 q 199 556 213 583 q 174 356 174 506 z "},"Œ":{"ha":1531,"x_min":58,"x_max":1472,"o":"m 1460 -3 l 875 0 q 710 -10 842 0 q 499 -19 579 -19 q 167 124 276 -19 q 58 490 58 267 q 147 847 58 713 q 331 989 211 943 q 535 1035 451 1035 q 737 1026 619 1035 q 885 1017 854 1017 l 1424 1022 l 1440 1007 q 1421 881 1438 996 q 1403 750 1404 765 l 1356 750 q 1324 908 1329 892 q 1303 936 1318 925 q 1133 949 1253 949 q 988 940 1013 949 q 963 901 963 931 q 956 571 958 765 q 1299 579 1211 571 l 1285 476 l 1260 476 q 1033 511 1215 508 q 956 511 961 511 q 953 113 953 306 q 1003 69 953 79 q 1181 58 1053 58 q 1331 75 1310 58 q 1401 244 1365 106 l 1421 319 l 1472 319 q 1464 151 1468 283 q 1460 -3 1460 19 m 306 883 q 279 859 306 883 q 226 745 253 835 q 200 527 200 656 q 233 304 200 399 q 325 156 267 210 q 615 49 440 49 q 785 79 736 49 q 807 113 807 93 q 811 530 811 246 q 807 915 811 814 q 583 974 804 974 q 425 953 492 974 q 306 883 358 932 z "},"œ":{"ha":1161,"x_min":42,"x_max":1119,"o":"m 110 82 q 95 102 110 82 q 61 194 81 122 q 42 374 42 265 q 99 576 42 483 q 229 683 136 635 q 383 731 322 731 q 628 613 546 731 q 735 692 674 658 q 855 726 796 726 q 963 711 914 726 q 1039 666 1011 696 q 1084 608 1067 636 q 1108 536 1101 579 q 1118 431 1118 467 q 1118 390 1118 431 q 972 363 1072 363 l 688 363 q 711 172 688 214 q 793 96 743 111 q 868 86 825 86 q 1089 185 989 86 l 1119 153 q 1096 128 1115 149 q 1070 103 1076 108 q 1047 80 1064 97 q 1021 56 1029 63 q 995 36 1013 50 q 967 17 978 22 q 938 2 956 11 q 907 -11 921 -7 q 840 -21 875 -21 q 599 117 671 -21 q 474 6 532 36 q 355 -24 415 -24 q 258 -16 294 -24 q 181 17 222 -8 q 110 82 140 42 m 174 356 q 174 281 174 356 q 231 140 174 206 q 399 75 289 75 q 460 82 440 75 q 556 371 556 119 q 524 544 556 489 q 417 622 493 599 q 346 632 378 632 q 299 631 314 632 q 261 622 285 629 q 225 599 238 615 q 199 556 213 583 q 174 356 174 506 m 690 425 l 768 425 q 989 450 953 425 q 969 553 989 510 q 842 636 933 636 q 720 590 750 636 q 690 425 690 543 z "},"Ŕ":{"ha":929,"x_min":44,"x_max":929,"o":"m 338 1149 q 590 1357 443 1225 q 638 1332 617 1353 q 658 1288 658 1311 l 658 1282 q 511 1195 607 1249 q 356 1115 415 1142 l 338 1149 m 44 0 l 44 51 q 109 58 86 54 q 151 76 132 63 q 169 115 169 90 q 160 918 169 596 q 138 959 158 949 q 64 972 118 969 l 44 974 l 44 1025 q 237 1019 122 1019 q 428 1026 351 1019 q 517 1033 506 1033 l 544 1033 q 706 965 638 1033 q 775 797 775 897 q 736 643 775 696 q 606 531 697 590 q 853 83 751 244 l 929 50 l 929 0 q 728 -6 804 0 l 485 496 l 446 496 q 308 514 361 496 q 304 115 304 221 q 364 58 304 72 q 429 51 386 54 l 429 0 l 44 0 m 310 589 q 456 565 349 565 q 563 601 521 565 q 617 678 604 636 q 631 767 631 721 q 619 850 631 813 q 590 908 607 888 q 553 944 572 929 q 499 968 521 968 q 329 950 371 968 l 315 935 q 310 589 313 874 z "},"ŕ":{"ha":553,"x_min":35,"x_max":553,"o":"m 226 804 q 439 1054 307 889 q 493 1035 468 1054 q 519 992 518 1017 q 250 775 371 856 l 226 804 m 269 503 l 268 126 q 293 70 268 83 q 369 50 318 57 q 424 43 419 43 l 424 0 l 35 0 l 35 47 q 79 52 68 51 q 108 60 90 53 q 128 74 125 68 q 136 101 131 81 q 142 143 142 122 l 142 253 q 132 581 142 532 q 51 635 121 635 l 49 688 q 163 714 104 693 q 238 735 221 735 q 261 719 254 735 q 268 661 268 703 l 269 608 q 463 726 392 726 q 533 714 514 726 q 553 668 553 701 q 531 518 553 657 l 481 518 q 410 622 474 622 q 322 590 374 622 q 269 503 269 557 z "},"Ř":{"ha":929,"x_min":44,"x_max":929,"o":"m 281 1258 l 314 1296 l 450 1201 l 588 1296 l 608 1272 q 464 1103 507 1165 l 408 1103 q 281 1258 363 1167 m 44 0 l 44 51 q 109 58 86 54 q 151 76 132 63 q 169 115 169 90 q 160 918 169 596 q 138 959 158 949 q 64 972 118 969 l 44 974 l 44 1025 q 237 1019 122 1019 q 428 1026 351 1019 q 517 1033 506 1033 l 544 1033 q 706 965 638 1033 q 775 797 775 897 q 736 643 775 696 q 606 531 697 590 q 853 83 751 244 l 929 50 l 929 0 q 728 -6 804 0 l 485 496 l 446 496 q 308 514 361 496 q 304 115 304 221 q 364 58 304 72 q 429 51 386 54 l 429 0 l 44 0 m 310 589 q 456 565 349 565 q 563 601 521 565 q 617 678 604 636 q 631 767 631 721 q 619 850 631 813 q 590 908 607 888 q 553 944 572 929 q 499 968 521 968 q 329 950 371 968 l 315 935 q 310 589 313 874 z "},"ř":{"ha":553,"x_min":35,"x_max":553,"o":"m 511 1017 q 333 786 456 949 l 278 786 q 128 994 258 821 l 165 1039 l 322 892 l 494 1042 l 511 1017 m 269 503 l 268 126 q 293 70 268 83 q 369 50 318 57 q 424 43 419 43 l 424 0 l 35 0 l 35 47 q 79 52 68 51 q 108 60 90 53 q 128 74 125 68 q 136 101 131 81 q 142 143 142 122 l 142 253 q 132 581 142 532 q 51 635 121 635 l 49 688 q 163 714 104 693 q 238 735 221 735 q 261 719 254 735 q 268 661 268 703 l 269 608 q 463 726 392 726 q 533 714 514 726 q 553 668 553 701 q 531 518 553 657 l 481 518 q 410 622 474 622 q 322 590 374 622 q 269 503 269 557 z "},"Ś":{"ha":721,"x_min":79,"x_max":679,"o":"m 296 1149 q 549 1357 401 1225 q 596 1332 575 1353 q 617 1288 617 1311 l 617 1282 q 469 1195 565 1249 q 314 1115 374 1142 l 296 1149 m 572 733 l 526 885 q 504 921 515 913 q 373 957 464 957 q 236 925 282 957 q 190 811 190 893 q 264 675 190 722 q 301 651 279 664 l 513 542 q 679 283 679 456 q 661 167 679 210 q 589 61 643 124 q 351 -21 514 -21 q 81 42 222 -21 q 90 322 90 175 l 142 322 l 161 247 q 191 151 181 172 q 228 108 201 129 q 383 78 299 78 q 508 110 468 78 q 549 229 549 143 q 421 417 549 349 l 308 472 q 201 531 226 515 q 160 563 176 546 l 149 575 q 79 747 79 650 q 110 901 79 843 q 235 1010 142 958 q 409 1046 301 1046 q 617 993 517 1046 l 633 978 q 621 733 633 908 l 572 733 z "},"ś":{"ha":538,"x_min":63,"x_max":504,"o":"m 211 804 q 424 1054 292 889 q 478 1035 453 1054 q 504 992 503 1017 q 235 775 356 856 l 211 804 m 183 323 q 158 332 183 323 q 98 385 133 342 q 63 496 63 428 q 86 600 63 564 q 181 705 136 681 q 294 729 225 729 q 419 706 364 729 q 442 694 435 700 q 467 638 467 679 q 465 617 467 633 q 463 501 463 581 l 411 501 q 399 554 410 519 q 376 607 389 589 q 272 647 349 647 q 175 611 199 647 q 156 547 156 582 q 190 484 156 511 q 275 440 225 457 q 376 403 325 424 q 461 337 426 383 q 496 218 496 290 q 475 111 496 146 q 386 11 438 51 q 321 -14 365 -4 q 254 -24 276 -24 q 76 26 106 -24 q 65 74 65 44 q 72 212 65 186 q 101 238 78 238 q 129 218 124 238 q 139 164 135 199 q 275 65 154 65 q 371 93 336 65 q 406 169 406 121 q 370 244 406 217 q 284 288 335 272 q 183 323 233 304 z "},"Ŝ":{"ha":721,"x_min":79,"x_max":679,"o":"m 238 1126 q 379 1297 308 1201 l 435 1297 q 571 1128 494 1210 l 544 1104 l 401 1199 l 263 1101 l 238 1126 m 572 733 l 526 885 q 504 921 515 913 q 373 957 464 957 q 236 925 282 957 q 190 811 190 893 q 264 675 190 722 q 301 651 279 664 l 513 542 q 679 283 679 456 q 661 167 679 210 q 589 61 643 124 q 351 -21 514 -21 q 81 42 222 -21 q 90 322 90 175 l 142 322 l 161 247 q 191 151 181 172 q 228 108 201 129 q 383 78 299 78 q 508 110 468 78 q 549 229 549 143 q 421 417 549 349 l 308 472 q 201 531 226 515 q 160 563 176 546 l 149 575 q 79 747 79 650 q 110 901 79 843 q 235 1010 142 958 q 409 1046 301 1046 q 617 993 517 1046 l 633 978 q 621 733 633 908 l 572 733 z "},"ŝ":{"ha":538,"x_min":63,"x_max":496,"o":"m 126 807 q 281 1044 228 954 l 336 1044 q 471 810 419 886 l 449 792 l 292 939 l 154 789 l 126 807 m 183 323 q 158 332 183 323 q 98 385 133 342 q 63 496 63 428 q 86 600 63 564 q 181 705 136 681 q 294 729 225 729 q 419 706 364 729 q 442 694 435 700 q 467 638 467 679 q 465 617 467 633 q 463 501 463 581 l 411 501 q 399 554 410 519 q 376 607 389 589 q 272 647 349 647 q 175 611 199 647 q 156 547 156 582 q 190 484 156 511 q 275 440 225 457 q 376 403 325 424 q 461 337 426 383 q 496 218 496 290 q 475 111 496 146 q 386 11 438 51 q 321 -14 365 -4 q 254 -24 276 -24 q 76 26 106 -24 q 65 74 65 44 q 72 212 65 186 q 101 238 78 238 q 129 218 124 238 q 139 164 135 199 q 275 65 154 65 q 371 93 336 65 q 406 169 406 121 q 370 244 406 217 q 284 288 335 272 q 183 323 233 304 z "},"Š":{"ha":721,"x_min":79,"x_max":679,"o":"m 239 1258 l 272 1296 l 408 1201 l 546 1296 l 567 1272 q 422 1103 465 1165 l 367 1103 q 239 1258 321 1167 m 572 733 l 526 885 q 504 921 515 913 q 373 957 464 957 q 236 925 282 957 q 190 811 190 893 q 264 675 190 722 q 301 651 279 664 l 513 542 q 679 283 679 456 q 661 167 679 210 q 589 61 643 124 q 351 -21 514 -21 q 81 42 222 -21 q 90 322 90 175 l 142 322 l 161 247 q 191 151 181 172 q 228 108 201 129 q 383 78 299 78 q 508 110 468 78 q 549 229 549 143 q 421 417 549 349 l 308 472 q 201 531 226 515 q 160 563 176 546 l 149 575 q 79 747 79 650 q 110 901 79 843 q 235 1010 142 958 q 409 1046 301 1046 q 617 993 517 1046 l 633 978 q 621 733 633 908 l 572 733 z "},"š":{"ha":538,"x_min":63,"x_max":496,"o":"m 496 1017 q 318 786 440 949 l 263 786 q 113 994 243 821 l 150 1039 l 307 892 l 479 1042 l 496 1017 m 183 323 q 158 332 183 323 q 98 385 133 342 q 63 496 63 428 q 86 600 63 564 q 181 705 136 681 q 294 729 225 729 q 419 706 364 729 q 442 694 435 700 q 467 638 467 679 q 465 617 467 633 q 463 501 463 581 l 411 501 q 399 554 410 519 q 376 607 389 589 q 272 647 349 647 q 175 611 199 647 q 156 547 156 582 q 190 484 156 511 q 275 440 225 457 q 376 403 325 424 q 461 337 426 383 q 496 218 496 290 q 475 111 496 146 q 386 11 438 51 q 321 -14 365 -4 q 254 -24 276 -24 q 76 26 106 -24 q 65 74 65 44 q 72 212 65 186 q 101 238 78 238 q 129 218 124 238 q 139 164 135 199 q 275 65 154 65 q 371 93 336 65 q 406 169 406 121 q 370 244 406 217 q 284 288 335 272 q 183 323 233 304 z "},"Ť":{"ha":844,"x_min":0,"x_max":844,"o":"m 261 1258 l 294 1296 l 431 1201 l 568 1296 l 589 1272 q 444 1103 488 1165 l 389 1103 q 261 1258 343 1167 m 0 1010 l 15 1025 l 829 1025 l 844 1010 q 838 736 838 892 l 789 736 q 742 889 753 867 q 729 919 736 906 q 704 932 719 929 q 583 946 632 946 q 500 939 535 946 q 489 115 489 676 q 515 76 489 90 q 567 57 540 61 q 639 49 593 53 l 639 0 l 194 0 l 194 49 q 331 83 306 58 q 343 115 343 96 q 347 620 347 385 q 344 939 347 856 q 261 946 310 946 q 140 932 213 946 q 115 919 125 929 q 103 889 108 906 q 56 736 92 867 l 7 736 q 0 1010 7 892 z "},"ť":{"ha":589,"x_min":14,"x_max":496,"o":"m 131 261 l 135 622 l 14 622 l 14 664 l 135 688 l 135 815 l 242 849 q 263 828 263 849 l 260 743 l 260 700 l 436 700 l 432 622 l 260 622 l 256 279 q 269 125 256 172 q 318 78 282 78 q 422 118 354 78 l 451 90 q 276 -21 344 -21 q 158 40 186 -21 q 131 261 131 101 m 400 886 q 400 903 400 886 q 369 965 400 919 q 338 1019 338 1011 q 350 1047 338 1028 q 408 1108 386 1108 q 463 1056 429 1108 q 496 961 496 1003 q 441 832 496 919 q 365 744 386 744 q 353 752 363 744 q 344 764 344 760 q 372 810 344 768 q 400 886 400 853 z "},"Ũ":{"ha":1051,"x_min":47,"x_max":1058,"o":"m 356 1153 q 433 1238 378 1186 q 508 1290 489 1290 q 581 1260 528 1290 q 683 1217 635 1229 q 776 1276 726 1229 l 797 1260 q 726 1180 775 1226 q 656 1133 678 1133 q 572 1170 635 1133 q 483 1207 510 1207 q 374 1133 438 1193 l 356 1153 m 858 494 l 856 910 q 731 971 856 960 l 731 1025 l 1058 1025 l 1058 975 q 947 914 951 963 l 946 889 q 938 615 943 850 q 932 310 932 381 q 907 175 932 240 q 844 73 882 110 q 746 15 806 36 q 631 -13 686 -7 q 498 -19 575 -19 q 357 6 421 -19 q 258 66 293 31 q 200 147 224 101 q 164 297 164 222 q 158 917 161 888 q 133 958 154 946 q 47 974 113 969 l 47 1025 l 431 1025 l 431 974 q 364 967 386 971 q 306 910 306 954 l 307 542 l 307 431 q 308 298 308 354 q 322 208 308 242 q 367 141 336 175 q 460 85 399 107 q 596 64 521 64 q 717 80 671 64 q 791 124 763 96 q 833 208 819 153 q 858 494 858 303 z "},"ũ":{"ha":772,"x_min":31,"x_max":731,"o":"m 167 836 q 244 922 189 869 q 319 974 300 974 q 392 943 339 974 q 494 900 446 913 q 588 960 538 913 l 608 943 q 538 863 586 910 q 467 817 489 817 q 383 853 446 817 q 294 890 321 890 q 185 817 249 876 l 167 836 m 543 206 l 546 535 q 528 644 546 635 q 493 650 518 650 l 449 650 l 446 696 q 602 717 554 706 q 654 729 650 729 q 679 708 679 729 q 674 368 679 533 q 668 172 668 203 q 699 92 668 142 q 731 35 731 43 q 718 24 731 28 q 609 -8 621 -8 q 585 12 597 -8 q 564 61 574 32 q 553 92 554 90 q 400 10 469 33 q 288 -12 331 -12 q 199 28 246 -12 q 138 128 153 68 q 124 300 124 172 l 124 524 q 111 619 124 558 q 93 636 108 629 q 69 644 78 643 q 33 644 61 644 l 31 692 q 171 715 119 701 q 228 729 222 729 q 253 708 253 729 l 247 303 q 259 167 247 200 q 297 115 271 133 q 348 97 322 97 q 420 107 374 97 q 497 133 467 117 q 535 160 526 149 q 543 206 543 172 z "},"Ū":{"ha":1051,"x_min":47,"x_max":1058,"o":"m 401 1153 l 419 1238 l 749 1238 l 732 1153 l 401 1153 m 858 494 l 856 910 q 731 971 856 960 l 731 1025 l 1058 1025 l 1058 975 q 947 914 951 963 l 946 889 q 938 615 943 850 q 932 310 932 381 q 907 175 932 240 q 844 73 882 110 q 746 15 806 36 q 631 -13 686 -7 q 498 -19 575 -19 q 357 6 421 -19 q 258 66 293 31 q 200 147 224 101 q 164 297 164 222 q 158 917 161 888 q 133 958 154 946 q 47 974 113 969 l 47 1025 l 431 1025 l 431 974 q 364 967 386 971 q 306 910 306 954 l 307 542 l 307 431 q 308 298 308 354 q 322 208 308 242 q 367 141 336 175 q 460 85 399 107 q 596 64 521 64 q 717 80 671 64 q 791 124 763 96 q 833 208 819 153 q 858 494 858 303 z "},"ū":{"ha":772,"x_min":31,"x_max":731,"o":"m 213 836 l 231 921 l 560 921 l 543 836 l 213 836 m 543 206 l 546 535 q 528 644 546 635 q 493 650 518 650 l 449 650 l 446 696 q 602 717 554 706 q 654 729 650 729 q 679 708 679 729 q 674 368 679 533 q 668 172 668 203 q 699 92 668 142 q 731 35 731 43 q 718 24 731 28 q 609 -8 621 -8 q 585 12 597 -8 q 564 61 574 32 q 553 92 554 90 q 400 10 469 33 q 288 -12 331 -12 q 199 28 246 -12 q 138 128 153 68 q 124 300 124 172 l 124 524 q 111 619 124 558 q 93 636 108 629 q 69 644 78 643 q 33 644 61 644 l 31 692 q 171 715 119 701 q 228 729 222 729 q 253 708 253 729 l 247 303 q 259 167 247 200 q 297 115 271 133 q 348 97 322 97 q 420 107 374 97 q 497 133 467 117 q 535 160 526 149 q 543 206 543 172 z "},"Ŭ":{"ha":1051,"x_min":47,"x_max":1058,"o":"m 399 1269 l 475 1304 l 492 1288 q 604 1203 538 1203 q 733 1307 671 1203 l 776 1288 q 574 1122 693 1122 q 471 1162 518 1122 q 399 1269 424 1201 m 858 494 l 856 910 q 731 971 856 960 l 731 1025 l 1058 1025 l 1058 975 q 947 914 951 963 l 946 889 q 938 615 943 850 q 932 310 932 381 q 907 175 932 240 q 844 73 882 110 q 746 15 806 36 q 631 -13 686 -7 q 498 -19 575 -19 q 357 6 421 -19 q 258 66 293 31 q 200 147 224 101 q 164 297 164 222 q 158 917 161 888 q 133 958 154 946 q 47 974 113 969 l 47 1025 l 431 1025 l 431 974 q 364 967 386 971 q 306 910 306 954 l 307 542 l 307 431 q 308 298 308 354 q 322 208 308 242 q 367 141 336 175 q 460 85 399 107 q 596 64 521 64 q 717 80 671 64 q 791 124 763 96 q 833 208 819 153 q 858 494 858 303 z "},"ŭ":{"ha":772,"x_min":31,"x_max":731,"o":"m 210 953 l 286 988 l 303 971 q 415 886 349 886 q 544 990 482 886 l 588 971 q 385 806 504 806 q 282 845 329 806 q 210 953 235 885 m 543 206 l 546 535 q 528 644 546 635 q 493 650 518 650 l 449 650 l 446 696 q 602 717 554 706 q 654 729 650 729 q 679 708 679 729 q 674 368 679 533 q 668 172 668 203 q 699 92 668 142 q 731 35 731 43 q 718 24 731 28 q 609 -8 621 -8 q 585 12 597 -8 q 564 61 574 32 q 553 92 554 90 q 400 10 469 33 q 288 -12 331 -12 q 199 28 246 -12 q 138 128 153 68 q 124 300 124 172 l 124 524 q 111 619 124 558 q 93 636 108 629 q 69 644 78 643 q 33 644 61 644 l 31 692 q 171 715 119 701 q 228 729 222 729 q 253 708 253 729 l 247 303 q 259 167 247 200 q 297 115 271 133 q 348 97 322 97 q 420 107 374 97 q 497 133 467 117 q 535 160 526 149 q 543 206 543 172 z "},"Ů":{"ha":1051,"x_min":47,"x_max":1058,"o":"m 458 1228 q 479 1299 458 1267 q 527 1334 493 1318 q 594 1350 561 1350 q 660 1324 628 1350 q 692 1242 692 1297 q 669 1156 692 1188 q 610 1108 631 1117 q 565 1100 590 1100 q 458 1228 458 1100 m 586 1146 q 606 1147 601 1146 q 636 1229 636 1160 q 626 1278 636 1263 q 568 1304 611 1304 q 542 1301 550 1304 q 517 1219 517 1293 q 586 1146 517 1146 m 858 494 l 856 910 q 731 971 856 960 l 731 1025 l 1058 1025 l 1058 975 q 947 914 951 963 l 946 889 q 938 615 943 850 q 932 310 932 381 q 907 175 932 240 q 844 73 882 110 q 746 15 806 36 q 631 -13 686 -7 q 498 -19 575 -19 q 357 6 421 -19 q 258 66 293 31 q 200 147 224 101 q 164 297 164 222 q 158 917 161 888 q 133 958 154 946 q 47 974 113 969 l 47 1025 l 431 1025 l 431 974 q 364 967 386 971 q 306 910 306 954 l 307 542 l 307 431 q 308 298 308 354 q 322 208 308 242 q 367 141 336 175 q 460 85 399 107 q 596 64 521 64 q 717 80 671 64 q 791 124 763 96 q 833 208 819 153 q 858 494 858 303 z "},"ů":{"ha":772,"x_min":31,"x_max":731,"o":"m 269 911 q 290 982 269 950 q 338 1017 304 1001 q 406 1033 372 1033 q 471 1007 439 1033 q 503 926 503 981 q 481 839 503 871 q 422 792 442 800 q 376 783 401 783 q 269 911 269 783 m 397 829 q 417 831 413 829 q 447 913 447 843 q 438 961 447 946 q 379 988 422 988 q 353 985 361 988 q 328 903 328 976 q 397 829 328 829 m 543 206 l 546 535 q 528 644 546 635 q 493 650 518 650 l 449 650 l 446 696 q 602 717 554 706 q 654 729 650 729 q 679 708 679 729 q 674 368 679 533 q 668 172 668 203 q 699 92 668 142 q 731 35 731 43 q 718 24 731 28 q 609 -8 621 -8 q 585 12 597 -8 q 564 61 574 32 q 553 92 554 90 q 400 10 469 33 q 288 -12 331 -12 q 199 28 246 -12 q 138 128 153 68 q 124 300 124 172 l 124 524 q 111 619 124 558 q 93 636 108 629 q 69 644 78 643 q 33 644 61 644 l 31 692 q 171 715 119 701 q 228 729 222 729 q 253 708 253 729 l 247 303 q 259 167 247 200 q 297 115 271 133 q 348 97 322 97 q 420 107 374 97 q 497 133 467 117 q 535 160 526 149 q 543 206 543 172 z "},"Ű":{"ha":1051,"x_min":47,"x_max":1058,"o":"m 858 494 l 856 910 q 731 971 856 960 l 731 1025 l 1058 1025 l 1058 975 q 947 914 951 963 l 946 889 q 938 615 943 850 q 932 310 932 381 q 907 175 932 240 q 844 73 882 110 q 746 15 806 36 q 631 -13 686 -7 q 498 -19 575 -19 q 357 6 421 -19 q 258 66 293 31 q 200 147 224 101 q 164 297 164 222 q 158 917 161 888 q 133 958 154 946 q 47 974 113 969 l 47 1025 l 431 1025 l 431 974 q 364 967 386 971 q 306 910 306 954 l 307 542 l 307 431 q 308 298 308 354 q 322 208 308 242 q 367 141 336 175 q 460 85 399 107 q 596 64 521 64 q 717 80 671 64 q 791 124 763 96 q 833 208 819 153 q 858 494 858 303 z "},"ű":{"ha":772,"x_min":31,"x_max":736,"o":"m 543 206 l 546 535 q 528 644 546 635 q 493 650 518 650 l 449 650 l 446 696 q 602 717 554 706 q 654 729 650 729 q 679 708 679 729 q 674 368 679 533 q 668 172 668 203 q 699 92 668 142 q 731 35 731 43 q 718 24 731 28 q 609 -8 621 -8 q 585 12 597 -8 q 564 61 574 32 q 553 92 554 90 q 400 10 469 33 q 288 -12 331 -12 q 199 28 246 -12 q 138 128 153 68 q 124 300 124 172 l 124 524 q 111 619 124 558 q 93 636 108 629 q 69 644 78 643 q 33 644 61 644 l 31 692 q 171 715 119 701 q 228 729 222 729 q 253 708 253 729 l 247 303 q 259 167 247 200 q 297 115 271 133 q 348 97 322 97 q 420 107 374 97 q 497 133 467 117 q 535 160 526 149 q 543 206 543 172 z "},"Ŵ":{"ha":1389,"x_min":0,"x_max":1389,"o":"m 564 1126 q 706 1297 635 1201 l 761 1297 q 897 1128 821 1210 l 871 1104 l 728 1199 l 589 1101 l 564 1126 m 0 974 l 0 1025 l 361 1025 l 361 974 q 266 959 289 968 q 243 923 243 950 q 319 594 243 896 q 419 232 396 292 q 548 617 460 333 q 636 926 636 900 q 613 960 636 951 q 531 974 589 969 l 531 1025 l 915 1025 l 915 974 q 821 928 821 968 q 853 786 821 917 q 1014 232 954 382 q 1140 649 1074 411 q 1207 915 1207 888 q 1181 953 1207 942 q 1092 971 1156 965 l 1092 1025 l 1389 1025 l 1389 975 q 1339 959 1356 972 q 1311 917 1322 946 q 1036 0 1046 47 l 933 0 q 822 389 910 114 q 688 790 733 664 q 549 380 651 694 q 436 0 447 65 l 328 0 q 99 828 321 57 l 81 886 q 54 950 71 929 q 0 974 38 971 z "},"ŵ":{"ha":1126,"x_min":0,"x_max":1126,"o":"m 424 807 q 578 1044 525 954 l 633 1044 q 768 810 717 886 l 746 792 l 589 939 l 451 789 l 424 807 m 1001 707 l 1107 713 q 1126 692 1126 713 q 1122 681 1126 686 q 1103 656 1117 675 q 1069 606 1089 638 q 876 157 990 468 q 817 7 828 22 q 799 -14 807 -8 q 759 -21 786 -21 q 719 3 732 -21 q 681 110 706 28 q 644 233 657 193 q 608 360 632 274 q 575 476 583 447 l 515 335 q 434 123 447 161 q 414 67 421 85 q 400 34 407 50 q 388 10 393 18 q 377 -6 382 1 q 365 -15 372 -12 q 326 -21 351 -21 q 289 2 301 -21 q 252 107 276 25 q 217 226 228 189 q 189 323 206 264 q 160 422 172 382 q 135 507 149 463 q 56 643 96 631 q 25 648 42 647 q 3 650 8 649 l 0 696 q 143 722 94 708 q 197 735 192 735 q 222 714 222 735 q 331 278 222 674 l 368 146 q 514 617 514 533 q 503 657 514 633 q 492 688 492 681 q 594 713 492 713 q 625 710 617 713 q 638 708 633 708 q 646 704 643 707 q 650 700 649 701 q 656 692 656 699 q 768 253 663 633 l 797 146 q 944 619 944 535 q 937 652 944 643 q 919 661 929 661 q 894 684 894 658 q 942 710 894 710 l 1001 707 z "},"Ŷ":{"ha":901,"x_min":0,"x_max":901,"o":"m 339 1126 q 481 1297 410 1201 l 536 1297 q 672 1128 596 1210 l 646 1104 l 503 1199 l 364 1101 l 339 1126 m 0 974 l 0 1025 l 383 1025 l 383 974 q 292 958 315 968 q 268 928 268 949 q 478 567 268 896 q 710 935 710 899 q 688 960 710 954 q 613 971 667 967 l 613 1025 l 901 1025 l 901 975 q 825 940 847 968 l 514 510 q 510 262 510 418 q 517 93 510 106 q 656 49 536 57 l 656 0 l 225 0 l 225 49 q 296 57 269 53 q 347 76 322 61 q 371 115 371 90 l 365 497 q 89 908 333 554 q 0 974 50 969 z "},"ŷ":{"ha":683,"x_min":0,"x_max":683,"o":"m 203 807 q 357 1044 304 954 l 413 1044 q 547 810 496 886 l 525 792 l 368 939 l 231 789 l 203 807 m 572 707 l 664 713 q 683 692 683 713 q 681 684 683 688 q 674 672 679 681 q 662 652 669 664 q 641 615 654 640 q 611 556 628 589 q 515 335 579 489 q 315 -214 389 18 q 291 -279 297 -269 q 268 -289 285 -289 q 176 -249 176 -289 q 226 -148 176 -226 q 275 -22 275 -69 q 195 306 275 25 q 82 625 115 586 q 52 645 68 643 q 22 648 36 647 q 3 650 8 649 l 0 696 q 142 722 92 708 q 199 735 193 735 q 222 714 222 735 q 331 278 222 674 l 368 146 q 515 619 515 539 q 490 657 515 657 q 465 685 465 657 q 513 710 465 710 l 572 707 z "},"Ÿ":{"ha":901,"x_min":0,"x_max":901,"o":"m 373 1128 q 362 1128 373 1128 q 323 1163 351 1128 q 294 1213 294 1197 q 317 1271 294 1229 q 365 1313 340 1313 q 421 1287 390 1313 q 451 1228 451 1261 q 423 1161 451 1194 q 373 1128 394 1128 m 633 1128 q 622 1128 633 1128 q 583 1163 611 1128 q 554 1213 554 1197 q 578 1271 554 1229 q 626 1313 601 1313 q 682 1287 651 1313 q 713 1228 713 1261 q 683 1161 713 1194 q 633 1128 654 1128 m 0 974 l 0 1025 l 383 1025 l 383 974 q 292 958 315 968 q 268 928 268 949 q 478 567 268 896 q 710 935 710 899 q 688 960 710 954 q 613 971 667 967 l 613 1025 l 901 1025 l 901 975 q 825 940 847 968 l 514 510 q 510 262 510 418 q 517 93 510 106 q 656 49 536 57 l 656 0 l 225 0 l 225 49 q 296 57 269 53 q 347 76 322 61 q 371 115 371 90 l 365 497 q 89 908 333 554 q 0 974 50 969 z "},"Ź":{"ha":918,"x_min":29,"x_max":868,"o":"m 464 1132 q 717 1340 569 1208 q 764 1315 743 1336 q 785 1271 785 1294 l 785 1265 q 638 1178 733 1232 q 482 1099 542 1125 l 464 1132 m 29 15 l 649 947 q 530 954 579 954 q 258 949 481 954 q 220 925 238 947 q 197 886 203 903 q 150 733 186 864 l 103 733 q 97 1010 97 817 l 114 1025 l 851 1025 l 868 1010 q 235 83 286 189 q 393 69 315 69 q 710 88 690 69 q 781 247 747 118 l 794 299 l 850 299 q 839 0 839 132 l 46 0 l 29 15 z "},"ź":{"ha":717,"x_min":46,"x_max":682,"o":"m 307 804 q 519 1054 388 889 q 574 1035 549 1054 q 600 992 599 1017 q 331 775 451 856 l 307 804 m 665 -19 l 667 -42 l 606 -37 q 584 -1 606 -7 q 474 6 563 6 q 61 0 386 6 l 46 36 l 472 635 q 331 640 472 640 q 267 640 294 640 q 216 632 240 640 q 184 616 192 624 q 164 581 176 608 q 146 528 151 553 q 128 446 140 503 l 75 446 q 80 597 78 513 q 86 694 82 681 q 110 707 90 707 l 325 703 l 621 708 q 661 681 661 708 q 574 547 661 653 l 538 503 q 369 275 439 379 q 256 78 256 108 q 274 71 256 71 q 517 83 404 71 q 566 102 547 88 q 585 119 585 117 q 591 133 586 121 q 624 253 596 146 l 682 249 q 665 -19 665 96 z "},"Ż":{"ha":918,"x_min":29,"x_max":868,"o":"m 482 1099 q 471 1099 482 1099 q 432 1133 460 1099 q 404 1183 404 1167 q 427 1240 404 1199 q 475 1282 450 1282 q 531 1256 500 1282 q 561 1197 561 1231 q 533 1131 561 1164 q 482 1099 504 1099 m 29 15 l 649 947 q 530 954 579 954 q 258 949 481 954 q 220 925 238 947 q 197 886 203 903 q 150 733 186 864 l 103 733 q 97 1010 97 817 l 114 1025 l 851 1025 l 868 1010 q 235 83 286 189 q 393 69 315 69 q 710 88 690 69 q 781 247 747 118 l 794 299 l 850 299 q 839 0 839 132 l 46 0 l 29 15 z "},"ż":{"ha":717,"x_min":46,"x_max":682,"o":"m 385 813 q 374 813 385 813 q 335 847 363 813 q 307 897 307 881 q 330 954 307 913 q 378 996 353 996 q 433 970 403 996 q 464 911 464 944 q 435 845 464 878 q 385 813 407 813 m 665 -19 l 667 -42 l 606 -37 q 584 -1 606 -7 q 474 6 563 6 q 61 0 386 6 l 46 36 l 472 635 q 331 640 472 640 q 267 640 294 640 q 216 632 240 640 q 184 616 192 624 q 164 581 176 608 q 146 528 151 553 q 128 446 140 503 l 75 446 q 80 597 78 513 q 86 694 82 681 q 110 707 90 707 l 325 703 l 621 708 q 661 681 661 708 q 574 547 661 653 l 538 503 q 369 275 439 379 q 256 78 256 108 q 274 71 256 71 q 517 83 404 71 q 566 102 547 88 q 585 119 585 117 q 591 133 586 121 q 624 253 596 146 l 682 249 q 665 -19 665 96 z "},"Ž":{"ha":918,"x_min":29,"x_max":868,"o":"m 319 1254 l 353 1292 l 489 1197 l 626 1292 l 647 1268 q 503 1099 546 1161 l 447 1099 q 319 1254 401 1163 m 29 15 l 649 947 q 530 954 579 954 q 258 949 481 954 q 220 925 238 947 q 197 886 203 903 q 150 733 186 864 l 103 733 q 97 1010 97 817 l 114 1025 l 851 1025 l 868 1010 q 235 83 286 189 q 393 69 315 69 q 710 88 690 69 q 781 247 747 118 l 794 299 l 850 299 q 839 0 839 132 l 46 0 l 29 15 z "},"ž":{"ha":717,"x_min":46,"x_max":682,"o":"m 592 1017 q 414 786 536 949 l 358 786 q 208 994 339 821 l 246 1039 l 403 892 l 575 1042 l 592 1017 m 665 -19 l 667 -42 l 606 -37 q 584 -1 606 -7 q 474 6 563 6 q 61 0 386 6 l 46 36 l 472 635 q 331 640 472 640 q 267 640 294 640 q 216 632 240 640 q 184 616 192 624 q 164 581 176 608 q 146 528 151 553 q 128 446 140 503 l 75 446 q 80 597 78 513 q 86 694 82 681 q 110 707 90 707 l 325 703 l 621 708 q 661 681 661 708 q 574 547 661 653 l 538 503 q 369 275 439 379 q 256 78 256 108 q 274 71 256 71 q 517 83 404 71 q 566 102 547 88 q 585 119 585 117 q 591 133 586 121 q 624 253 596 146 l 682 249 q 665 -19 665 96 z "},"ſ":{"ha":479,"x_min":36,"x_max":563,"o":"m 563 951 l 561 900 l 501 899 q 414 1057 472 1057 q 320 950 364 1057 q 276 721 276 843 l 276 622 q 271 225 271 331 q 272 109 271 119 q 275 90 274 99 q 283 77 276 82 q 295 69 290 72 q 315 63 300 65 q 342 57 331 60 q 378 51 353 54 q 425 43 404 47 l 425 0 l 36 0 l 36 47 q 99 56 86 54 q 128 69 111 58 q 146 94 144 81 q 147 174 147 108 q 139 622 147 239 l 138 690 q 218 983 138 858 q 450 1108 299 1108 q 540 1072 518 1108 q 563 951 563 1035 z "},"ȷ":{"ha":349,"x_min":-7,"x_max":254,"o":"m -7 -257 q 28 -214 1 -246 q 69 -156 54 -182 q 99 -92 83 -131 q 117 31 114 -53 q 125 511 125 211 q 110 628 125 603 q 46 653 96 653 l 25 653 l 22 699 q 178 720 131 708 q 231 732 226 732 q 254 710 254 732 l 254 496 q 241 108 254 200 q 222 -9 228 15 q 200 -75 217 -33 q 171 -132 183 -117 q 130 -179 158 -147 q 80 -229 101 -211 q 17 -281 58 -247 l -7 -257 z "},"ˆ":{"ha":694,"x_min":175,"x_max":519,"o":"m 175 807 q 329 1044 276 954 l 385 1044 q 519 810 468 886 l 497 792 l 340 939 l 203 789 l 175 807 z "},"ˇ":{"ha":694,"x_min":156,"x_max":539,"o":"m 539 1017 q 361 786 483 949 l 306 786 q 156 994 286 821 l 193 1039 l 350 892 l 522 1042 l 539 1017 z "},"˘":{"ha":694,"x_min":158,"x_max":536,"o":"m 158 953 l 235 988 l 251 971 q 364 886 297 886 q 493 990 431 886 l 536 971 q 333 806 453 806 q 231 845 278 806 q 158 953 183 885 z "},"˙":{"ha":694,"x_min":265,"x_max":422,"o":"m 343 813 q 332 813 343 813 q 293 847 321 813 q 265 897 265 881 q 288 954 265 913 q 336 996 311 996 q 392 970 361 996 q 422 911 422 944 q 394 845 422 878 q 343 813 365 813 z "},"˚":{"ha":694,"x_min":231,"x_max":464,"o":"m 231 911 q 251 982 231 950 q 299 1017 265 1001 q 367 1033 333 1033 q 432 1007 400 1033 q 464 926 464 981 q 442 839 464 871 q 383 792 403 800 q 338 783 363 783 q 231 911 231 783 m 358 829 q 378 831 374 829 q 408 913 408 843 q 399 961 408 946 q 340 988 383 988 q 314 985 322 988 q 289 903 289 976 q 358 829 289 829 z "},"˜":{"ha":694,"x_min":126,"x_max":568,"o":"m 126 836 q 204 922 149 869 q 279 974 260 974 q 352 943 299 974 q 454 900 406 913 q 547 960 497 913 l 568 943 q 497 863 546 910 q 427 817 449 817 q 343 853 406 817 q 254 890 281 890 q 144 817 208 876 l 126 836 z "},"˝":{"ha":694,"x_min":74,"x_max":621,"o":"m 328 804 q 542 1054 410 889 q 595 1035 571 1054 q 621 992 619 1017 q 491 879 576 949 q 351 775 406 810 l 328 804 m 74 804 q 286 1054 154 889 q 340 1035 315 1054 q 367 992 365 1017 q 97 775 218 856 l 74 804 z "},"̀":{"ha":0,"x_min":-494,"x_max":-203,"o":"m -494 993 q -469 1037 -493 1018 q -415 1056 -444 1056 q -203 806 -283 890 l -225 776 q -365 881 -279 811 q -494 993 -450 950 z "},"́":{"ha":0,"x_min":-429,"x_max":-136,"o":"m -429 804 q -217 1054 -349 889 q -162 1035 -187 1054 q -136 992 -137 1017 q -406 775 -285 856 l -429 804 z "},"̂":{"ha":0,"x_min":-482,"x_max":-137,"o":"m -482 807 q -328 1044 -381 954 l -272 1044 q -137 810 -189 886 l -160 792 l -317 939 l -454 789 l -482 807 z "},"̃":{"ha":0,"x_min":-624,"x_max":-182,"o":"m -624 836 q -546 922 -601 869 q -471 974 -490 974 q -398 943 -451 974 q -296 900 -344 913 q -203 960 -253 913 l -182 943 q -253 863 -204 910 q -323 817 -301 817 q -407 853 -344 817 q -496 890 -469 890 q -606 817 -542 876 l -624 836 z "},"̄":{"ha":0,"x_min":-521,"x_max":-174,"o":"m -521 836 l -503 921 l -174 921 l -190 836 l -521 836 z "},"̆":{"ha":0,"x_min":-581,"x_max":-203,"o":"m -581 953 l -504 988 l -487 971 q -375 886 -442 886 q -246 990 -308 886 l -203 971 q -406 806 -286 806 q -508 845 -461 806 q -581 953 -556 885 z "},"̇":{"ha":0,"x_min":-429,"x_max":-272,"o":"m -351 813 q -362 813 -351 813 q -401 847 -374 813 q -429 897 -429 881 q -406 954 -429 913 q -358 996 -383 996 q -303 970 -333 996 q -272 911 -272 944 q -301 845 -272 878 q -351 813 -329 813 z "},"̈":{"ha":0,"x_min":-633,"x_max":-215,"o":"m -555 811 q -566 811 -555 811 q -605 846 -576 811 q -633 897 -633 881 q -610 954 -633 913 q -562 996 -587 996 q -507 970 -537 996 q -476 911 -476 944 q -505 844 -476 878 q -555 811 -533 811 m -295 811 q -306 811 -295 811 q -345 846 -317 811 q -374 897 -374 881 q -350 954 -374 913 q -301 996 -326 996 q -246 970 -276 996 q -215 911 -215 944 q -244 844 -215 878 q -295 811 -274 811 z "},"̊":{"ha":0,"x_min":-469,"x_max":-236,"o":"m -469 911 q -449 982 -469 950 q -401 1017 -435 1001 q -333 1033 -367 1033 q -268 1007 -300 1033 q -236 926 -236 981 q -258 839 -236 871 q -317 792 -297 800 q -362 783 -337 783 q -469 911 -469 783 m -342 829 q -322 831 -326 829 q -292 913 -292 843 q -301 961 -292 946 q -360 988 -317 988 q -386 985 -378 988 q -411 903 -411 976 q -342 829 -411 829 z "},"̋":{"ha":0,"x_min":-615,"x_max":-68,"o":"m -361 804 q -147 1054 -279 889 q -94 1035 -118 1054 q -68 992 -69 1017 q -198 879 -112 949 q -337 775 -283 810 l -361 804 m -615 804 q -403 1054 -535 889 q -349 1035 -374 1054 q -322 992 -324 1017 q -592 775 -471 856 l -615 804 z "},"̌":{"ha":0,"x_min":-539,"x_max":-156,"o":"m -156 1017 q -333 786 -211 949 l -389 786 q -539 994 -408 821 l -501 1039 l -344 892 l -172 1042 l -156 1017 z "},"̧":{"ha":0,"x_min":-425,"x_max":-219,"o":"m -425 -233 q -324 -217 -360 -233 q -289 -181 -289 -201 q -317 -144 -289 -160 q -390 -126 -344 -128 l -407 -111 l -364 11 l -331 8 l -344 -60 q -219 -165 -219 -85 q -258 -253 -219 -225 q -301 -276 -274 -264 q -422 -286 -333 -282 l -425 -233 z "},"‐":{"ha":375,"x_min":24,"x_max":351,"o":"m 24 347 l 43 439 l 336 439 l 351 424 l 335 347 l 24 347 z "},"‑":{"ha":375,"x_min":24,"x_max":351,"o":"m 24 347 l 43 439 l 336 439 l 351 424 l 335 347 l 24 347 z "},"‒":{"ha":667,"x_min":36,"x_max":631,"o":"m 36 347 l 56 439 l 614 439 l 631 424 l 613 347 l 36 347 z "},"–":{"ha":694,"x_min":36,"x_max":658,"o":"m 36 347 l 56 439 l 642 439 l 658 424 l 640 347 l 36 347 z "},"—":{"ha":1389,"x_min":36,"x_max":1353,"o":"m 36 347 l 56 439 l 1336 439 l 1353 424 l 1335 347 l 36 347 z "},"―":{"ha":1389,"x_min":36,"x_max":1353,"o":"m 36 347 l 56 439 l 1336 439 l 1353 424 l 1335 347 l 36 347 z "},"‘":{"ha":333,"x_min":92,"x_max":242,"o":"m 176 763 q 166 763 176 763 q 124 813 156 763 q 92 902 92 863 q 144 1025 92 942 q 215 1108 196 1108 q 226 1101 218 1108 q 235 1090 235 1094 q 208 1045 235 1085 q 182 974 182 1006 q 212 899 182 942 q 242 847 242 856 q 231 819 242 839 q 176 763 196 763 z "},"’":{"ha":333,"x_min":92,"x_max":242,"o":"m 151 897 q 151 913 151 897 q 122 972 151 929 q 92 1024 92 1015 q 103 1050 92 1032 q 158 1108 138 1108 q 210 1058 178 1108 q 242 969 242 1008 q 190 846 242 929 q 118 763 138 763 q 107 769 115 763 q 99 781 99 776 q 125 826 99 786 q 151 897 151 865 z "},"‚":{"ha":333,"x_min":92,"x_max":242,"o":"m 151 -33 q 151 -17 151 -33 q 122 42 151 -1 q 92 93 92 85 q 103 119 92 101 q 158 178 138 178 q 210 128 178 178 q 242 38 242 78 q 190 -85 242 -1 q 118 -168 138 -168 q 107 -161 115 -168 q 99 -149 99 -154 q 125 -105 99 -144 q 151 -33 151 -65 z "},"“":{"ha":550,"x_min":92,"x_max":458,"o":"m 392 763 q 382 763 392 763 q 340 813 372 763 q 308 902 308 863 q 360 1025 308 942 q 432 1108 413 1108 q 443 1101 435 1108 q 451 1090 451 1094 q 425 1045 451 1085 q 399 974 399 1006 q 428 899 399 942 q 458 847 458 856 q 447 819 458 839 q 392 763 413 763 m 176 763 q 166 763 176 763 q 124 813 156 763 q 92 902 92 863 q 144 1025 92 942 q 215 1108 196 1108 q 226 1101 218 1108 q 235 1090 235 1094 q 208 1045 235 1085 q 182 974 182 1006 q 212 899 182 942 q 242 847 242 856 q 231 819 242 839 q 176 763 196 763 z "},"”":{"ha":550,"x_min":92,"x_max":458,"o":"m 368 897 q 368 913 368 897 q 338 972 368 929 q 308 1024 308 1015 q 319 1050 308 1032 q 374 1108 354 1108 q 426 1058 394 1108 q 458 969 458 1008 q 406 846 458 929 q 335 763 354 763 q 324 769 332 763 q 315 781 315 776 q 342 826 315 786 q 368 897 368 865 m 151 897 q 151 913 151 897 q 122 972 151 929 q 92 1024 92 1015 q 103 1050 92 1032 q 158 1108 138 1108 q 210 1058 178 1108 q 242 969 242 1008 q 190 846 242 929 q 118 763 138 763 q 107 769 115 763 q 99 781 99 776 q 125 826 99 786 q 151 897 151 865 z "},"„":{"ha":550,"x_min":92,"x_max":458,"o":"m 151 -33 q 151 -17 151 -33 q 122 42 151 -1 q 92 93 92 85 q 103 119 92 101 q 158 178 138 178 q 210 128 178 178 q 242 38 242 78 q 190 -85 242 -1 q 118 -168 138 -168 q 107 -161 115 -168 q 99 -149 99 -154 q 125 -105 99 -144 q 151 -33 151 -65 m 368 -33 q 368 -17 368 -33 q 338 42 368 -1 q 308 93 308 85 q 319 119 308 101 q 374 178 354 178 q 426 128 394 178 q 458 38 458 78 q 406 -85 458 -1 q 335 -168 354 -168 q 324 -161 332 -168 q 315 -149 315 -154 q 342 -105 315 -144 q 368 -33 368 -65 z "},"†":{"ha":783,"x_min":42,"x_max":739,"o":"m 42 660 q 58 726 42 710 l 322 717 q 311 851 311 776 q 321 1003 311 925 q 396 1025 342 1025 q 443 1019 438 1025 q 451 1010 449 1014 q 456 1007 453 1007 q 465 849 465 918 q 456 717 465 781 l 736 726 q 739 696 739 715 q 725 644 739 676 l 456 649 l 456 369 q 443 -64 456 39 q 392 -167 431 -167 q 336 -10 350 -167 q 322 636 322 147 l 322 649 l 43 644 q 42 660 42 649 z "},"‡":{"ha":783,"x_min":42,"x_max":739,"o":"m 44 132 q 42 166 42 146 q 56 214 42 186 l 325 210 q 311 437 311 319 q 322 649 311 554 l 43 644 q 42 660 42 649 q 58 726 42 710 l 322 717 q 311 851 311 776 q 321 1003 311 925 q 397 1025 343 1025 q 444 1019 440 1025 q 456 1007 453 1008 q 465 849 465 918 q 456 717 465 781 l 736 726 q 739 696 739 715 q 725 644 739 676 l 456 649 q 469 429 469 538 q 458 210 469 321 l 738 215 q 739 200 739 210 q 722 132 739 151 l 458 142 q 469 8 469 82 q 460 -143 469 -67 q 383 -167 439 -167 q 338 -160 344 -167 q 330 -151 332 -154 q 325 -147 328 -147 q 315 9 315 -60 q 325 143 315 78 l 44 132 z "},"•":{"ha":667,"x_min":151,"x_max":515,"o":"m 513 488 l 515 447 q 467 377 515 432 q 361 275 418 322 q 342 269 353 269 q 283 301 331 269 l 239 332 l 199 364 q 162 403 172 385 q 151 457 151 421 q 227 556 151 478 q 324 634 303 633 q 426 574 344 635 q 513 488 507 514 z "},"…":{"ha":1000,"x_min":88,"x_max":913,"o":"m 821 -28 q 778 30 801 -28 q 754 103 754 88 q 778 156 754 119 q 826 192 803 192 q 881 140 850 192 q 913 68 913 89 q 878 10 913 47 q 821 -28 844 -28 m 488 -28 q 444 30 468 -28 q 421 103 421 88 q 445 156 421 119 q 493 192 469 192 q 548 140 517 192 q 579 68 579 89 q 545 10 579 47 q 488 -28 511 -28 m 154 -28 q 111 30 135 -28 q 88 103 88 88 q 112 156 88 119 q 160 192 136 192 q 215 140 183 192 q 246 68 246 89 q 212 10 246 47 q 154 -28 178 -28 z "},"‰":{"ha":1400,"x_min":58,"x_max":1342,"o":"m 226 300 q 189 300 226 300 q 105 359 151 300 q 58 522 58 418 q 122 676 58 625 q 239 728 186 728 q 376 663 329 728 q 422 510 422 597 q 407 426 422 465 q 346 344 392 388 q 226 300 300 300 m 138 589 q 128 507 128 560 q 165 418 128 454 q 254 382 203 382 q 327 410 306 382 q 349 505 349 439 q 313 608 349 571 q 233 646 278 646 q 138 589 157 646 m 207 -4 l 697 746 l 750 713 l 260 -37 l 207 -4 m 712 -17 q 675 -17 712 -17 q 591 42 638 -17 q 544 205 544 101 q 608 360 544 308 q 725 411 672 411 q 863 346 817 411 q 908 193 908 281 q 893 108 908 146 q 832 27 878 71 q 712 -17 786 -17 m 624 272 q 614 190 614 243 q 651 101 614 138 q 740 65 689 65 q 813 93 792 65 q 835 188 835 121 q 800 291 835 254 q 721 328 765 328 q 624 272 643 328 m 1145 -17 q 1108 -17 1145 -17 q 1024 42 1071 -17 q 978 205 978 101 q 1042 360 978 308 q 1158 411 1106 411 q 1296 346 1250 411 q 1342 193 1342 281 q 1326 108 1342 146 q 1265 27 1311 71 q 1145 -17 1219 -17 m 1057 272 q 1047 190 1047 243 q 1085 101 1047 138 q 1174 65 1122 65 q 1247 93 1225 65 q 1268 188 1268 121 q 1233 291 1268 254 q 1154 328 1199 328 q 1057 272 1076 328 z "},"‹":{"ha":451,"x_min":39,"x_max":390,"o":"m 39 340 q 208 481 93 379 q 346 607 324 583 l 390 585 l 178 336 l 389 90 l 349 69 q 39 340 149 264 z "},"›":{"ha":453,"x_min":63,"x_max":414,"o":"m 63 585 l 106 607 q 247 478 135 578 q 414 340 360 379 q 104 69 310 268 l 64 90 l 275 336 l 63 585 z "},"€":{"ha":667,"x_min":7,"x_max":667,"o":"m 7 396 l 33 461 l 110 461 q 132 554 121 528 q 239 666 154 606 q 397 726 324 726 q 619 626 551 726 l 588 549 l 565 547 q 499 615 532 593 q 385 636 465 636 q 272 597 304 636 q 238 461 240 557 l 551 461 l 525 396 l 235 396 l 235 333 l 499 333 l 472 268 l 238 268 q 282 134 243 182 q 415 86 321 86 q 636 185 536 86 l 667 153 q 643 128 663 149 q 617 103 624 108 q 594 80 611 97 q 568 56 576 63 q 542 36 560 50 q 514 17 525 22 q 485 2 503 11 q 454 -11 468 -7 q 388 -21 422 -21 q 185 60 251 -21 q 104 268 118 142 l 11 268 l 38 333 l 101 333 l 101 342 q 103 396 101 378 l 7 396 z "},"−":{"ha":667,"x_min":15,"x_max":656,"o":"m 15 347 l 35 439 l 639 439 l 656 424 l 638 347 l 15 347 z "},"ﬀ":{"ha":950,"x_min":42,"x_max":1033,"o":"m 1033 951 l 1032 900 l 972 899 q 885 1057 943 1057 q 791 950 835 1057 q 747 721 747 843 l 747 700 l 933 700 l 929 622 l 747 622 q 742 225 742 331 q 743 109 742 119 q 746 90 744 99 q 754 77 747 82 q 766 69 761 72 q 786 63 771 65 q 813 57 801 60 q 849 51 824 54 q 896 43 875 47 l 896 0 l 507 0 l 507 47 q 569 56 557 54 q 599 69 582 58 q 617 94 615 81 q 618 174 618 108 q 610 622 618 239 l 304 622 q 299 225 299 331 q 300 109 299 119 q 303 90 301 99 q 311 77 304 82 q 323 69 318 72 q 343 63 328 65 q 369 57 358 60 q 406 51 381 54 q 453 43 432 47 l 453 0 l 64 0 l 64 47 q 126 56 114 54 q 156 69 139 58 q 174 94 172 81 q 175 174 175 108 q 167 622 175 239 l 42 622 l 42 669 l 165 690 q 246 983 165 858 q 478 1108 326 1108 q 568 1072 546 1108 q 590 951 590 1035 l 589 900 l 529 899 q 442 1057 500 1057 q 348 950 392 1057 q 304 721 304 843 l 304 700 l 608 700 q 747 1047 611 932 q 921 1108 819 1108 q 1011 1072 989 1108 q 1033 951 1033 1035 z "},"ﬁ":{"ha":833,"x_min":42,"x_max":806,"o":"m 533 624 l 440 622 l 304 622 q 299 225 299 331 q 300 109 299 119 q 303 90 301 99 q 311 77 304 82 q 323 69 318 72 q 343 63 328 65 q 369 57 358 60 q 406 51 381 54 q 453 43 432 47 l 453 0 l 64 0 l 64 47 q 126 56 114 54 q 156 69 139 58 q 174 94 172 81 q 175 174 175 108 q 167 622 175 239 l 42 622 l 42 669 l 165 690 q 519 1110 165 1110 q 639 1083 613 1110 q 665 985 665 1056 l 664 901 l 604 896 q 486 1060 574 1060 q 370 988 415 1060 q 311 831 325 917 q 304 700 304 788 l 472 700 q 619 715 547 700 q 696 731 692 731 q 719 708 719 731 q 718 617 719 692 q 713 104 713 319 q 735 63 713 76 q 806 47 757 50 l 806 0 l 483 0 l 483 47 q 572 66 554 53 q 590 121 590 79 l 590 410 q 585 592 590 560 q 550 624 579 624 l 533 624 z "},"ﬂ":{"ha":850,"x_min":42,"x_max":819,"o":"m 600 192 l 604 906 q 579 1033 604 1006 q 497 1060 554 1060 q 401 1026 439 1060 q 344 939 364 993 q 304 721 304 835 l 304 700 l 490 700 l 486 622 l 304 622 q 300 261 300 403 q 301 109 300 119 q 304 90 303 99 q 313 77 306 82 q 324 69 319 72 q 344 63 329 65 q 369 57 358 60 q 406 51 381 54 q 453 43 432 47 l 453 0 l 64 0 l 64 47 q 126 56 114 54 q 156 69 139 58 q 174 94 172 81 q 175 174 175 108 q 167 622 175 239 l 42 622 l 42 669 l 165 690 q 246 983 165 858 q 478 1108 326 1108 l 706 1108 q 728 1088 728 1108 q 731 799 731 975 q 724 428 731 622 q 717 157 717 235 q 733 67 717 79 q 819 47 749 56 l 819 0 l 492 0 l 492 47 q 521 52 503 49 q 544 56 539 56 q 563 61 550 57 q 578 68 575 65 q 587 79 581 71 q 594 95 593 88 q 597 118 594 103 q 600 150 600 133 l 600 192 z "},"ﬃ":{"ha":1276,"x_min":42,"x_max":1249,"o":"m 976 624 l 883 622 l 747 622 q 742 225 742 331 q 743 109 742 119 q 746 90 744 99 q 754 77 747 82 q 766 69 761 72 q 786 63 771 65 q 813 57 801 60 q 849 51 824 54 q 896 43 875 47 l 896 0 l 507 0 l 507 47 q 569 56 557 54 q 599 69 582 58 q 617 94 615 81 q 618 174 618 108 q 610 622 618 239 l 304 622 q 299 225 299 331 q 300 109 299 119 q 303 90 301 99 q 311 77 304 82 q 323 69 318 72 q 343 63 328 65 q 369 57 358 60 q 406 51 381 54 q 453 43 432 47 l 453 0 l 64 0 l 64 47 q 126 56 114 54 q 156 69 139 58 q 174 94 172 81 q 175 174 175 108 q 167 622 175 239 l 42 622 l 42 669 l 165 690 q 246 983 165 858 q 478 1108 326 1108 q 568 1072 546 1108 q 590 951 590 1035 l 589 900 l 529 899 q 442 1057 500 1057 q 348 950 392 1057 q 304 721 304 843 l 304 700 l 608 700 q 963 1110 614 1110 q 1082 1083 1056 1110 q 1108 985 1108 1056 l 1107 901 l 1047 896 q 929 1060 1017 1060 q 813 988 858 1060 q 754 831 768 917 q 747 700 747 788 l 915 700 q 1063 715 990 700 q 1139 731 1135 731 q 1163 708 1163 731 q 1161 617 1163 692 q 1156 104 1156 444 q 1178 63 1156 76 q 1249 47 1200 50 l 1249 0 l 926 0 l 926 47 q 1015 66 997 53 q 1033 121 1033 79 l 1033 410 q 1028 592 1033 560 q 993 624 1022 624 l 976 624 z "},"ﬄ":{"ha":1293,"x_min":42,"x_max":1263,"o":"m 1043 192 l 1047 906 q 1022 1033 1047 1006 q 940 1060 997 1060 q 844 1026 882 1060 q 786 939 807 993 q 747 721 747 835 l 747 700 l 933 700 l 929 622 l 747 622 q 743 261 743 403 q 744 109 743 119 q 747 90 746 99 q 756 77 749 82 q 767 69 763 72 q 787 63 772 65 q 813 57 801 60 q 849 51 824 54 q 896 43 875 47 l 896 0 l 507 0 l 507 47 q 569 56 557 54 q 599 69 582 58 q 617 94 615 81 q 618 174 618 108 q 610 622 618 239 l 304 622 q 299 225 299 331 q 300 109 299 119 q 303 90 301 99 q 311 77 304 82 q 323 69 318 72 q 343 63 328 65 q 369 57 358 60 q 406 51 381 54 q 453 43 432 47 l 453 0 l 64 0 l 64 47 q 126 56 114 54 q 156 69 139 58 q 174 94 172 81 q 175 174 175 108 q 167 622 175 239 l 42 622 l 42 669 l 165 690 q 246 983 165 858 q 478 1108 326 1108 q 568 1072 546 1108 q 590 951 590 1035 l 589 900 l 529 899 q 442 1057 500 1057 q 348 950 392 1057 q 304 721 304 843 l 304 700 l 608 700 q 747 1047 611 932 q 921 1108 819 1108 l 1149 1108 q 1171 1088 1171 1108 q 1174 799 1174 975 q 1167 428 1174 622 q 1160 157 1160 235 q 1176 67 1160 79 q 1263 47 1192 56 l 1263 0 l 935 0 l 935 47 q 964 52 946 49 q 988 56 982 56 q 1006 61 993 57 q 1021 68 1018 65 q 1030 79 1024 71 q 1037 95 1036 88 q 1040 118 1038 103 q 1043 150 1043 133 l 1043 192 z "},"ﬆ":{"ha":1003,"x_min":63,"x_max":989,"o":"m 668 261 l 672 622 l 551 622 l 551 664 l 672 688 l 672 815 q 751 908 751 839 q 690 974 751 946 q 545 1001 629 1001 q 398 956 461 1001 q 335 814 335 910 q 349 725 335 775 q 436 683 407 713 q 465 600 465 654 q 451 561 465 581 q 417 542 436 542 q 374 566 397 542 q 342 614 351 590 l 332 639 q 322 642 329 639 q 272 647 308 647 q 210 637 235 647 q 175 611 185 626 q 156 547 156 582 q 190 484 156 511 q 275 440 225 457 q 376 403 325 424 q 461 337 426 383 q 496 218 496 290 q 475 111 496 146 q 386 11 438 51 q 321 -14 365 -4 q 254 -24 276 -24 q 76 26 106 -24 q 65 74 65 44 q 72 212 65 186 q 99 238 78 238 q 128 219 121 238 q 138 176 135 201 q 149 126 140 151 q 190 83 158 101 q 278 65 221 65 q 371 93 336 65 q 406 169 406 121 q 370 244 406 217 q 284 288 335 272 q 183 323 233 304 q 98 385 133 342 q 63 496 63 428 q 86 600 63 564 q 174 701 132 674 q 300 729 217 729 q 283 829 283 781 q 367 1006 283 944 q 558 1067 451 1067 q 733 1020 664 1067 q 801 886 801 974 l 797 743 l 797 700 l 974 700 l 969 622 l 797 622 l 793 279 q 806 125 793 172 q 856 78 819 78 q 960 118 892 78 l 989 90 q 814 -21 882 -21 q 696 40 724 -21 q 668 261 668 101 z "}}}
